<svg xmlns="http://www.w3.org/2000/svg" xml:space="preserve" id="web-developer-developing-webpage" viewBox="0 0 170 170"><g><g><g><path d="m30.79 77.883 60.078-7.862c2.13-.279 3.604-2.37 3.291-4.672l-5.322-39.15c-.313-2.302-2.295-3.943-4.426-3.664l-60.078 7.862c-2.13.278-3.604 2.37-3.291 4.672l5.322 39.15c.313 2.302 2.295 3.943 4.426 3.664"/></g><g><path fill="#d4eef4" d="m31.8 78.956 60.078-7.861c2.13-.279 3.604-2.37 3.291-4.673l-5.322-39.15c-.313-2.302-2.295-3.942-4.426-3.663L25.343 31.47c-2.13.28-3.604 2.371-3.291 4.673l5.322 39.15c.313 2.302 2.295 3.942 4.426 3.663"/></g><g><path d="M26.48 38.94a.125.125 0 0 1-.016-.25l58.972-7.952a.13.13 0 0 1 .14.107.125.125 0 0 1-.106.14l-58.973 7.953z"/></g><g><ellipse cx="28.441" cy="35.133" fill="#66cb00" rx="1.811" ry="1.527" transform="rotate(-1.262 28.441 35.133)"/></g><g><ellipse cx="33.039" cy="34.48" fill="#cb6531" rx="1.81" ry="1.527" transform="rotate(-3.494 33.04 34.48)"/></g><g><ellipse cx="37.908" cy="33.783" fill="#ff98cb" rx="1.81" ry="1.527" transform="rotate(-3.494 37.908 33.783)"/></g><g><path fill="#fff" d="M39.2 40.763c-1.02.128-1.728 1.056-1.558 2.044l4.877 28.359c.163.947 1.073 1.594 2.048 1.456l36.624-5.187c1.011-.143 1.702-1.073 1.525-2.054l-.263-1.458-.681-3.788-.944-5.243-1.048-5.827-.997-5.536-.787-4.373-.204-1.135c-.084-.467-.135-.994-.326-1.425-.097-.217-.269-.413-.5-.486-.476-.15-1.287.087-1.788.15l-1.833.23-4.745.593-5.716.716-6.125.766-5.971.748-5.256.657-3.979.498-2.14.268z"/></g><g><g><path d="M71.652 46.587c-.118-.345.113-.668.257-.979l.273-.586-.809.101-.008-.024a2 2 0 0 0-.142-.313c-.11-.2-.245-.386-.397-.56a4 4 0 0 0-.75-.662 5.6 5.6 0 0 0-1.203-.621 7 7 0 0 0-.802-.25 9 9 0 0 0-.456-.103c-.135-.026-.319-.028-.419-.126-.043-.042-.075-.09-.11-.139l-.305.086c-.033.009-.087.014-.115.032-.025.015-.02.014-.024.04-.008.048-.002.1-.003.148l-.011.502-.018.767c.077.082 2.013-.181 3.312 1.704l-.921.228 1.611.79c.002.01.07.035.081.04l.084.042.168.082q.131.065.263.123l.122.052.186-.004.142-.003c.03 0 .098.011.104-.023.001-.012-.005-.024.005-.032-.031-.107-.079-.207-.115-.312"/></g><g><path d="m63.982 48.113-.875.11-2.77.345c-1.084.136-2.255.154-3.243.639-.704.345-1.473.384-2.11-.124-.51-.405-.56-1.018-.637-1.603l-.469-3.564-.302-2.296c-.08-.61.387-1.17 1.044-1.253l1.38-.172 2.982-.372 2.842-.355c.828-.104 1.66-.264 2.433.136.129.066.265.17.252.307-.012.135-.159.218-.246.327-.161.201-.048.46-.018.686l.077.587.197 1.5.396 3.017.11.832c.08.61-.387 1.172-1.043 1.253"/></g><g><path fill="#fff" d="m64.717 48.35-8.265 1.032c-.641.08-1.227-.361-1.31-.986l-.855-6.51c-.082-.624.371-1.195 1.012-1.275l8.265-1.032c.641-.08 1.227.362 1.31.986l.855 6.51c.082.624-.371 1.195-1.012 1.275"/><path d="M56.303 49.516c-.642 0-1.2-.466-1.284-1.104l-.855-6.509c-.044-.33.045-.658.25-.923.212-.274.52-.45.87-.493l8.265-1.032c.71-.087 1.357.403 1.448 1.094l.855 6.51c.044.329-.046.657-.25.922a1.3 1.3 0 0 1-.87.493l-8.265 1.032q-.083.01-.164.01m7.41-9.822q-.067 0-.133.009l-8.265 1.031a1.05 1.05 0 0 0-.704.398 1 1 0 0 0-.2.739l.856 6.509c.073.555.591.946 1.17.879l8.264-1.033c.283-.035.532-.176.703-.397a.99.99 0 0 0 .2-.739l-.855-6.508a1.04 1.04 0 0 0-1.036-.888"/></g><g><path d="m76.492 57.087-.875.109-2.769.346c-1.084.135-2.256.154-3.243.638-.704.345-1.474.384-2.111-.123-.51-.406-.56-1.018-.637-1.604l-.468-3.564-.302-2.295c-.08-.61.387-1.172 1.043-1.253l1.381-.173 2.982-.372 2.841-.355c.829-.103 1.66-.263 2.434.136.128.066.265.17.252.308-.013.134-.16.217-.247.326-.16.202-.048.46-.018.686l.077.587.197 1.501.506 3.849c.08.61-.387 1.17-1.043 1.253"/></g><g><path fill="#fff" d="m77.227 57.324-8.265 1.031c-.64.08-1.227-.361-1.309-.986l-.855-6.509c-.082-.624.37-1.196 1.011-1.276l8.265-1.032c.641-.08 1.228.362 1.31.987l.855 6.508c.082.625-.37 1.196-1.012 1.277"/><path d="M68.813 58.49c-.641 0-1.2-.467-1.284-1.105l-.855-6.509c-.043-.33.046-.657.25-.923.213-.274.521-.449.87-.492l8.265-1.033a1.287 1.287 0 0 1 1.448 1.095l.856 6.508c.043.33-.046.658-.25.923-.213.275-.522.45-.87.493l-8.265 1.032q-.083.01-.165.01m7.41-9.822q-.065 0-.133.008l-8.265 1.032a1.04 1.04 0 0 0-.703.398.99.99 0 0 0-.2.738l.855 6.509c.073.555.593.95 1.17.879L77.21 57.2c.283-.036.533-.177.704-.398a1 1 0 0 0 .2-.739l-.855-6.508a1.04 1.04 0 0 0-1.036-.887m1.004 8.656h.003z"/></g><g><path d="m65.518 67.968-.875.11-2.769.345c-1.084.136-2.256.154-3.243.639-.704.345-1.473.384-2.11-.124-.51-.405-.56-1.018-.638-1.603l-.468-3.564-.302-2.296c-.08-.61.387-1.17 1.043-1.253l1.381-.172 2.982-.372 2.842-.355c.828-.104 1.66-.264 2.433.136.128.066.265.17.252.307-.013.135-.16.218-.246.327-.162.201-.048.46-.019.686l.077.587.198 1.5.505 3.85c.08.61-.386 1.17-1.043 1.252"/></g><g><path fill="#fff" d="m66.253 68.205-8.265 1.032c-.64.08-1.227-.361-1.309-.986l-.855-6.509c-.082-.625.37-1.196 1.012-1.276l8.265-1.032c.64-.08 1.227.362 1.309.986l.855 6.51c.082.624-.37 1.195-1.012 1.275"/><path d="M57.84 69.371c-.642 0-1.2-.466-1.284-1.104l-.856-6.509c-.043-.33.046-.657.25-.923.212-.274.521-.45.87-.493l8.265-1.032c.71-.088 1.357.403 1.449 1.094l.855 6.51c.044.329-.046.657-.251.923a1.3 1.3 0 0 1-.869.492l-8.265 1.032q-.083.01-.165.01m7.41-9.822q-.067 0-.134.009l-8.265 1.032a1.05 1.05 0 0 0-.703.398 1 1 0 0 0-.2.738l.855 6.509c.073.555.594.947 1.17.879l8.265-1.033c.282-.035.532-.176.702-.397a1 1 0 0 0 .202-.739l-.856-6.508a1.04 1.04 0 0 0-1.036-.888"/></g><g><path d="m51.97 60.148-.875.11-2.769.345c-1.084.136-2.256.154-3.243.639-.704.345-1.474.383-2.111-.124-.51-.405-.56-1.018-.637-1.603l-.468-3.564-.302-2.296c-.08-.61.387-1.17 1.043-1.253l1.381-.172 2.982-.373 2.841-.354c.829-.104 1.66-.264 2.434.135.128.067.264.171.252.308-.013.135-.16.218-.247.326-.16.202-.048.461-.018.687l.077.586.197 1.502.397 3.016.11.832c.08.61-.388 1.171-1.044 1.253"/></g><g><path fill="#fff" d="m52.705 60.385-8.265 1.032c-.64.08-1.227-.362-1.309-.986l-.855-6.51c-.083-.624.37-1.195 1.011-1.275l8.265-1.032c.641-.08 1.227.361 1.31.986l.855 6.51c.082.624-.37 1.195-1.012 1.275"/><path d="M44.291 61.551c-.64 0-1.2-.467-1.284-1.104l-.855-6.509c-.044-.33.045-.658.25-.923.212-.274.521-.45.87-.493l8.265-1.032c.707-.09 1.358.402 1.448 1.094l.856 6.509c.043.33-.046.658-.251.923a1.3 1.3 0 0 1-.87.493l-8.264 1.032q-.083.01-.165.01m7.411-9.822q-.066 0-.134.009l-8.265 1.031a1.04 1.04 0 0 0-.703.398 1 1 0 0 0-.2.739l.855 6.509c.073.555.592.948 1.17.878l8.265-1.032c.282-.035.532-.176.703-.397a.99.99 0 0 0 .2-.739l-.855-6.509a1.04 1.04 0 0 0-1.036-.887"/></g><g><g><path d="M69.516 53.717q.387.136.81.263.42.126.532.146.088.01.102.118a.2.2 0 0 1-.026.142.15.15 0 0 1-.117.069.9.9 0 0 1-.269-.05l-.453-.14-.616-.196a7 7 0 0 1-.415-.143.16.16 0 0 1-.07-.054.2.2 0 0 1-.028-.09.2.2 0 0 1 .009-.109.2.2 0 0 1 .066-.078q.046-.035.322-.183l.703-.372q.423-.222.645-.33.22-.108.289-.115.063-.008.109.047.046.054.057.136.014.107-.172.194-.192.078-.673.32t-.805.425"/></g><g><path d="M73.715 51.845q.009.072-.153.217a9.4 9.4 0 0 0-1.12 1.485q-.516.839-.692 1.198a.6.6 0 0 1-.105.159.24.24 0 0 1-.145.062.16.16 0 0 1-.121-.032.16.16 0 0 1-.061-.106.27.27 0 0 1 .022-.144q.067-.162.432-.778a13 13 0 0 1 1.2-1.709q.362-.437.417-.464a.4.4 0 0 1 .138-.038.18.18 0 0 1 .117.032.16.16 0 0 1 .07.118"/></g><g><path d="M75.325 52.963a18 18 0 0 0-.812-.264 6 6 0 0 0-.533-.145.1.1 0 0 1-.066-.039.15.15 0 0 1-.035-.078.22.22 0 0 1 .025-.145q.037-.058.12-.069a.8.8 0 0 1 .267.051l.454.14.616.198q.364.12.413.141a.2.2 0 0 1 .071.055.2.2 0 0 1 .03.09q.014.087-.028.14-.04.05-.255.169l-.665.354q-.45.24-.732.377-.285.136-.356.146-.062.008-.108-.047a.26.26 0 0 1-.056-.135q-.014-.11.17-.194.194-.08.675-.32.48-.242.805-.425"/></g></g><g><g><path fill="#fe3231" d="M44.006 57.948a.3.3 0 0 1 .013-.063l.023-.065a1 1 0 0 0 .047-.212l.037-.287.027-.212.034-.246q.017-.11.043-.232l.057-.25.06-.266a4 4 0 0 0 .049-.294q-.002-.015-.012-.016a.1.1 0 0 0-.025 0 .2.2 0 0 1-.079-.003.13.13 0 0 1-.053-.028.14.14 0 0 1-.032-.046.322.322 0 0 1-.01-.18.2.2 0 0 1 .04-.077.2.2 0 0 1 .063-.046 1 1 0 0 1 .069-.027l.058-.022a.06.06 0 0 0 .034-.034 1 1 0 0 0 .025-.081.3.3 0 0 1 .03-.081.2.2 0 0 1 .053-.065.17.17 0 0 1 .09-.035.13.13 0 0 1 .075.013.2.2 0 0 1 .063.045.4.4 0 0 1 .049.061l.038.063a5 5 0 0 1 .553-.02q.144.008.292.04.148.03.27.093a.6.6 0 0 1 .21.16.43.43 0 0 1 .103.232 1 1 0 0 1 .003.147l-.006.062a.34.34 0 0 1-.045.144.7.7 0 0 1-.093.126q-.148.164-.334.285t-.391.214q-.208.092-.426.166-.219.073-.433.14l-.051.014q-.042.01-.047.035a3 3 0 0 0-.03.218 12 12 0 0 0-.035.348 3 3 0 0 1-.022.19.5.5 0 0 1-.14.253.17.17 0 0 1-.088.041.1.1 0 0 1-.06-.011.2.2 0 0 1-.047-.039.27.27 0 0 1-.05-.134zm.575-1.379-.006.032-.008.04-.005.062q0 .008.005.014.003.005.013.004l.035-.008q.03-.008.07-.02l.09-.027a3 3 0 0 0 .342-.124q.135-.053.265-.119.132-.063.25-.133.119-.07.208-.142a1 1 0 0 0 .148-.15.2.2 0 0 0 .021-.221.4.4 0 0 0-.035-.058.4.4 0 0 0-.158-.116.7.7 0 0 0-.193-.051 1 1 0 0 0-.21-.004q-.111.005-.216.018l-.085.015q-.056.01-.118.023l-.114.026a.3.3 0 0 0-.07.028.1.1 0 0 0-.014.02l-.007.022-.029.101q-.017.066-.038.146l-.042.17-.04.174-.036.158q-.016.073-.023.12"/></g><g><path fill="#fe3231" d="M46.475 57.671a.3.3 0 0 1 0-.052 1 1 0 0 1 .018-.135l.01-.053.456-2.407.017-.023a.107.107 0 0 1 .06-.03l.033-.004a.14.14 0 0 1 .12.034.1.1 0 0 1 .03.048.3.3 0 0 1 .015.06.4.4 0 0 1 .003.06l-.008.115-.006.04-.227 1.283.175-.037.592-.203q.3-.104.59-.2a.14.14 0 0 0 .051-.072.7.7 0 0 0 .036-.133q.015-.083.03-.191a5 5 0 0 1 .043-.244l.024-.124q.013-.09.02-.185.008-.094.026-.171a.4.4 0 0 1 .055-.132.14.14 0 0 1 .105-.062.2.2 0 0 1 .155.039.2.2 0 0 1 .07.134.6.6 0 0 1-.02.188q-.026.132-.068.322-.015.072-.035.147a4 4 0 0 0-.056.268.4.4 0 0 0-.003.09q.003.03.017.06t.018.064a.2.2 0 0 1-.028.137.7.7 0 0 1-.11.12l-.005.044-.007.065-.013.09a3 3 0 0 0-.026.392l-.006.19a2 2 0 0 1-.015.192.2.2 0 0 1-.025.066.2.2 0 0 1-.048.053.3.3 0 0 1-.061.037.2.2 0 0 1-.062.019.12.12 0 0 1-.076-.011.15.15 0 0 1-.079-.09.3.3 0 0 1-.01-.047 1 1 0 0 1-.004-.069q0-.049.004-.115l.008-.142.01-.155q.013-.18.031-.399l-.013.002a1 1 0 0 0-.103.023 3 3 0 0 0-.233.084l-.155.06q-.087.035-.188.073l-.2.078-.49.191a1.7 1.7 0 0 0-.083.323 6 6 0 0 0-.048.318.236.236 0 0 1-.054.091.3.3 0 0 1-.045.039.1.1 0 0 1-.045.018.13.13 0 0 1-.12-.047.2.2 0 0 1-.032-.058.4.4 0 0 1-.015-.066"/></g><g><path fill="#fe3231" d="M49.32 57.288a.2.2 0 0 1 .013-.062l.048-.154a1 1 0 0 0 .021-.124l.037-.287a20 20 0 0 1 .062-.458q.016-.11.043-.231l.057-.25.06-.266a4 4 0 0 0 .048-.295q0-.015-.012-.016h-.024a.2.2 0 0 1-.08-.003.13.13 0 0 1-.052-.028.13.13 0 0 1-.033-.046.315.315 0 0 1-.01-.18.2.2 0 0 1 .04-.077.2.2 0 0 1 .064-.045l.068-.028q.034-.011.059-.021a.06.06 0 0 0 .033-.035 1 1 0 0 0 .026-.08.3.3 0 0 1 .03-.082.2.2 0 0 1 .052-.065.17.17 0 0 1 .166-.022.3.3 0 0 1 .062.045q.028.03.05.062l.038.062a5 5 0 0 1 .553-.02q.143.008.291.039.147.03.271.094a.7.7 0 0 1 .21.16.43.43 0 0 1 .103.232.7.7 0 0 1 .002.147l-.005.062a.3.3 0 0 1-.046.143.7.7 0 0 1-.092.127q-.149.164-.335.285-.184.121-.391.214-.208.094-.426.166-.219.073-.433.14l-.05.014q-.044.009-.047.036a3 3 0 0 0-.032.217l-.018.179-.015.169q-.008.085-.024.19a.4.4 0 0 1-.023.082.4.4 0 0 1-.115.172.17.17 0 0 1-.089.04.1.1 0 0 1-.06-.01.2.2 0 0 1-.046-.04.24.24 0 0 1-.051-.134zm.574-1.378q0 .013-.006.031l-.007.04-.005.038v.024q0 .008.004.014t.013.004l.035-.008q.03-.008.07-.02l.09-.027.09-.029a4.2 4.2 0 0 0 .768-.347 1.5 1.5 0 0 0 .207-.142.8.8 0 0 0 .149-.15.2.2 0 0 0 .02-.22.4.4 0 0 0-.034-.059.4.4 0 0 0-.158-.116.7.7 0 0 0-.193-.051 1 1 0 0 0-.212-.004q-.11.006-.214.019-.027.002-.085.014l-.12.024-.114.025a.3.3 0 0 0-.069.028.1.1 0 0 0-.013.02l-.008.022-.028.102q-.018.064-.038.145l-.042.17-.041.174-.036.158z"/></g></g><g><path d="M57.862 64.232a.21.21 0 0 0 .11.222c.254.142.74.512.444 1.144a.21.21 0 0 0 .016.215l.534.709a.27.27 0 0 0 .244.096c.305-.035.994-.04 1.268.55a.26.26 0 0 0 .205.148l1.036.122a.27.27 0 0 0 .238-.09c.153-.183.544-.508 1.307-.316.075.018.158.01.222-.03.259-.17.93-.61.933-.63-.003-.022-.407-.875.47-1.055a.26.26 0 0 0 .18-.118l.307-.571a.2.2 0 0 0-.03-.231c-.174-.198-.491-.663-.211-1.155a.205.205 0 0 0-.007-.231l-.639-.872a.26.26 0 0 0-.27-.097c-.32.072-1.03.113-1.419-.8a.25.25 0 0 0-.189-.144l-.964-.175a.27.27 0 0 0-.25.083c-.206.241-.775.767-1.556.422a.28.28 0 0 0-.268.027l-.656.443a.2.2 0 0 0-.094.21c.05.272.086.907-.64 1.15-.085.028-.152.088-.167.169zm1.497-.231c.15-1.075 1.295-1.825 2.56-1.677 1.261.148 2.164 1.14 2.015 2.214-.15 1.071-1.295 1.822-2.556 1.674-1.265-.149-2.168-1.14-2.019-2.211"/></g><g><g><path fill="#fff" d="M63.978 43.892a3 3 0 0 0-.548-1.371c-.766-1.062-2.205-1.682-3.752-1.49a1 1 0 0 0-.068.012c-.85.12-1.598.466-2.171.96-.462.39-.808.874-1.011 1.405a3 3 0 0 0-.17 1.448q.049.356.177.683c.564 1.465 2.264 2.407 4.121 2.175q.389-.048.746-.158c1.078-.325 1.931-1.036 2.373-1.916a2.98 2.98 0 0 0 .303-1.748m-1.604 1.562a2.64 2.64 0 0 1-1.275.992c-.214.081-.446.14-.687.17-1.218.152-2.336-.449-2.74-1.397a1.969 1.969 0 0 1-.07-1.369c.119-.385.348-.738.664-1.022a2.82 2.82 0 0 1 1.556-.695c1.082-.135 2.083.32 2.579 1.085l.057.094a2.01 2.01 0 0 1-.084 2.142"/><path d="M60.005 47.873c-1.655 0-3.153-.905-3.686-2.289q-.136-.347-.184-.712a3.1 3.1 0 0 1 .176-1.507 3.6 3.6 0 0 1 1.047-1.457 4.34 4.34 0 0 1 2.235-.988 1 1 0 0 1 .07-.012c1.541-.19 3.055.413 3.868 1.54l.079.115a3.1 3.1 0 0 1 .176 3.133c-.465.929-1.358 1.65-2.448 1.98a4.6 4.6 0 0 1-1.333.197m.224-6.75q-.267 0-.536.032-.028.004-.053.01c-.815.115-1.544.437-2.12.933-.443.374-.78.842-.976 1.355a2.85 2.85 0 0 0 .008 2.04c.552 1.436 2.231 2.312 3.988 2.098.25-.032.495-.084.726-.154 1.025-.31 1.862-.985 2.297-1.853a2.86 2.86 0 0 0 .291-1.676 2.84 2.84 0 0 0-.451-1.206l-.076-.11c-.665-.922-1.843-1.47-3.098-1.47m-.194 5.641c-1.102 0-2.088-.58-2.477-1.497a2.095 2.095 0 0 1-.073-1.455 2.4 2.4 0 0 1 .698-1.077 2.94 2.94 0 0 1 1.511-.71c.034-.006.075-.011.113-.016 1.102-.136 2.16.31 2.699 1.141l.046.077c.153.265.243.529.28.807a2.17 2.17 0 0 1-.354 1.488c-.307.463-.78.833-1.335 1.04a3.1 3.1 0 0 1-1.108.202m.166-4.53a3 3 0 0 0-.463.037 2.7 2.7 0 0 0-1.388.65c-.3.269-.517.603-.627.965a1.84 1.84 0 0 0 .064 1.283c.392.922 1.466 1.465 2.61 1.324q.34-.044.658-.164a2.52 2.52 0 0 0 1.215-.944c.265-.406.374-.861.314-1.318a1.9 1.9 0 0 0-.234-.693l-.055-.09c-.427-.658-1.224-1.05-2.094-1.05m2.173 3.22h.003z"/></g><g><path fill="#6566ff" d="m63.507 42.634-1.05.678-.056-.094c-.496-.765-1.497-1.22-2.579-1.085q-.054.006-.108.016l-.104-1.106q.031-.007.068-.011c1.547-.193 2.986.427 3.752 1.489z"/></g><g><path fill="#ffcd00" d="M63.978 43.892a3 3 0 0 1-.303 1.748l-1.301-.186c.272-.415.4-.902.334-1.403a2 2 0 0 0-.25-.74l-.057-.093 1.029-.697.077.113c.247.374.41.798.471 1.258"/></g><g><path fill="#6566ff" d="m64.605 41.66.008.06-.006.003z"/></g><g><path fill="#ff97cc" d="M61.302 47.556a4.4 4.4 0 0 1-.746.158c-1.857.232-3.557-.71-4.12-2.175l1.236-.32c.404.948 1.522 1.55 2.74 1.397.241-.03.473-.089.687-.17z"/></g><g><path fill="#fe3231" d="M58.266 42.828a2.27 2.27 0 0 0-.663 1.022l-1.175-.441a3.47 3.47 0 0 1 1.01-1.406c.26.248.575.565.828.825"/></g></g><g><path fill="#fff" d="M67.063 43.843c.076.082 2.012-.18 3.312 1.705l-.922.228 2.284 1.12.897-1.93-.809.1s-.633-2.268-4.73-2.674z"/><path d="M71.737 47.021a.1.1 0 0 1-.055-.013l-2.284-1.12a.13.13 0 0 1-.069-.126.13.13 0 0 1 .094-.108l.742-.183c-1.03-1.37-2.394-1.449-2.919-1.479-.17-.01-.228-.013-.275-.064a.13.13 0 0 1-.033-.088l.033-1.45a.13.13 0 0 1 .042-.091.11.11 0 0 1 .095-.031c3.684.365 4.623 2.2 4.802 2.662l.708-.088a.125.125 0 0 1 .129.176l-.897 1.931a.13.13 0 0 1-.113.072m-1.922-1.207 1.862.914.749-1.61-.585.072c-.062.004-.12-.03-.136-.09-.006-.021-.655-2.143-4.488-2.57l-.028 1.21.072.003c.52.03 2.105.122 3.216 1.734a.125.125 0 0 1-.073.191zm-2.753-1.971h.003z"/></g><g><path d="M68.631 63.8c.391 0 .645.302.914.524l.508.419.162-.745h.027a2.3 2.3 0 0 0 .366-.03q.359-.057.7-.181c.325-.118.634-.275.92-.462.38-.248.723-.546 1.026-.874a7 7 0 0 0 .77-1.004c.071-.111.133-.273.265-.332.057-.025.117-.04.178-.055l.013-.296c.001-.032.013-.08.004-.11-.007-.027-.008-.023-.033-.034-.046-.022-.102-.033-.15-.048l-.507-.163-.776-.248c-.109.043-.473 1.833-2.82 2.408l.07-.883-1.333 1.183c-.01-.001-.058.052-.067.06l-.07.061-.138.124a7 7 0 0 0-.211.195l-.093.092-.057.165-.043.126c-.01.027-.044.084-.011.1.012.005.026.003.032.013.118.006.236-.006.354-.006"/></g><g><path fill="#fff" d="M72.928 60.578c-.11.042-.474 1.833-2.82 2.408l.07-.883-1.89 1.677 1.675 1.38.162-.746s2.519.13 4.27-3.366z"/><path d="M69.963 65.284a.13.13 0 0 1-.08-.028l-1.673-1.38a.124.124 0 0 1-.004-.19l1.888-1.676a.125.125 0 0 1 .207.103l-.055.708c1.75-.492 2.278-1.678 2.48-2.133.064-.142.09-.2.156-.226a.13.13 0 0 1 .084-.003l1.467.47a.126.126 0 0 1 .074.175c-1.585 3.163-3.77 3.42-4.282 3.435l-.14.647a.125.125 0 0 1-.122.098m-1.482-1.508 1.404 1.157.118-.545a.125.125 0 0 1 .121-.098h.027c.238 0 2.463-.086 4.066-3.168l-1.235-.396-.028.064c-.2.452-.813 1.826-2.816 2.318-.039.01-.08 0-.11-.027a.12.12 0 0 1-.044-.104l.045-.576z"/></g><g><path d="M48.78 62.558c.079.356-.186.655-.364.95l-.335.558.814-.023.005.025c.024.111.063.22.107.325q.132.315.332.596c.19.269.419.514.673.731.338.29.72.533 1.126.735q.373.184.768.326.219.078.442.145c.131.04.314.06.402.166.038.046.065.097.094.149l.313-.056c.034-.006.087-.006.118-.02.026-.013.02-.013.028-.039.013-.046.013-.1.02-.147l.066-.498.102-.762c-.067-.09-2.02-.013-3.101-2.016l.94-.138-1.513-.942c0-.01-.066-.042-.076-.048l-.079-.049-.158-.098a7 7 0 0 0-.362-.211l-.185-.014-.142-.011c-.03-.002-.097-.02-.106.013-.003.012.002.025-.008.032.018.109.055.213.079.321"/></g><g><path fill="#fff" d="M53.036 65.732c-.067-.09-2.02-.014-3.102-2.016l.94-.138-2.144-1.336-1.105 1.837.815-.023s.378 2.32 4.403 3.117z"/><path d="m52.843 67.298-.025-.002c-3.617-.717-4.35-2.632-4.477-3.113l-.712.02c-.053-.01-.089-.023-.111-.062a.12.12 0 0 1 0-.127l1.105-1.836a.12.12 0 0 1 .078-.057.12.12 0 0 1 .095.016l2.144 1.335a.124.124 0 0 1-.048.229l-.76.112c.873 1.463 2.218 1.672 2.735 1.753.17.026.226.035.268.091.02.026.029.06.024.091l-.193 1.442a.126.126 0 0 1-.123.108m-4.403-3.367c.06 0 .113.044.123.104.003.023.414 2.198 4.174 2.99l.16-1.202-.068-.01c-.514-.08-2.079-.324-3.005-2.038a.13.13 0 0 1-.002-.115.13.13 0 0 1 .094-.067l.604-.09-1.749-1.088-.921 1.532.586-.016z"/></g><g><path d="M50.481 45.113c-.366.131-.72-.064-1.06-.179l-.638-.217.138.746-.026.008a2 2 0 0 0-.33.152q-.315.173-.585.403c-.26.22-.487.47-.683.739-.26.359-.464.75-.621 1.157a6 6 0 0 0-.238.76 7 7 0 0 0-.093.431c-.023.127-.019.298-.12.397-.043.043-.094.076-.144.11l.103.28c.01.03.018.08.038.105.018.022.017.017.045.02.051.004.107-.005.159-.007l.538-.02.823-.03c.085-.077-.27-1.861 1.705-3.186l.279.844.787-1.548c.01-.001.035-.067.04-.077l.041-.081.082-.162q.064-.124.122-.252l.052-.116-.012-.172-.008-.132c-.002-.028.008-.093-.029-.096-.013 0-.026.006-.035-.002-.113.035-.219.085-.33.125"/></g><g><path fill="#fff" d="M47.71 49.55c.085-.076-.27-1.86 1.704-3.185l.28.843 1.116-2.193-2.105-.715.139.745s-2.41.729-2.692 4.564z"/><path d="M46.153 49.734a.125.125 0 0 1-.125-.134c.254-3.462 2.19-4.444 2.674-4.636l-.12-.642a.13.13 0 0 1 .041-.117.12.12 0 0 1 .122-.023l2.105.716a.124.124 0 0 1 .07.174l-1.116 2.193a.12.12 0 0 1-.12.067.12.12 0 0 1-.11-.085l-.226-.684c-1.449 1.046-1.482 2.322-1.494 2.812-.005.155-.006.22-.06.268a.12.12 0 0 1-.08.032l-1.557.059zm1.557-.184h.003zm0 0h.003zm1.157-5.064.1.536a.126.126 0 0 1-.086.143c-.024.006-2.275.738-2.593 4.314l1.315-.05.001-.06c.013-.488.051-1.974 1.74-3.107a.124.124 0 0 1 .188.065l.185.558.916-1.798z"/></g></g><g><path d="M92.746 70.628c-.347 1.622-.858 3.205-1.706 4.654-1.045 1.784-3.48 1.344-5.182 2.096-1.74.769-2.597 2.748-2.723 4.607-.127 1.858.31 3.708.375 5.569.066 1.861-.328 3.89-1.755 5.129-1.34 1.163-3.285 1.376-4.824 2.277-1.878 1.1-3.028 3.283-2.848 5.412.168 2 1.396 3.991.765 5.902-.23.7-.704 1.34-.717 2.074-.017.953.773 1.765 1.665 2.154.892.388 1.89.459 2.85.631 3.172.568 6.36 2.285 9.438 1.352 2.348-.711 3.936-2.786 5.92-4.202 2.947-2.102 6.818-2.762 9.612-5.054 2.34-1.921 3.695-4.933 3.557-7.913-.114-2.466-1.183-4.885-.844-7.332.285-2.054 1.55-3.956 1.44-6.026-.145-2.756-2.592-4.761-4.436-6.857-2.538-2.886-4.172-6.517-4.63-10.292-.092-.763-.359-1.486-.659-2.191-.153-.36-.315-.717-.465-1.078-.116-.281-.189-.715-.407-.94-.835.646-1.639 1.34-2.3 2.154s-1.18 1.757-1.388 2.775c-.121.594-.14 1.255-.217 1.866a38 38 0 0 1-.521 3.233"/></g><g><path d="M120.118 64.236c.365.926.706 1.864.871 2.842.388 2.3 2.403 4.15 4.118 5.681 1.397 1.246 2.847 2.51 3.7 4.158 1.079 2.082.158 3.378.03 5.414-.106 1.69.98 3.609 2.286 4.641 1.198.948 2.713 1.408 4.1 2.068s2.757 1.656 3.155 3.11c.536 1.958-.864 3.921-.936 5.947-.1 2.827 2.294 5.044 3.897 7.402a14.9 14.9 0 0 1 2.301 5.535c.254 1.324.29 2.8-.511 3.896-.96 1.313-2.808 1.662-4.461 1.624-1.653-.04-3.34-.355-4.94.054-1.168.299-2.222.971-3.414 1.164-2.376.386-4.638-1.226-6.082-3.105s-2.404-4.102-4.025-5.838c-2.93-3.136-7.545-4.217-10.862-6.963-2.169-1.795-3.715-4.293-4.334-7-.321-1.406-.389-2.916.17-4.248.48-1.143 1.378-2.061 2.13-3.056a14.1 14.1 0 0 0 2.462-5.2c.447-1.867.516-3.852 1.382-5.574.79-1.571 2.17-2.772 3.242-4.176a12.67 12.67 0 0 0 2.43-5.924c.267-2.017-.486-3.842-.791-5.798 1.156-.482 2.717.705 3.309 1.636.249.392.421.824.592 1.253z"/></g><g><path fill="#fff" d="M139.525 111.685c-.144.05-.287.1-.44.14-.144.04-.287.07-.43.12-.348.129-.604.328-.973.408-.44.1-.87.2-1.3.3-.87.2-1.73.399-2.6.588l-1.218.27a16 16 0 0 1-.215 2.095c-.276 1.616-.296 3.531-1.269 4.948-.46.679-1.095 1.207-1.597 1.846-1.146 1.456-1.617 3.222-1.955 5.058-.542 3.013-.706 6.225-2.876 8.57-2.088 2.275-5.517 2.893-8.64 2.684-3.121-.22-6.161-1.138-9.283-1.377-5.303-.41-10.574 1.117-15.897 1.097-.604 0-1.249-.03-1.781-.319s-.921-.918-.737-1.486l.051-5.807c-.46-2.294-.952-4.679-2.385-6.555-.89-1.167-2.088-2.065-3.101-3.132-1.914-2.006-2.866-4.4-3.245-6.944a17 17 0 0 1-.184-1.746c-.256-.04-.512-.1-.778-.15-.369-.08-.625-.269-.983-.389-.143-.05-.297-.07-.44-.11s-.297-.08-.44-.13c.235-1.246.481-2.503.717-3.75.071-.42.143-.848.235-1.257.164-.729.502-1.477.768-2.165.655-1.706 1.443-3.333 2.303-4.909.88-1.626 1.853-3.203 2.968-4.64a15.7 15.7 0 0 1 2.856-3.212c4.545-3.87 10.523-4.569 16.306-4.788h.01l.717-.03c2.784-.09 5.599-.11 8.393.08 4.054.269 8.056.947 11.853 2.384a12.8 12.8 0 0 1 3.43 1.915c.675.4 1.32.848 1.944 1.367 2.324 1.966 4.207 4.54 5.824 7.253.901 1.517 1.74 3.103 2.447 4.76.287.678.655 1.396.84 2.104.102.41.184.828.276 1.237.276 1.217.552 2.445.829 3.672"/><path d="M117.137 138.874c-.413 0-.795-.015-1.133-.038-1.591-.112-3.184-.408-4.724-.695-1.49-.277-3.03-.564-4.561-.681-2.932-.227-5.913.148-8.795.512-2.32.291-4.722.601-7.092.586-.592 0-1.272-.027-1.84-.336-.542-.293-1.003-.957-.802-1.615l.05-5.788c-.432-2.144-.926-4.602-2.359-6.477-.545-.715-1.222-1.342-1.877-1.948a27 27 0 0 1-1.216-1.176c-1.78-1.865-2.852-4.159-3.277-7.01a16 16 0 0 1-.18-1.658q-.195-.036-.391-.076-.144-.03-.291-.058a2.7 2.7 0 0 1-.6-.224 3.4 3.4 0 0 0-.4-.17c-.08-.028-.165-.045-.248-.063a4 4 0 0 1-.186-.044l-.064-.018a6 6 0 0 1-.383-.114.125.125 0 0 1-.082-.141q.178-.936.359-1.876l.358-1.875.005-.03c.07-.408.14-.83.231-1.232.13-.575.362-1.154.587-1.714q.097-.238.186-.468c.6-1.565 1.356-3.176 2.31-4.924.984-1.817 1.959-3.34 2.98-4.655a15.8 15.8 0 0 1 2.873-3.232c4.533-3.86 10.552-4.597 16.382-4.818l.726-.03c3.39-.11 5.982-.085 8.407.08 4.543.302 8.432 1.084 11.89 2.392a12.9 12.9 0 0 1 3.461 1.934c.69.407 1.332.857 1.948 1.37 2.049 1.732 3.963 4.115 5.852 7.285.997 1.68 1.8 3.241 2.453 4.774q.115.266.238.54c.231.516.47 1.05.608 1.582.067.267.125.537.182.806l.095.435c.277 1.217.553 2.444.83 3.671a.125.125 0 0 1-.081.146l-.041-.118.026.122c-.141.05-.284.099-.435.138q-.07.02-.144.038c-.092.024-.184.047-.276.08-.13.048-.251.109-.37.168-.186.095-.38.192-.617.244-.44.1-.869.2-1.298.299l-.499.114c-.702.162-1.4.322-2.103.475l-1.124.249a16 16 0 0 1-.213 2.016c-.061.36-.11.728-.16 1.12-.176 1.353-.358 2.753-1.13 3.876-.268.396-.596.744-.914 1.08-.233.248-.475.503-.687.773-1.158 1.472-1.612 3.276-1.93 5.004q-.129.725-.242 1.461c-.403 2.544-.819 5.175-2.665 7.171-2.108 2.295-5.334 2.761-7.607 2.761m-12.277-1.733q.94-.002 1.878.07c1.545.118 3.092.406 4.588.685 1.533.286 3.118.58 4.695.69 2.149.144 6.118-.005 8.539-2.642 1.796-1.94 2.206-4.534 2.603-7.04.077-.492.155-.983.242-1.468.324-1.76.788-3.598 1.98-5.113.218-.279.464-.539.702-.79.311-.33.632-.67.89-1.05.737-1.073.916-2.443 1.087-3.768.052-.393.1-.765.163-1.13.11-.622.178-1.283.213-2.08a.125.125 0 0 1 .098-.116l1.218-.27c.703-.153 1.4-.313 2.1-.474l.499-.114q.642-.15 1.3-.3a2.3 2.3 0 0 0 .56-.222 4 4 0 0 1 .396-.182c.101-.035.2-.06.299-.085l.141-.038q.171-.046.327-.1-.401-1.79-.804-3.563-.049-.217-.096-.438c-.057-.266-.114-.533-.18-.797-.133-.51-.367-1.035-.594-1.541q-.125-.276-.239-.545c-.649-1.522-1.447-3.074-2.439-4.744-1.874-3.145-3.77-5.507-5.797-7.222A14.6 14.6 0 0 0 127.3 91.4a12.7 12.7 0 0 0-3.41-1.906c-3.434-1.3-7.3-2.077-11.817-2.377-2.418-.164-5.003-.189-8.382-.08l-.714.03c-5.796.22-11.766.948-16.241 4.76a15.6 15.6 0 0 0-2.834 3.187c-1.017 1.31-1.984 2.822-2.961 4.629-.949 1.738-1.7 3.338-2.297 4.893q-.09.233-.187.472c-.222.551-.45 1.12-.575 1.676-.09.396-.16.814-.23 1.219l-.005.032q-.177.939-.358 1.878-.171.886-.338 1.767c.087.028.178.053.264.076l.066.018q.084.023.172.04c.093.02.187.041.277.073.156.052.293.116.425.18.176.083.342.161.542.204q.146.027.292.058.24.052.48.091c.057.01.101.058.105.117.03.584.09 1.151.182 1.733.417 2.8 1.468 5.049 3.212 6.877.383.403.8.79 1.205 1.164.662.614 1.348 1.248 1.905 1.979 1.469 1.922 1.968 4.41 2.408 6.605l-.048 5.833a.1.1 0 0 1-.006.038c-.167.516.213 1.085.677 1.338.548.297 1.229.301 1.822.304 2.327 0 4.681-.296 6.96-.583 2.283-.289 4.629-.584 6.968-.584"/></g><g><path d="M107.725 93.696c-6.486 0-7.909-3.737-7.924-3.78a.125.125 0 0 1 .075-.159.127.127 0 0 1 .16.075c.016.045 1.703 4.408 9.854 3.487.076-.006.13.04.138.11a.124.124 0 0 1-.11.137c-.788.09-1.519.13-2.193.13"/></g><g><ellipse cx="107.224" cy="72.899" fill="#ffc69f" rx="10.177" ry="10.862"/></g><g><path fill="#ffc69f" d="m103.703 82.023-.222 4.403c-.007.283-.197.53-.398.732-.614.62-1.496 1.004-1.173 1.992.268.82.826 1.54 1.612 1.944.986.508 2.104.737 3.206.84 1.138.107 2.306.115 3.417-.18.905-.24 1.7-.842 2.122-1.664.385-.75.58-2.057-.186-2.656-.111-.087-.25-.142-.34-.25-.108-.13-.123-.308-.134-.475q-.046-.72-.093-1.438c-.094-1.467-.188-2.953.105-4.395"/></g><g><ellipse cx="104.938" cy="74.373" rx=".697" ry="1.067"/></g><g><ellipse cx="111.923" cy="74.373" rx=".697" ry="1.067"/></g><g><path d="M107.926 76.17q-.054 0-.113-.002a.125.125 0 0 1-.119-.13c.003-.07.07-.117.13-.12.363.019.621-.055.74-.209.14-.183.061-.44.06-.443a.125.125 0 0 1 .08-.157.124.124 0 0 1 .157.08c.006.015.121.382-.098.67q-.239.31-.837.311"/></g><g><path d="M96.127 72.9c-.28.143-.615-.137-.69-.436-.153-.624-.003-1.142-.342-1.758-1.037-1.881-1.566-3.762-.962-5.857.87-3.018 3.345-5.125 6.302-6.172 2.876-1.019 6.608-1.62 9.475-.144a5.1 5.1 0 0 1 1.598 1.25c.26-.25.65-.317 1.016-.343 2.98-.212 5.94 1.61 7.238 4.233.866 1.749 1.01 3.784.551 5.661-.175.716-.484 2.04-1.012 2.581-.311.32-.46.14-.984.157-.44.015-.9.157-1.305.304-.567-1.422-1.204-2.636-2.692-3.348-.646-.309-1.401-.477-2.088-.27-.42.128-.783.384-1.185.555-1.033.44-2.317.249-3.17-.47-.392-.332-.695-.761-1.118-1.056a2.31 2.31 0 0 0-2.102-.255c-.707.27-1.217.865-1.747 1.395s-1.178 1.041-1.937 1.054c-.487.008-.949-.193-1.421-.31-.473-.118-1.027-.135-1.392.18-.345.3-.358.754-.26 1.162.157.648.146.836-.007 1.531l-.59 2.684a7.6 7.6 0 0 1-.686-.958"/></g><g><g><path fill="#ffc69f" d="M98.345 72.927c-.335-.43-.732-.818-1.208-1.037s-1.041-.248-1.494.014c-.54.313-.84 1-.851 1.67-.014.863.42 1.722 1.1 2.171.678.45 1.573.471 2.262.055"/></g><g><path d="M96.414 74.45a.13.13 0 0 1-.098-.046c-.132-.168-.278-.367-.33-.618-.077-.36.07-.758.35-.945a.7.7 0 0 1 .914.136.124.124 0 1 1-.188.163.45.45 0 0 0-.587-.092c-.193.128-.3.43-.246.686.042.198.168.37.283.515a.125.125 0 0 1-.098.202"/></g></g><g><g><path fill="#ffc69f" d="M116.102 72.708c.335-.43.732-.818 1.208-1.037s1.041-.248 1.494.014c.54.313.84 1 .852 1.67.013.863-.422 1.722-1.1 2.171s-1.574.47-2.263.055"/></g><g><path d="M118.033 74.232a.124.124 0 0 1-.097-.202c.114-.145.24-.315.282-.515.054-.256-.053-.558-.245-.686a.45.45 0 0 0-.588.092.124.124 0 1 1-.188-.164.7.7 0 0 1 .914-.135c.28.186.427.584.35.945-.053.252-.198.451-.33.617a.12.12 0 0 1-.098.048"/></g></g><g><path d="M105.224 83.71a3.4 3.4 0 0 1-1.712-.47.125.125 0 0 1 .128-.214c.489.292 1.074.454 1.647.434h.003a.125.125 0 0 1 .002.249z"/></g><g><path d="M110.195 83.55a.125.125 0 0 1-.055-.237l1.23-.597a.124.124 0 1 1 .108.224l-1.228.598a.1.1 0 0 1-.055.013"/></g><g><path fill="#cb6531" d="M30.957 138.782c.112.376.285.726.544 1.033.586.694 1.419 1.155 2.234 1.546 2.561 1.23 5.44 1.879 8.215 2.458 4.213.88 8.49 1.467 12.77 1.942 11.659 1.296 23.425 1.735 35.155 1.735 11.725 0 23.487-.438 35.142-1.733 6.801-.756 14.762-1.337 20.987-4.397 3.049-1.499 2.624-3.433 2.996-6.572.034-.288-5.782.211-6.442.066-1.588-.349-3.143-.84-4.738-1.175-4.213-.884-8.492-1.468-12.771-1.944-11.666-1.299-23.44-1.737-35.175-1.737-9.864 0-19.741.333-29.57 1.185-4.756.412-9.51.942-14.219 1.724-1.874.31-3.742.661-5.592 1.086-.788.181-1.588.355-2.36.592-1.122.343-1.991.959-3.256.703-.364-.074-.71-.214-1.068-.316-.935-.267-1.925-.262-2.9-.262-.023 1.25-.328 2.806.048 4.066"/></g><g><ellipse cx="90.057" cy="134.481" fill="#fff" rx="58.805" ry="8.746"/><path d="M90.057 143.352c-15.713 0-30.487-.91-41.6-2.563-6.471-.963-17.33-3.062-17.33-6.308s10.859-5.345 17.33-6.306c11.113-1.654 25.888-2.564 41.6-2.564s30.487.91 41.6 2.564c6.472.961 17.33 3.06 17.33 6.306s-10.858 5.345-17.33 6.308c-11.113 1.653-25.886 2.563-41.6 2.563m0-17.491c-15.7 0-30.462.909-41.563 2.56-10.878 1.617-17.117 3.826-17.117 6.06s6.239 4.444 17.117 6.061c11.101 1.652 25.862 2.56 41.563 2.56s30.463-.908 41.563-2.56c10.879-1.617 17.118-3.827 17.118-6.06 0-2.235-6.24-4.444-17.118-6.06-11.1-1.652-25.861-2.561-41.563-2.561"/></g><g><path fill="#6565ff" d="M139.525 111.685c-.144.05-.287.1-.44.14-.144.04-.287.07-.43.12-.348.129-.604.328-.973.408-.44.1-.87.2-1.3.3-.87.2-1.73.399-2.6.588l-1.218.27a16 16 0 0 1-.215 2.095c-.276 1.616-.296 3.531-1.269 4.948-.46.679-1.095 1.207-1.597 1.846-1.146 1.456-1.617 3.222-1.955 5.058-3.224.25-6.561.35-9.611-.698-1.474-.51-2.959-1.387-3.532-2.814-.41-1.007-.297-2.125-.174-3.202.85-7.573 1.884-15.155 1.77-22.777-.01-1.267-.07-2.524-.245-3.781-.194-1.417-.532-2.824-1.116-4.13a10.6 10.6 0 0 0-1.064-1.827c-.184-.239-.368-.518-.563-.748-.215-.24-.614-.349-.911-.489 4.054.27 8.056.948 11.853 2.385a12.8 12.8 0 0 1 3.43 1.915c.675.4 1.32.848 1.944 1.367 2.324 1.966 4.207 4.54 5.824 7.253.901 1.517 1.74 3.103 2.447 4.76.287.678.655 1.396.84 2.104.102.41.184.828.276 1.237.276 1.217.552 2.445.829 3.672"/></g><g><path d="M139.546 111.69c.052.297-.328.684-1.049 1.072-1.22.7-3.396 1.474-5.927 2.04-.433.089-.852.178-1.259.252-3.423.64-6.11.611-6.229-.119-.13-.73 2.36-1.92 5.744-2.799.393-.119.813-.223 1.232-.312 2.413-.536 4.59-.775 5.967-.7.905.044 1.469.238 1.521.565"/></g><g><path fill="#ffc69f" d="M139.284 123.217c-.944 1.906-2.82 2.918-4.616 3.722a55 55 0 0 1-6.57 2.442c-.472-2.219-.93-4.437-1.403-6.64-.04-.18-.078-.358-.026-.522.053-.193.197-.327.341-.447 1.023-.863 2.046-1.727 2.872-2.843.76-1.013 1.337-2.249 1.43-3.574.012-.119.012-.223.012-.342.013-.879-.21-1.742-.498-2.576.393-.12.813-.223 1.232-.313 2.413-.536 4.59-.774 5.967-.7a.6.6 0 0 1 .065.164c.132.492.263.983.407 1.474.184.685.367 1.355.55 2.04.735 2.665 1.43 5.688.237 8.115"/><path d="M128.099 129.505a.12.12 0 0 1-.064-.017.12.12 0 0 1-.058-.08q-.324-1.52-.642-3.04-.378-1.805-.762-3.602c-.04-.18-.085-.387-.023-.585.062-.227.229-.38.38-.505 1-.842 2.032-1.715 2.851-2.821.585-.778 1.302-2.017 1.406-3.508.012-.12.012-.22.012-.334.012-.74-.14-1.522-.491-2.535a.125.125 0 0 1 .082-.16c.375-.114.793-.22 1.243-.316 2.327-.517 4.568-.778 5.999-.702.04.002.079.025.1.06.021.037.06.111.08.201.132.495.262.98.405 1.466l.551 2.043c.74 2.686 1.43 5.757.228 8.201v.001c-.946 1.907-2.807 2.944-4.677 3.781a55 55 0 0 1-6.584 2.448.2.2 0 0 1-.036.004m2.886-16.986c.332.983.475 1.757.464 2.496 0 .122 0 .23-.014.354-.107 1.547-.85 2.83-1.454 3.635-.835 1.13-1.88 2.012-2.89 2.864-.13.106-.258.222-.302.384-.044.138-.01.295.028.46q.384 1.8.762 3.605.304 1.452.613 2.905a55 55 0 0 0 6.425-2.397c1.828-.817 3.645-1.828 4.555-3.664 1.163-2.366.517-5.262-.245-8.026l-.55-2.04a59 59 0 0 1-.403-1.46 1 1 0 0 0-.028-.09c-1.407-.062-3.592.197-5.86.7q-.594.127-1.1.274m8.299 10.697h.003z"/></g><g><path fill="#6565ff" d="M97.895 99.663a77 77 0 0 0 .706 17.48 30.64 30.64 0 0 0-15.65-3.243c-1.106.07-2.211.2-3.317.289a17 17 0 0 1-.184-1.746c-.256-.04-.512-.1-.778-.15-.369-.08-.625-.269-.983-.389-.143-.05-.297-.07-.44-.11s-.297-.08-.44-.13c.235-1.246.481-2.503.717-3.75.071-.42.143-.848.235-1.257.164-.729.502-1.477.768-2.165.655-1.706 1.443-3.333 2.303-4.909.88-1.626 1.853-3.203 2.968-4.64a15.7 15.7 0 0 1 2.856-3.212c4.545-3.87 10.523-4.569 16.306-4.788-4.463 2.464-4.73 8.15-5.067 12.72"/></g><g><path d="M76.79 111.672c-.043.304.349.685 1.082 1.057 1.241.674 3.442 1.395 5.99 1.895.435.078.857.156 1.266.22 3.441.548 6.127.438 6.222-.307.108-.744-2.42-1.88-5.83-2.67-.397-.11-.82-.203-1.242-.282-2.429-.472-4.612-.65-5.986-.533-.903.072-1.46.286-1.502.62"/></g><g><path fill="#ffc69f" d="M77.418 123.366c1.004 1.907 2.91 2.88 4.732 3.642a55 55 0 0 0 6.644 2.284c.401-2.266.79-4.532 1.191-6.783.034-.183.068-.365.01-.53-.059-.195-.207-.327-.355-.443-1.05-.847-2.1-1.693-2.96-2.802-.793-1.005-1.409-2.243-1.543-3.586a3 3 0 0 1-.024-.347c-.04-.891.155-1.775.417-2.63-.397-.109-.82-.202-1.242-.28-2.43-.473-4.612-.65-5.986-.534a.6.6 0 0 0-.06.169c-.116.502-.232 1.005-.36 1.508l-.486 2.087c-.65 2.728-1.248 5.817.022 8.245"/><path d="M88.794 129.417a.1.1 0 0 1-.033-.005 55 55 0 0 1-6.66-2.289c-1.896-.794-3.79-1.792-4.794-3.698v-.001c-1.278-2.445-.687-5.583-.032-8.331l.485-2.087a64 64 0 0 0 .36-1.508.7.7 0 0 1 .072-.2.13.13 0 0 1 .099-.065c1.426-.122 3.676.08 6.02.536.45.082.871.178 1.252.282.032.009.06.03.076.06s.02.065.01.097c-.32 1.04-.446 1.838-.411 2.587.004.119.006.22.023.336.151 1.517.908 2.754 1.517 3.525.852 1.099 1.914 1.955 2.94 2.782.155.122.326.273.396.505.067.19.03.393-.006.588q-.332 1.873-.66 3.754-.264 1.515-.531 3.029a.125.125 0 0 1-.123.103m-11.265-6.108c.967 1.837 2.815 2.808 4.669 3.584a55 55 0 0 0 6.497 2.242l.507-2.892q.329-1.883.66-3.756c.032-.173.062-.334.015-.467-.05-.168-.183-.283-.314-.387-1.04-.837-2.112-1.703-2.982-2.823-.628-.797-1.411-2.077-1.568-3.65a3 3 0 0 1-.025-.355c-.034-.747.085-1.538.385-2.546-.34-.09-.713-.172-1.108-.245-2.284-.445-4.474-.642-5.88-.538a.4.4 0 0 0-.021.072c-.117.509-.232 1.013-.361 1.517l-.486 2.085c-.673 2.83-1.227 5.79.012 8.159"/></g><g><path fill="#ff98cb" d="M85.144 138.567h46.531c.82 0 1.53-.58 1.585-1.298l2.299-30.072c.065-.86-.614-1.56-1.518-1.56H82.778c-.904 0-1.583.7-1.518 1.56l2.299 30.072c.055.718.764 1.298 1.585 1.298"/></g><g><path d="M102.611 72.727a.12.12 0 0 1-.1-.05.124.124 0 0 1 .025-.174c.687-.518 1.424-.822 2.132-.88.838-.064 1.643.221 2.168.768a.125.125 0 1 1-.18.173c-.475-.495-1.216-.75-1.968-.692-.66.054-1.353.34-2.002.83a.12.12 0 0 1-.075.025"/></g><g><path d="M113.946 72.877a.13.13 0 0 1-.077-.026c-.64-.5-1.328-.8-1.988-.865-.762-.074-1.497.172-1.979.656a.125.125 0 1 1-.177-.175c.534-.539 1.347-.81 2.18-.73.708.071 1.44.388 2.118.917a.125.125 0 0 1-.077.223"/></g><g><path d="M97.681 105.366a.12.12 0 0 1-.11-.067c-.405-.767-.375-1.635-.3-2.606.208-2.676.462-5.389.756-8.065.007-.068.062-.129.138-.11a.124.124 0 0 1 .11.138 254 254 0 0 0-.755 8.056c-.072.932-.102 1.763.271 2.471a.125.125 0 0 1-.11.183"/></g><g><path d="M115.972 100.992h-.009a.124.124 0 0 1-.116-.133c.537-8.125-1.308-10.704-1.327-10.729a.125.125 0 0 1 .2-.15c.079.105 1.921 2.656 1.376 10.895a.124.124 0 0 1-.124.117"/></g><g><g><ellipse cx="43.691" cy="135.43" rx="5.094" ry=".511"/></g><g><path fill="#fff" d="M41.34 123.789v.038l1.488 10.328c.092.636.653 1.12 1.318 1.12h7.282c.652 0 1.213-.484 1.318-1.12l1.487-10.328v-.038z"/><path d="M51.428 135.399h-7.282c-.721 0-1.341-.527-1.441-1.227l-1.49-10.383c0-.069.057-.124.126-.124h12.892c.069 0 .125.055.125.124v.038l-1.49 10.345a1.47 1.47 0 0 1-1.44 1.227m-9.95-11.485 1.474 10.223a1.2 1.2 0 0 0 1.194 1.013h7.282c.586 0 1.1-.437 1.194-1.016l1.473-10.22z"/></g><g><path d="M41.197 123.698c0 .039.052.064.144.09.613.203 3.066.343 6.067.356h.379c3.158 0 5.807-.14 6.446-.356.092-.026.144-.051.144-.09 0-.241-2.962-.432-6.59-.432h-.222c-.196 0-.391 0-.574.013-3.275.012-5.794.19-5.794.42"/></g><g><ellipse cx="47.521" cy="129.532" rx="3.422" ry="1.654"/></g><g><path fill="#6ba32b" d="M35.11 112.908c-.078.802.392 1.514 1.031 1.972.979.712 2.375.954 3.51 1.36 2.362.815 4.32 2.1 5.82 4.058.483.636.914 1.31 1.292 2.01.078.152.196.445.313.75.066.153.13.318.21.47.065.153.143.28.208.395h.3c-.013-.102-.026-.242-.065-.394-.026-.14-.052-.306-.078-.484-.157-.776-.34-1.679-.366-1.78a3 3 0 0 0-.039-.166c-.47-1.87-.848-3.828-1.892-5.482-1.24-1.958-3.236-3.472-5.48-4.171-1.54-.484-4.529-.725-4.764 1.462"/></g><g><path fill="#6ba32b" d="M49.453 114.412c-.043-.886-.194-1.763-.346-2.638-.168-.966-.34-1.943-.74-2.843-.327-.735-.797-1.4-1.276-2.05-.725-.982-1.492-1.958-2.49-2.676s-2.267-1.159-3.487-.94c-.436.079-.873.25-1.166.575-.384.425-.46 1.052-.33 1.604s.44 1.046.757 1.52c2.446 3.654 5.753 6.93 6.866 11.156 0 .098.055.219.077.315a10 10 0 0 1 .17.94q.084.63.116 1.265c.03.548.037 1.097.046 1.645q.005.414.016.827c.006.255-.015.537.058.807.104 0 .2.03.247-.072.037-.078.054-.172.073-.256.045-.19.074-.384.099-.577.042-.323.052-.654.119-.973.18-.862.39-1.717.582-2.576.372-1.658.692-3.347.609-5.053"/></g><g><path fill="#6ba32b" d="M48.384 121.801c.406-1.63.737-3.34 1.652-4.788 1.082-1.71 2.825-3.027 4.79-3.641 1.34-.419 3.954-.635 4.155 1.279.074.695-.347 1.317-.9 1.718-.86.624-2.069.842-3.068 1.188-2.057.713-3.77 1.837-5.084 3.552a13 13 0 0 0-1.13 1.754c-.106.197-.177.414-.26.621-.05.123-.09.285-.168.392-.065.09-.283.043-.394.04-.033 0 .072-.5.083-.555a83 83 0 0 1 .232-1.156c.017-.08.056-.177.056-.259z"/></g><g><path fill="#fff" d="M49.308 130.155a.93.93 0 0 1-.699-.336c-.169.052-.37.027-.594-.075a1 1 0 0 1-.235-.145.4.4 0 0 1-.104.124c-.133.106-.335.119-.516.035a1 1 0 0 1-.245-.18c-.141.131-.351.171-.524.154-.224-.029-.422-.144-.581-.236a.125.125 0 0 1 .125-.217c.147.086.314.184.487.205.14.016.31-.03.372-.152a.13.13 0 0 1 .094-.067c.04-.008.08.008.108.038.084.088.17.181.271.23.092.042.195.04.254-.005.075-.06.079-.187.077-.24a.124.124 0 0 1 .111-.127c.066-.019.124.036.136.1.023.119.161.205.273.256a.75.75 0 0 0 .353.077.8.8 0 0 1-.058-.218q-.021-.18.082-.27a.24.24 0 0 1 .193-.054c.087.014.17.069.215.145a.37.37 0 0 1 .028.318.5.5 0 0 1-.106.172c.123.131.3.219.483.219.088 0 .162-.02.207-.059.065-.054.08-.153.073-.228-.01-.103-.057-.208-.102-.31-.014-.03-.03-.066-.047-.082a.13.13 0 0 1-.163-.072.13.13 0 0 1 .067-.167.25.25 0 0 1 .267.058c.054.05.083.115.104.161.05.114.11.245.123.39a.5.5 0 0 1-.162.441.56.56 0 0 1-.367.117m-.65-.854.002.046a.6.6 0 0 0 .025.109l.01-.024c.01-.028.017-.07-.005-.107a.1.1 0 0 0-.033-.024"/></g><g><path fill="#fff" d="M48.507 118.443a.125.125 0 0 1-.124-.112c-.886-8.79-5.627-12.645-5.675-12.682a.125.125 0 0 1-.02-.176.126.126 0 0 1 .175-.02c.05.038 4.87 3.951 5.769 12.853a.125.125 0 0 1-.112.137z"/></g><g><path d="M46.211 119.324a.12.12 0 0 1-.112-.07c-1.986-4.088-8.07-6.027-8.13-6.047a.125.125 0 0 1 .074-.238c.062.02 6.248 1.993 8.28 6.176a.124.124 0 0 1-.112.18"/></g><g><path d="M49.715 119.69a.125.125 0 0 1-.094-.207c2.913-3.344 6.315-4.481 6.528-4.481a.125.125 0 0 1 .006.25c-.344.044-3.57 1.208-6.346 4.396a.13.13 0 0 1-.094.042"/></g></g><g><path fill="#fff" d="m111.573 126.76-2.337-.936a.72.72 0 0 0-.546.011l-2.296 1.024c-.427.19-.936-.093-.862-.48l.4-2.084a.42.42 0 0 0-.177-.415l-1.904-1.433c-.354-.267-.171-.746.309-.812l2.584-.352a.6.6 0 0 0 .436-.267l1.12-1.91c.208-.356.83-.368 1.052-.02l1.197 1.865a.6.6 0 0 0 .447.25l2.596.252c.482.047.684.519.342.799l-1.845 1.506a.42.42 0 0 0-.16.42l.485 2.067c.09.384-.407.688-.841.514"/></g><g><g><polygon fill="#fff" points="99.06 66.096 97.42 64.845 100.058 62.074 101.186 62.935"/></g><g><polygon fill="#fff" points="101.032 67.471 99.392 66.22 102.03 63.449 103.158 64.31"/></g></g><g><path d="M107.43 80.697q-.227 0-.444-.058a1.82 1.82 0 0 1-1.117-.884.125.125 0 0 1 .05-.17.125.125 0 0 1 .17.05c.202.371.562.657.962.764.398.104.846.037 1.198-.185a.124.124 0 1 1 .133.21c-.283.179-.619.273-.953.273"/></g><g><g><path d="m68.605 129.079 11.423.3c.35.008.585.383.461.732l-2.645 7.434a.51.51 0 0 1-.485.348l-15.435-.357c-.442-.01-.66-.576-.354-.916l6.658-7.376a.5.5 0 0 1 .377-.165"/></g><g><path fill="#fff" d="m62.902 129.566 11.423.3c.35.008.585.383.461.732l-2.645 7.434a.51.51 0 0 1-.485.348l-15.435-.357c-.442-.01-.66-.576-.354-.916l6.658-7.376a.5.5 0 0 1 .377-.165"/><path d="M71.667 138.505h-.014l-15.436-.358a.62.62 0 0 1-.56-.388.68.68 0 0 1 .117-.736l6.658-7.375a.64.64 0 0 1 .473-.207l11.424.3a.62.62 0 0 1 .495.275.7.7 0 0 1 .08.624l-2.646 7.433a.63.63 0 0 1-.591.432m-8.778-8.814c-.1 0-.2.044-.271.124l-6.659 7.376a.44.44 0 0 0-.073.47.37.37 0 0 0 .337.237l15.436.358h.008c.157 0 .299-.107.356-.266l2.646-7.434a.44.44 0 0 0-.05-.399.37.37 0 0 0-.297-.167l-11.423-.3z"/></g><g><line x1="61.427" x2="69.568" y1="135.43" y2="135.941" fill="#fff"/><path d="M69.568 136.065h-.008l-8.14-.51a.125.125 0 0 1-.117-.133c.004-.068.065-.108.132-.117l8.141.511a.125.125 0 0 1-.008.25"/></g><g><line x1="63.308" x2="70.631" y1="132.927" y2="133.215" fill="#fff"/><path d="M70.631 133.34h-.005l-7.323-.288a.125.125 0 0 1 .01-.25l7.323.288a.125.125 0 0 1-.005.25"/></g><g><line x1="65.272" x2="71.34" y1="131.186" y2="131.43" fill="#fff"/><path d="M71.34 131.555h-.005l-6.068-.244a.125.125 0 0 1 .005-.25h.004l6.069.245a.125.125 0 0 1-.005.25"/></g><g><path fill="#fff" d="M77.186 135.044H73.77a.125.125 0 1 1 0-.25h3.416a.125.125 0 1 1 0 .25"/></g><g><path fill="#fff" d="M77.895 132.649H74.82a.125.125 0 1 1 0-.25h3.075a.125.125 0 1 1 0 .25"/></g><g><path fill="#fff" d="M78.544 131.095h-3.066a.125.125 0 1 1 0-.25h3.066a.125.125 0 1 1 0 .25"/></g></g></g></g></svg>