<svg xmlns="http://www.w3.org/2000/svg" xml:space="preserve" enable-background="new 0 0 170 170" viewBox="0 0 170 170"
     id="css-developer-developing-website">
  <g>
    <g>
      <g>
        <polygon points="71.175 116.525 55.283 142.585 61.64 142.585 75.943 117.56"></polygon>
      </g>
        <g>
        <polygon points="34.597 115.115 46.428 142.585 40.817 142.585 29.764 114.98"></polygon>
      </g>
        <g>
        <polygon fill="#fff" points="33.248 115.115 45.079 142.585 39.468 142.585 28.415 114.98"></polygon>
            <path d="M45.07901,142.7065125h-5.6109161c-0.0499496,0-0.0946655-0.0304413-0.1132202-0.0761108L28.301918,115.0253601
				c-0.0152225-0.0380554-0.0099907-0.0818176,0.013319-0.1151199c0.0228329-0.0332947,0.0599384-0.0523224,0.0998974-0.0523224
				c0.0009518,0,0.0023785,0,0.0033302,0l4.8326645,0.1360474c0.0475731,0.0009537,0.0899086,0.0304489,0.1084633,0.0732574
				l11.8312073,27.4689865c0.0161743,0.0380554,0.0123672,0.0808716-0.0099907,0.1151276
				C45.1579742,142.6855774,45.1199188,142.7065125,45.07901,142.7065125z M39.5503883,142.4629517h5.3435707
				l-11.7270279-27.2273254l-4.569603-0.1293945L39.5503883,142.4629517z"></path>
      </g>
        <g>
        <polygon fill="#fff" points="70.417 116.525 54.524 142.585 60.881 142.585 75.184 117.56"></polygon>
            <path d="M60.880909,142.7065125h-6.3568192c-0.044239,0-0.0846748-0.0237885-0.1060829-0.0618439
				c-0.0218811-0.0390015-0.0209312-0.0856171,0.0019035-0.1236725l15.8922844-26.0599594
				c0.0271149-0.0437698,0.0794449-0.0666046,0.1298676-0.0551834l4.7679672,1.0351257
				c0.0380554,0.0085678,0.069931,0.034256,0.0856323,0.069458c0.0156937,0.035202,0.0137939,0.0761108-0.0057144,0.1103592
				L60.986515,142.6456299C60.965107,142.682724,60.9246712,142.7065125,60.880909,142.7065125z M54.7410088,142.4629517h6.0690193
				l14.185936-24.8193207l-4.520607-0.9818497L54.7410088,142.4629517z"></path>
      </g>
        <g>
        <path d="M88.2140427,107.7282257c-0.2118454-0.0208511-0.4779587,0.0608978-0.6872101,0.0875626
				c-4.6871338,0.5972519-9.3742752,1.1945114-14.0614166,1.7917633c-3.7602921,0.4791489-7.5205841,0.9582977-11.28088,1.4374542
				c-2.0228233,0.2577515-4.0456467,0.5155106-6.06847,0.773262c-1.7422905,0.2220154-3.2663918,0.7370605-5.0311699,0.7170715
				c-1.4959068-0.0169373-2.9929047-0.0339279-4.4850769-0.1409225c-2.8667488-0.2055664-5.700737-0.7422028-8.5643005-0.9881439
				c-5.633297-0.4838181-11.2614613,0.8599625-16.9154949,0.8599625c-0.0007935,0.0211487-0.0015869,0.0422974-0.0023804,0.063446
				c-0.038084,1.015564-0.0760727,2.0311279-0.1142502,3.0466919c-0.0280075,0.745018,0.1071854,0.9038315,0.7893867,0.9506149
				c0.7776203,0.0533218,1.5564613,0.0927658,2.3345242,0.1391449c2.8204269,0.1680984,5.6408539,0.3362045,8.4612808,0.5043106
				c3.9103432,0.2330704,7.8206902,0.4661331,11.7310371,0.6992035c4.2856445,0.2554321,8.5712929,0.5108719,12.8569374,0.766304
				c3.9463272,0.2352142,7.8926544,0.4704285,11.8389816,0.7056351c2.8923874,0.1723938,5.7847748,0.3447876,8.6771622,0.5171814
				c1.1238251,0.0669861,2.2476501,0.1339645,3.3714828,0.2009506c0.3117142-0.043808,0.623436-0.0876236,0.9351501-0.1314316
				c0.8657074-0.1216736,1.7314148-0.2433395,2.5971146-0.3650131c1.3169861-0.1850967,2.6339722-0.3701859,3.9509583-0.5552826
				c1.6655502-0.2340851,3.3311081-0.4681702,4.996666-0.7022552c1.9114151-0.2686462,3.8228378-0.5372849,5.7342529-0.8059235
				c2.0545807-0.2887573,4.1091614-0.5775223,6.1637344-0.8662796c2.0950317-0.2944489,4.1900558-0.5888901,6.28508-0.8833389
				c2.0327759-0.2856979,4.0655441-0.5713882,6.0983124-0.8570862c1.8678055-0.2625122,3.735611-0.5250244,5.6034164-0.787529
				c1.6001358-0.2248917,3.2002716-0.4497833,4.8004074-0.674675c1.2297516-0.1728363,2.4595032-0.3456726,3.68927-0.5185089
				c0.7566681-0.1063461,1.5133362-0.2126923,2.2700043-0.3190384c0.1409149-0.0198059,0.5101166-0.0152969,0.5834961-0.1365433
				c0.1196594-0.1977081-0.0387878-0.9127884-0.0484314-1.1400452c-0.0232849-0.5488968-0.0465698-1.0977936-0.0698547-1.6466904
				c-0.0173492-0.4088669-0.0346985-0.8177414-0.0520477-1.2266083c-0.8003845,0.0786743-1.6124268,0.030777-2.4038391-0.1123505
				c-0.4441986-0.0803299-0.8826599-0.1952515-1.3311157-0.2467957c-0.8036652-0.0923767-1.615097,0.0210037-2.4164734,0.1314774
				c-2.6311493,0.3627319-5.2737503,0.6968536-7.9296722,0.7217331c-0.8792801,0.0082397-1.7650528-0.0169601-2.6310501,0.1355362
				c-0.8153152,0.1435699-1.5938721,0.4413223-2.3826981,0.6925201c-0.8025894,0.2555771-1.8307571,0.7107544-2.6677475,0.5860748
				c-0.9784927-0.1457596-1.9820557-0.1949158-2.9667664-0.291832c-1.9394989-0.1908875-3.8789978-0.3817673-5.8184967-0.5726547
				c-3.3279495-0.3275375-6.6559067-0.6550751-9.9838562-0.9826126c-1.8311844-0.1802216-3.6623611-0.3604507-5.4935455-0.5406723
				C88.4556503,107.7520065,88.3348389,107.7401199,88.2140427,107.7282257z"></path>
      </g>
        <g>
        <polygon fill="#cb6531" points="88.214 103.661 21.07 112.217 81.064 115.792 134.776 108.243"></polygon>
      </g>
        <g>
        <polyline fill="#ffc69f" points="117.028 77.671 117.762 84.951 109.539 84.667 109.174 77.051"></polyline>
      </g>
        <g>
        <path fill="#ffc69f" d="M120.3274918,68.1967545c1.7572479,4.6494827-0.5567932,9.7126389-5.1685562,11.3088684
				c-2.0662994,0.7151871-4.3593063,0.6167679-6.3654633-0.2120132c-1.7026291-0.7033844-3.4251633-2.0317001-4.1932983-3.6776428
				c-0.2577286,0.011734-0.5095673,0.0872574-0.7674942,0.0926514c-0.2579346,0.0053864-0.5443344-0.0820541-0.6605835-0.3009186
				c-0.1361618-0.2563477,0.0128479-0.5583801,0.0897141-0.8369522c0.1355133-0.4910812,0.1689529-1.2164154,0.0509644-1.7103271
				c-0.9904861-4.146347,1.1413116-8.6894684,5.482605-10.1920738
				C113.4071426,61.0721207,118.5702438,63.5472717,120.3274918,68.1967545z"></path>
      </g>
        <g>
        <ellipse cx="104.704" cy="71.105" rx=".563" ry=".938" transform="rotate(-9.096 104.704 71.105)"></ellipse>
      </g>
        <g>
        <path d="M106.4751282,70.0352783c-0.0466156,0-0.0913315-0.0275879-0.1113129-0.0732574
				c-0.0442352-0.0998917-0.1631622-0.1712494-0.2730484-0.2273865c-0.8439026-0.4271774-1.9351654-0.4271774-2.7819138,0.0038071
				c-0.0589905,0.0333023-0.133194,0.0066605-0.1636429-0.0532761c-0.0304413-0.0599365-0.0066605-0.1332016,0.0532761-0.1636429
				c0.9276276-0.4719009,2.0778732-0.4738007,3.0026398-0.0038071c0.1488953,0.0761108,0.3106308,0.1760101,0.3853226,0.3472672
				c0.0271149,0.0608902-0.0009537,0.133194-0.0623169,0.1598358
				C106.5079575,70.0324249,106.4917831,70.0352783,106.4751282,70.0352783z"></path>
      </g>
        <g>
        <path d="M104.568512,75.7446671c-0.0237808,0-0.0485229-0.0066605-0.0704041-0.0199814
				c-0.0570831-0.035202-0.0775375-0.116066-0.0423355-0.1741028c0.0466156-0.0742111,0.1308212-0.0913391,0.1664963-0.0989456
				c0.1821976-0.034256,0.3658142-0.0418625,0.5484848-0.0256882c0.0670776,0.0057068,0.1160736,0.0656433,0.1098862,0.1322403
				c-0.0066605,0.0666046-0.0680237,0.1217804-0.1327209,0.1094131c-0.1598358-0.0133209-0.3206253-0.0076065-0.4790344,0.0237885
				C104.6470032,75.726593,104.6084747,75.7446671,104.568512,75.7446671z"></path>
      </g>
        <g>
        <path d="M107.1739426,77.3858414c-0.2502213,0-0.4990158-0.0304413-0.7430496-0.0913315
				c-0.0656509-0.0161743-0.1051331-0.0818253-0.0894318-0.1474686c0.0166473-0.0646973,0.0827713-0.1056061,0.1474686-0.0884781
				c0.3082504,0.0751572,0.6255493,0.1008453,0.9409409,0.0723038c0.1622086-0.0142746,0.5503845-0.0761108,0.6488571-0.3348923
				c0.0242615-0.0627975,0.0946655-0.0903854,0.1569824-0.0704041c0.0627899,0.0247345,0.0946655,0.0951385,0.0704041,0.1579285
				c-0.1422348,0.3729553-0.5965347,0.4671402-0.8548431,0.489975
				C107.3589859,77.3810883,107.2662277,77.3858414,107.1739426,77.3858414z"></path>
      </g>
        <g>
        <path d="M109.8293152,79.8709183c-0.4547729,0-0.696434-0.087532-0.7121277-0.0932388
				c-0.0632706-0.0237885-0.0946655-0.0932388-0.0718307-0.1560364c0.0233078-0.0627899,0.0956116-0.0941849,0.1560287-0.0723038
				c0.0057068,0.0019073,0.5708466,0.2016983,1.625473-0.0485229c0.0685043-0.0133209,0.1312943,0.0266418,0.1465225,0.0913391
				c0.0156937,0.0646896-0.0252151,0.1303406-0.0903854,0.1465149
				C110.4558105,79.8385696,110.1037903,79.8709183,109.8293152,79.8709183z"></path>
      </g>
        <g>
        <path d="M124.8084946,66.4174652c0.9214249,2.2225876-0.4468842,4.3274231-1.6801071,6.1257935
				c-1.2804031,1.8671799-2.7035599,3.6895294-4.5637054,5.0564804c0.0312958-0.0230026-1.9373779-2.6570358-2.0878143-2.8480911
				c-0.1502075-0.1907654-0.3351822-0.3972168-0.583252-0.406395c0.3808441,0.0140457,0.8674011-0.2798233,1.1728668-0.4616013
				c0.2625809-0.1562576,0.5246353-0.3268585,0.7084503-0.5659637c0.230423-0.299736,0.317337-0.6832352,0.3230362-1.056427
				c0.0113983-0.7464371-0.2977066-1.5013428-0.8677063-2.0059509c-0.5699921-0.5046005-1.3994141-0.7370148-2.1513901-0.5622787
				c-0.4215927,0.0979614-0.8027344,0.3121109-1.1769943,0.5235214c-0.2013779,0.1137543-0.4027557,0.2275085-0.6041336,0.3412704
				c-0.0310287,0.0175247-0.0620499,0.0350494-0.0930786,0.0525742c-0.1140213-0.4475098-0.2636566-0.8649445-0.302803-1.3204956
				c-0.0516357-0.6009064,0.2941208-1.6846466-0.3971252-1.9372025c-0.6280746-0.2294693-2.4556808,0.4439621-3.1666489,0.5296478
				c-2.1525803,0.2594376-4.3505554,0.2795105-6.4838562-0.1371231c-1.939682-0.37883-3.9437714-1.2305069-4.8990326-2.9033127
				c1.3365784,0.0868225,2.5800476-0.6833954,3.5243988-1.6004257c0.9443512-0.9170265,1.7039032-2.0088768,2.7231674-2.8478661
				c0.9738693-0.8016167,2.1505737-1.3424721,3.3554611-1.7592392c2.1111603-0.7302361,4.3538895-1.1046066,6.5965271-1.1011353
				c1.2018204,0.0018654,2.4264374,0.1169434,3.5305557,0.5750656c1.104126,0.4581261,2.081543,1.2997513,2.4620209,2.4000549
				c0.3681259,1.0646095,0.4178619,2.5301743,0.4375534,3.6464882
				C122.4269409,64.4275818,123.9938736,64.4523697,124.8084946,66.4174652z"></path>
      </g>
        <g>
        <path d="M116.642807,72.1169586c-0.0057068,0-0.0114212,0-0.017601-0.0009537
				c-0.066597-0.0104675-0.1127396-0.0723038-0.1027527-0.1389008c0.0466156-0.3187256-0.167923-0.6697922-0.4990158-0.8163071
				c-0.318718-0.1398621-0.7206879-0.1056061-1.0517731,0.0894318c-0.0575638,0.0342484-0.1322479,0.014267-0.1669769-0.0428162
				c-0.0337753-0.0580368-0.0147476-0.1322479,0.0432892-0.1664963c0.3972168-0.234993,0.8857574-0.273056,1.2734604-0.1027527
				c0.4347916,0.1921844,0.7049866,0.644104,0.6417236,1.0750885
				C116.7545929,72.0731964,116.7022705,72.1169586,116.642807,72.1169586z"></path>
      </g>
        <g>
        <path d="M112.8446732,118.3868866l-18.7783051-0.2976837c0,0-8.5185623-1.0903702-10.0385208,11.7417145
				c-0.1015472,0.8572693,0.1223526,11.9722443,0.1223526,11.9722443l11.3393707-0.7093048
				c0,0,5.2290573-8.670105,5.8453903-8.7022858c0.6163254-0.0321655,12.1752014-3.2477417,12.1752014-3.2477417
				L112.8446732,118.3868866z"></path>
      </g>
        <g>
        <path fill="#6565ff" d="M107.0003204,85.6605682c-1.8989716,1.728653-3.1037827,3.9997406-4.0008698,6.3131866
				c-1.7852859,4.6039581-2.4759903,9.4982071-3.0198441,14.3599167c-0.5383759,4.812706-0.9440384,9.6379395-1.2164764,14.4695129
				c-0.0131454,0.2330856-0.0225754,0.480423,0.1015015,0.6840973c0.1533051,0.2516632,0.4695663,0.3731689,0.765213,0.4701767
				c5.9313431,1.9462585,12.4633865,1.0835266,18.6874695,0.1973114c0.8400497-0.119606,1.7300949-0.2600327,2.366745-0.7774734
				c0.6777039-0.5508194,0.9254532-1.4112244,1.1334763-2.2201996c1.4554672-5.6601639,2.6676254-11.3693695,3.9260559-17.0682983
				c1.1183243-5.0644836,3.0639343-10.5456543,0.1278229-15.4096603
				C122.4061279,80.9397354,111.6687317,81.410881,107.0003204,85.6605682z"></path>
      </g>
        <g>
        <path d="M104.8093491,120.9832916c-2.7713165-0.0310822-5.5426331-0.0621719-8.313942-0.0932541
				c-4.5028458-0.0505066-9.4656448-0.4989014-13.839653,0.7705383c-2.7481308,0.7975845-4.9739151,2.782547-6.6382599,5.0500412
				c-1.6173553,2.2034912-2.1506653,4.9242249-2.2220154,7.6070251c-0.0213242,0.8016968,0.3277359,8.5677032,0.0951004,8.563385
				c4.290062,0.0797119,8.6246567-0.2705383,12.9156723-0.2861023c0,0,4.9957657-7.5246887,5.6542435-7.5592499
				c0.6584854-0.0345764,13.0180359-3.2956543,13.0180359-3.2956543L104.8093491,120.9832916z"></path>
      </g>
        <g>
        <path fill="#fff" d="M129.8744812,140.7210083c0.5451202-1.0319214,0.7209167-2.528656,0.882431-3.6337128
				c1.9369965-13.2527237,0.2930603-26.572525,4.903244-39.4838943c0.5530243-1.5487976,1.1785583-3.1277084,1.0900116-4.7556686
				c-0.396637-7.2932587-13.9922714-3.7606277-17.8227463-1.8539658c-0.5750275,0.286232-3.6100159,1.7066727-3.6100159,2.3528214
				c-3.5250015,2.9609985-5.690361,7.0592499-7.1250763,11.2444c-1.4347076,4.1851501-2.216423,8.5341187-3.4585037,12.7709274
				c-0.9949722,3.3939362-2.3096848,6.7658768-4.4155731,9.7227936c-1.8198929,2.555336-4.3044968,5.1134415-7.4031525,6.3443375
				c-2.2357254,0.888092-4.6449661,1.3342438-6.962822,2.0220947c-0.9876022,0.2930756-1.9943161,0.6506195-2.7181244,1.3339539
				c-0.8806992,0.8314972-0.7781982,1.5832672-0.5882721,2.5883484c0.1109772,0.5872498,0.1517715,1.1835022,0.1542053,1.7804871
				c0.0022964,0.5632629-0.1337357,1.078598-0.1534119,1.6413422c-0.0010834,0.0308228,0.0195007,0.075531,0.0455856,0.0590668"></path>
            <path d="M82.6790466,142.9767151c-0.0247421,0-0.0490036-0.0047607-0.0670776-0.0152283
				c-0.0623169-0.035202-0.0889587-0.1103516-0.0870514-0.1703033c0.0090332-0.2644806,0.0437622-0.519455,0.0770645-0.7658691
				c0.0394821-0.2958984,0.0775375-0.5746613,0.0761108-0.8705444c-0.0028534-0.6574249-0.05233-1.233017-0.1522293-1.758194
				c-0.1736298-0.9209595-0.3377457-1.7915039,0.6246033-2.7000885c0.7711105-0.727829,1.8328781-1.08461,2.7671585-1.3624115
				c0.8205948-0.2435608,1.6649628-0.4595337,2.4817429-0.6688385c1.4903793-0.3824768,3.0316544-0.777298,4.471138-1.3490906
				c2.6472855-1.0522614,5.1195145-3.1719971,7.3481827-6.3021164c1.8071899-2.5373993,3.2048111-5.6152039,4.3983459-9.686264
				c0.5123291-1.7477341,0.9537888-3.5449371,1.3809662-5.2831573c0.6074753-2.4736557,1.2353973-5.0310364,2.0792999-7.4932709
				c1.7044449-4.9720535,4.0349121-8.6577988,7.1241226-11.2665482c0.0861053-0.4671402,1.1393127-1.1635742,3.473587-2.3024063
				l0.1983643-0.0979919c2.8561249-1.4204483,11.7807846-3.9768753,15.9032211-1.5764847
				c1.3039093,0.7592239,2.0088959,1.9484787,2.0954742,3.5335236c0.0827789,1.5260544-0.4509583,3.0083466-0.9675751,4.4411621
				l-0.1298676,0.3615341c-2.927475,8.2001648-3.3361053,16.7352295-3.7304688,24.989624
				c-0.2268982,4.7427597-0.4614258,9.6463089-1.1669006,14.4718399l-0.0432892,0.3006439
				c-0.1536407,1.0741425-0.3448792,2.4118195-0.8519745,3.3717804c-0.0314026,0.0599365-0.1036987,0.0827789-0.1645966,0.0504303
				c-0.0594635-0.0314026-0.0818176-0.10466-0.0504303-0.1645966c0.4871216-0.9219208,0.6750336-2.2358093,0.8258209-3.2918701
				l0.0437775-0.302536c0.7030792-4.8122253,0.9376068-9.7110062,1.164032-14.4480591
				c0.3957977-8.2715225,0.8049011-16.8246613,3.7447357-25.0590744l0.1298676-0.3624878
				c0.5085297-1.4099808,1.0337067-2.8684921,0.9533081-4.3450699c-0.0813446-1.4984665-0.7458954-2.6211243-1.9746399-3.3365784
				c-4.0434723-2.352829-12.8492126,0.1788635-15.6720352,1.5850372l-0.199791,0.0979996
				c-2.9084473,1.4194946-3.3427658,1.9532318-3.3427658,2.1454163c0,0.0361557-0.0157013,0.0704041-0.0432892,0.0932388
				c-3.0730438,2.5811615-5.3916168,6.2421722-7.0884476,11.191391c-0.8400955,2.4508209-1.4670715,5.0024872-2.0731125,7.4713898
				c-0.4276581,1.7410736-0.8695908,3.5411301-1.3833466,5.2936172c-1.2021027,4.0977097-2.6106567,7.1992874-4.433548,9.7585754
				c-2.2567368,3.169136-4.7655945,5.3183517-7.4571228,6.3877335c-1.4537506,0.5774994-3.0026398,0.9742432-4.5006256,1.3586121
				c-0.8143997,0.2083588-1.6568756,0.4243317-2.472702,0.6669312c-0.9076462,0.2692566-1.9370651,0.6146088-2.6691742,1.3053284
				c-0.8239136,0.7782593-0.7468491,1.4480438-0.5522842,2.4774628c0.102272,0.5404053,0.1531754,1.1302643,0.1560287,1.8019562
				c0.0014267,0.3139648-0.0390091,0.6136627-0.0784912,0.9048004c-0.0309219,0.2283325-0.0623169,0.4642792-0.0732574,0.7021332
				c0.0090332,0.0076141,0.017601,0.0171204,0.0242615,0.0275879c0.0371017,0.0561371,0.0214005,0.1313019-0.035202,0.168396
				C82.7385101,142.969101,82.7085342,142.9767151,82.6790466,142.9767151z"></path>
      </g>
        <g>
        <path d="M103.9648438,136.6270294c-0.0480423,0-0.0932312-0.0285339-0.1127396-0.0761108
				c-0.0252075-0.0618439,0.0042801-0.133194,0.066597-0.1579285c2.083107-0.8534088,3.9530945-2.2776642,5.2650833-4.0111237
				c2.6886749-3.5506592,3.5297165-7.9785004,4.3426895-12.2607727l0.0746841-0.3910294
				c0.7991867-4.198555,1.7034988-8.4399185,2.6872482-12.6042252c0.6136551-2.5963898,1.236351-4.9073486,2.6506195-6.8957901
				c2.5535736-3.5906067,7.4295273-5.7607651,14.9075775-6.636055c0.0675507-0.0142746,0.1274872,0.0399551,0.1351013,0.1065598
				c0.0080872,0.066597-0.0399628,0.1274872-0.1065674,0.1350937c-7.4057388,0.8667374-12.2265091,3.0045395-14.7372665,6.5352097
				c-1.3890533,1.9532394-2.0050888,4.2394638-2.6125641,6.8101654c-0.9828033,4.1614456-1.8866348,8.3990097-2.6853409,12.5947113
				l-0.0742111,0.3910217c-0.8182068,4.3089218-1.6644821,8.7653122-4.387886,12.3616257
				c-1.33815,1.7686615-3.2442932,3.2205048-5.3668747,4.0891418
				C103.9957657,136.624176,103.980072,136.6270294,103.9648438,136.6270294z"></path>
      </g>
        <g>
        <path d="M131.8140411,62.2580566c3.1354065,1.5556297,5.3756866,4.7734909,5.151123,8.0091248
				c-0.1162567,1.6750793-0.8416443,3.2443619-1.1908112,4.8860626c-0.3491669,1.6416931-0.2393494,3.5442276,1.0386047,4.7746353
				c1.4992828,1.4435043,3.9537811,1.4165192,5.9229889,2.2347946c1.2980042,0.5393677,2.4052429,1.4787827,3.0977783,2.6282425
				c0.4286499,0.7114716,0.7030945,1.5470047,0.4981079,2.3242569c-0.127655,0.4841003-0.4296417,0.9069824-0.720932,1.3230591
				c-1.961731,2.8021317-4.5513,5.8959274-1.4330292,8.9727325c1.3004456,1.2831421,3.0707092,2.0577393,4.8221283,2.7294617
				c-1.6703186,0.7076111-3.4699249,1.2273865-5.3256836,1.2461624c-1.9891205,0.020134-3.8835449-0.6581116-5.5306702-1.729126
				c-1.6147156-1.0499268-1.8587646-3.2112656-1.7866669-4.9855652c0.0771484-1.898613,0.3528137-3.9479065-0.6315613-5.5732346
				c-1.0014191-1.6534729-2.997879-2.3543243-4.8191376-3.0022583c-1.8212585-0.6479416-3.797081-1.5251617-4.5555344-3.3032379
				c-0.7636642-1.7903214-0.0092773-3.8495102,0.9123459-5.5638733c0.9216309-1.7143631,2.0489197-3.4506607,2.0469666-5.397049
				c-0.0002747-0.2801285-0.0269318-0.568718-0.1554565-0.817627c-0.2875214-0.5568008-1.4577713-1.3847046-1.9888458-1.7535782
				c-0.8503189-0.5906067-2.3056946-0.5882263-3.2989426-0.7561874c-2.841217-0.4804535-7.5197525-3.8099823-3.7161331-6.0858116
				C123.3535843,60.502636,128.4594269,60.5936775,131.8140411,62.2580566z"></path>
      </g>
        <g>
        <path fill="#fff" d="M87.4993439,120.9859161c-0.0666046,0-0.1213074-0.0542297-0.1217804-0.1208267
				c-0.0004807-0.0675507,0.0532761-0.1217804,0.1208267-0.1227264l10.7228165-0.0913391c0.0004807,0,0.0004807,0,0.0009537,0
				c0.066597,0,0.1213074,0.0542297,0.1217804,0.1208267c0.000473,0.0675507-0.0532761,0.1217804-0.1208267,0.1227341
				l-10.7228241,0.0913315C87.4998169,120.9859161,87.4998169,120.9859161,87.4993439,120.9859161z"></path>
      </g>
        <g>
        <path fill="#fff" d="M78.4938126,139.5193024c-0.0604172,0-0.1127472-0.0447083-0.1208344-0.1056061
				c-0.6512375-4.9016418,0.0451965-8.3666534,2.0697861-10.2980194c2.168251-2.0683517,5.1252213-1.5631561,5.1551895-1.5574417
				l10.6010437-0.0019073c0.06707,0,0.1217804,0.0542297,0.1217804,0.1217804s-0.0547104,0.1217804-0.1217804,0.1217804H85.5760727
				c-0.0508957-0.0066605-2.8913193-0.489975-4.9677658,1.4937057c-1.9632263,1.8761749-2.6339645,5.2698364-1.9936676,10.0877533
				c0.0085602,0.0666046-0.0380554,0.1284485-0.1046524,0.1370087
				C78.5042725,139.5193024,78.4990387,139.5193024,78.4938126,139.5193024z"></path>
      </g>
        <g>
        <g>
          <path d="M67.4386215,108.0787888c-1.2741547,0.0316467-2.5501556,0.1117249-3.8204689,0.2610397
					c-0.5332108,0.0626831-1.0656357,0.1377182-1.5953941,0.2319717c-0.4800606,0.0854111-0.8830032,0.2922745-1.3789978,0.2309952
					c-0.3315392-0.0409775-0.5987015-0.2751389-0.9241829-0.3390732c-0.1869812-0.0367203-0.3826332-0.01754-0.5722847,0.0191269
					c-0.0669746,0.0129471-0.1390419,0.03125-0.1832466,0.0844193c-0.0647202,0.0778503-0.0414391,0.1909409-0.0187492,0.2870407
					c0.0472183,0.1999893,0.0757484,0.4050446,0.0852661,0.6116791c0.0064774,0.140625-0.0177383,0.2899246,0.0309753,0.4229431
					c0.0648689,0.1771164,0.2350502,0.2865524,0.3939171,0.3713379c0.2763672,0.1474991,0.5840263,0.2397766,0.8876495,0.3187637
					c0.9647026,0.2509613,1.9736061,0.3586884,2.9710121,0.4351807c1.3572464,0.1040802,2.723999,0.1249695,4.0894547,0.0910568
					c2.33004-0.057869,4.806427-0.1782455,7.0722961-0.8760147c0.3860931-0.1188965,0.9831848-0.2746582,1.2362061-0.6338959
					c0.1245956-0.1769104,0.1156311-0.4142303,0.1392212-0.6185532c0.0305862-0.2648621,0.0611649-0.5297165,0.0917511-0.7945786
					c-0.243248-0.1812897-0.5425568-0.2851257-0.850769-0.2634888c-0.3082047,0.0216293-0.6105728,0.1485291-0.8529358,0.348671
					c-0.2533493,0.2092133-0.3198929,0.2269516-0.6092224,0.1529694c-0.2187729-0.0559464-0.456955-0.0739975-0.681366-0.1040268
					c-0.5349045-0.0715942-1.0732346-0.1225662-1.6126785-0.1606293
					C70.0419006,108.0643997,68.7398224,108.0464706,67.4386215,108.0787888z"></path>
        </g>
            <g>
          <ellipse cx="67.435" cy="108.367" fill="#fff" rx="8.376" ry="1.512"
                   transform="rotate(-1.493 67.435 108.368)"></ellipse>
                <path d="M66.2829895,110.0162125c-3.5815659,0-6.511898-0.4319382-7.1755028-1.0865097
					c-0.1122665-0.1103592-0.1683998-0.2302399-0.1669693-0.3548737v-0.0009537
					c0.0128441-1.0589142,4.393589-1.7391663,8.5093727-1.8419189c4.1481323-0.0998993,7.5693817,0.3386993,8.313385,1.0731888
					c0.1117859,0.1103592,0.167923,0.2302399,0.1664963,0.3558197c-0.0118942,1.0598679-4.3931198,1.7391739-8.5093765,1.8409729
					C67.035553,110.0114517,66.6559448,110.0162125,66.2829895,110.0162125z M59.1840744,108.5767365L59.1840744,108.5767365
					c-0.000473,0.0570831,0.0309219,0.1170197,0.0941887,0.1798096c0.679306,0.6697922,4.1761971,1.1007767,8.136425,1.0018311
					c4.8650131-0.119873,8.2639084-0.9399872,8.2715225-1.6002655c0.000473-0.0570831-0.0309219-0.1170197-0.0941925-0.1798096
					c-0.6778717-0.6697922-4.1828537-1.1007767-8.1364212-1.0027847
					C62.5910606,107.096344,59.1921616,107.9164581,59.1840744,108.5767365z"></path>
        </g>
            <g>
          <path d="M63.9844131,103.559906l0.4389877,3.6192093c-0.0389252,0.6957626,4.7015228,0.7901917,4.740448,0.0944366
					l-1.2980652-6.6020432"></path>
        </g>
      </g>
        <g>
        <path d="M44.9549828,105.2621918c0.1054611-0.0087357,0.2108917-0.0174713,0.3162842-0.0261993
				c0.3006287-0.0249023,0.600975-0.0497894,0.9010429-0.074646c0.471962-0.0391006,0.9432373-0.0781479,1.4138222-0.1171341
				c0.6189117-0.0512695,1.2366295-0.1024475,1.8531647-0.1535263c0.7412567-0.061409,1.4808006-0.122673,2.2186394-0.1837997
				c0.8391037-0.069519,1.6760063-0.138855,2.5107193-0.2080078c0.9128113-0.0756226,1.8230057-0.1510239,2.7306023-0.2262192
				c0.9629211-0.0797729,1.922924-0.1593018,2.880024-0.2385941c0.9901276-0.0820313,1.9771576-0.1638031,2.9611015-0.2453156
				c0.9952011-0.0824509,1.9872551-0.1646347,2.9761772-0.2465668c0.9789429-0.0811005,1.9548264-0.1619492,2.9276657-0.2425385
				c0.9421539-0.0780563,1.8814545-0.1558762,2.8179169-0.2334518c0.8855591-0.0733643,1.7685928-0.1465225,2.6491013-0.2194672
				c0.8098145-0.0670929,1.6175079-0.1340027,2.4230881-0.2007446c0.7154541-0.0592728,1.4292374-0.1184082,2.1413651-0.1774063
				c0.6028214-0.049942,1.2044601-0.0997849,1.8049164-0.1495285c0.4721146-0.0391083,0.9435043-0.0781631,1.4141617-0.117157
				c0.3232803-0.0267792,0.6462173-0.0535355,0.968811-0.0802612c0.1559372-0.0129166,0.3117142-0.023056,0.4678497-0.0387573
				c0.2663345-0.0267792,0.5318069-0.0394135,0.7967911-0.0555725c0.1452713-0.0088654,0.296669-0.0194397,0.4368896-0.0929947
				c0.2763138-0.1449356,0.4111481-0.4728546,0.5126801-0.7612228c0.0305481-0.0867538,0.0615845-0.176712,0.0555038-0.2608032
				c-0.0075226-0.1040726-0.0715027-0.1848297-0.1483459-0.2425919c-0.1407547-0.1058044-0.3250122-0.1484833-0.5052795-0.1893692
				c-0.446228-0.1011963-0.8931885-0.2025528-1.3408966-0.3040848c-0.1379242-0.0312805-0.3175278-0.0741959-0.3883133-0.2002945
				c-0.0497589-0.0886383-0.0309525-0.2223587-0.0599976-0.3268356c-0.045433-0.1634293-0.0908813-0.3269196-0.1363525-0.4904785
				c-0.1006088-0.3618927-0.2012939-0.7240906-0.3020706-1.0865936c-0.2341766-0.8423615-0.468811-1.6863632-0.7039032-2.5320053
				c-0.2670212-0.9605103-0.5346298-1.9231415-0.8028336-2.8878937c-0.2860413-1.0289307-0.5727539-2.0602798-0.8601532-3.0940704
				c-0.2908936-1.0463791-0.5824814-2.0952606-0.8747635-3.1466522c-0.2811813-1.0114212-0.5630035-2.025177-0.8454742-3.0412598
				c-0.256485-0.9225998-0.513504-1.8471298-0.7710571-2.7735901c-0.2164536-0.7786179-0.4332886-1.5586014-0.6505127-2.3399582
				c-0.1608353-0.5785675-0.3218918-1.1578903-0.4831543-1.7379684c-0.0895538-0.3221512-0.1791763-0.6445389-0.2688675-0.9671555
				c-0.0132446-0.0476303-0.0264816-0.0952606-0.0397263-0.1428986c-0.0226974-0.0816498-1.3099136,0.0504379-1.4090347,0.0542526
				c-2.0948868,0.080658-4.2040634,0.1618652-6.3276596,0.2436295c-3.1240616,0.120285-6.2796059,0.2417831-9.4671173,0.3645096
				c-3.4008522,0.1309433-6.8384743,0.2633057-10.3134575,0.3971024c-1.5525818,0.0597763-3.1126823,0.1198425-4.6803513,0.1802063
				c-0.6887398,0.0265121-1.3789406,0.053093-2.0706177,0.0797195c-0.356266,0.0137177-0.6855164-0.0016174-1.0322533-0.0217743
				c-0.5664673-0.0329437-1.1537399,0.1132813-1.6425323-0.177948c-0.2457581-0.1464233-0.4173851-0.3754196-0.6267052-0.5642014
				c-0.2095108-0.1889572-0.4872742-0.3444443-0.8007355-0.296524c-0.1914711,0.0292664-0.3718109,0.1309128-0.5442467,0.2327194
				c-0.2138824,0.1262741-0.4257126,0.2564697-0.6353035,0.3904724c-0.1624374,0.1038513-0.3278732,0.2139511-0.4428139,0.3644943
				c-0.2456207,0.3216858-0.0267029,0.7245789,0.0719604,1.0294647c0.5052834,1.5614166,1.0087967,3.117363,1.5105515,4.6678619
				c0.7742386,2.39254,1.5443039,4.772171,2.3102226,7.1389999c0.8140068,2.5154266,1.6233597,5.0164642,2.4280968,7.5032501
				c0.6377602,1.970787,1.2726364,3.932663,1.9046516,5.8856964
				C44.4416351,103.6758652,44.6985435,104.4697571,44.9549828,105.2621918z"></path>
      </g>
        <g>
        <polygon fill="#fff" points="46.794 103.975 85.02 100.875 77.671 74.221 37.714 75.687"></polygon>
            <path d="M46.7939186,104.0965652c-0.052803,0-0.0998993-0.034256-0.1160736-0.0846786l-9.0797424-28.288147
				c-0.0114174-0.0361557-0.0057068-0.0761185,0.0161743-0.1075134c0.0218849-0.0304413,0.05756-0.049469,0.0956154-0.0513763
				l39.9571457-1.4651642c0.0589905-0.0085602,0.1065598,0.034256,0.1217804,0.0894318l7.3486557,26.6536407
				c0.0095139,0.035202,0.003334,0.0723038-0.017601,0.101799c-0.0209274,0.0304413-0.0537491,0.049469-0.0899048,0.0523224
				l-38.2260628,3.0996857C46.8005753,104.0965652,46.7972488,104.0965652,46.7939186,104.0965652z M37.8792458,75.8027039
				l9.0012512,28.0426865l37.982975-3.0796967l-7.2839661-26.4186401L37.8792458,75.8027039z"></path>
      </g>
        <g>
        <polygon fill="#d4eef4" points="49.098 101.755 81.876 99.201 75.496 76.318 41.453 77.678"></polygon>
      </g>
        <g>
        <g>
          <path fill="#ffc69f" d="M78.166954,112.161972c-0.0792389,0.6857605-0.0191269,1.3592758,0.6481705,1.7024689
					c0.7780075,0.4001312,1.8615112,0.4283676,2.703949,0.287178c0.2657318-0.0445404,0.3660049-0.4387817,0.4259262-0.7014694"></path>
            <path d="M80.5830994,114.3527145c-0.6940536,0-1.3391037-0.1312943-1.8238449-0.3796082
					c-0.7734985-0.3986359-0.7872925-1.1845016-0.7130814-1.8257446c0.0080872-0.0666046,0.0704041-0.1227341,0.1346207-0.1065598
					c0.0670776,0.0076141,0.1151199,0.0675507,0.1070328,0.1351013c-0.0979919,0.8467484,0.0761185,1.3195953,0.5827408,1.5802841
					c0.7739639,0.3976898,1.8657074,0.4014893,2.6287308,0.2759094c0.1955185-0.0333023,0.2878036-0.4366989,0.3268127-0.608902
					c0.0156937-0.0656509,0.080864-0.1027527,0.1460419-0.0922852c0.0656433,0.0152206,0.1065521,0.0808716,0.0918045,0.1455612
					c-0.0589828,0.2578354-0.167923,0.7354355-0.5242233,0.7953796
					C81.2176819,114.3260803,80.8951569,114.3527145,80.5830994,114.3527145z"></path>
        </g>
            <g>
          <path fill="#ffc69f" d="M77.8742447,113.3262558c-0.0475006,0.2718658-0.3329544,0.4785995-0.6060715,0.4389343
					s-0.4879761-0.3190536-0.4561768-0.5932007c-0.2145767,0.291275-0.6906815,0.2621155-0.9670792,0.0286789
					c-0.2763977-0.233429-0.3970184-0.5998688-0.4815674-0.9516296c-0.1425018-0.5928802-0.2188797-1.201622-0.2272644-1.8113327
					c-0.1213913,0.3365173-0.242775,0.673027-0.3641663,1.0095444c-0.0507507,0.1406937-0.1101227,0.2922211-0.2384109,0.3691254
					c-0.1903458,0.1141129-0.4520798,0.0000992-0.5715866-0.1869049c-0.1195145-0.1870041-0.1324615-0.4209213-0.1336212-0.6428452
					c-0.0045319-0.8732605,0.1191788-1.7470856,0.3659363-2.5847778c0.0921326-0.3127594,0.2108994-0.6351776,0.4563141-0.8498535
					c0.3748322-0.3278885,0.9562454-0.3416061,1.3805771-0.131218c0.5893555,0.2922134,1.1371155,0.6595154,1.6798401,1.0291214
					c0.6638107,0.4520645,1.3235626,0.9100952,1.9791412,1.3740158"></path>
                <path d="M77.3364258,113.8912888c-0.0285416,0-0.0570831-0.0019073-0.0856247-0.0057144
					c-0.2507019-0.0361481-0.4595337-0.2330933-0.5342178-0.4709396c-0.0784912,0.0437622-0.1688766,0.0732574-0.2663956,0.084671
					c-0.2335663,0.0304489-0.4994888-0.0504227-0.6835861-0.2055054c-0.3068237-0.2587814-0.4357376-0.6593246-0.521843-1.016098
					c-0.0970459-0.4043503-0.1636429-0.8153534-0.1997986-1.2282639l-0.1584091,0.4385986
					c-0.0504227,0.1398544-0.1194,0.3301392-0.2901764,0.4328842c-0.255928,0.153183-0.5884476,0.0066605-0.7368622-0.2254791
					c-0.1384277-0.2169189-0.1517487-0.4795074-0.1531754-0.7078476c-0.0042801-0.8876572,0.1203537-1.7696152,0.371048-2.6201706
					c0.0975189-0.3320389,0.2245331-0.6716919,0.4928284-0.9066925c0.3862686-0.3386993,1.0089645-0.3986359,1.5151138-0.1493683
					c0.5822601,0.2892303,1.1117172,0.6412506,1.6939774,1.0379868c0.6731186,0.4585724,1.3395767,0.9209595,1.9813004,1.3757324
					c0.0547104,0.0380554,0.0680237,0.1141663,0.0290222,0.1693497c-0.0390091,0.0551758-0.1151199,0.0675507-0.1698303,0.0285416
					c-0.6402969-0.4528732-1.3058014-0.9152527-1.9774933-1.3719254c-0.5751266-0.391983-1.0969772-0.7392426-1.6654358-1.0208588
					c-0.3544006-0.1760101-0.8967056-0.1921844-1.2458649,0.1132126c-0.2216797,0.1940918-0.3325195,0.4956818-0.4195709,0.7925262
					c-0.2440414,0.8286743-0.3658218,1.6868362-0.3615341,2.5497665c0.0014267,0.203598,0.0114136,0.4167099,0.1146393,0.5784531
					c0.0856323,0.1341476,0.2787628,0.2264328,0.40625,0.1474686c0.0894318-0.0532837,0.1374817-0.1703033,0.1864777-0.3063507
					l0.3643875-1.0094452c0.0199814-0.0551834,0.0746841-0.0856247,0.1351013-0.0780182
					c0.0580368,0.0095139,0.1003723,0.0589905,0.101326,0.117981c0.0080872,0.5993805,0.0832443,1.1997223,0.2235794,1.7848358
					c0.0765839,0.318718,0.1893311,0.6735916,0.441925,0.8867111c0.1332016,0.1132126,0.3230057,0.1712494,0.4980621,0.1493683
					c0.0884781-0.0104675,0.2107391-0.0456696,0.2925568-0.1569824c0.0328217-0.0447159,0.0913391-0.0608902,0.1427155-0.0409088
					s0.0827713,0.0723038,0.0761108,0.1274872c-0.0242615,0.2093124,0.1436615,0.4281311,0.3524933,0.4576263
					c0.2126389,0.0361557,0.4328918-0.1303406,0.4690475-0.3386993c0.0118866-0.0656509,0.0723038-0.1103668,0.1408081-0.0989456
					c0.0661163,0.0114136,0.1108322,0.0742111,0.0989456,0.1408081
					C77.940567,113.6543884,77.6446762,113.8912888,77.3364258,113.8912888z"></path>
        </g>
            <g>
          <path fill="#ffc69f"
                d="M76.7745056,113.1389389c-0.2584991-0.7282181-0.4078979-1.4950638-0.4416733-2.2670746"></path>
                <path d="M76.7746201,113.2605057c-0.0499496,0-0.0970459-0.031395-0.1146469-0.0808716
					c-0.2635345-0.7411423-0.4143372-1.5155869-0.4490585-2.3023987c-0.002861-0.0675507,0.049469-0.1246338,0.1165466-0.1274948
					c0.0594635-0.0018997,0.1241531,0.0494766,0.1270065,0.1160736c0.0333023,0.763031,0.1798172,1.5136871,0.4347992,2.2320023
					c0.0228271,0.0637436-0.0104675,0.133194-0.0737381,0.1560287
					C76.8017349,113.2585983,76.787941,113.2605057,76.7746201,113.2605057z"></path>
        </g>
            <g>
          <path fill="#ffc69f" d="M75.1360855,110.437706c0,0,0.1983337-1.5498734,0.4838104-1.9111557"></path>
                <path d="M75.1362991,110.5594635c-0.0047607,0-0.0099945,0-0.0152206-0.0009537
					c-0.0670776-0.0085602-0.1141739-0.0694504-0.1056061-0.1360474c0.0209274-0.1626892,0.2107315-1.5945587,0.5090027-1.9713135
					c0.0428085-0.0532837,0.1194-0.0618439,0.1712494-0.0199814c0.052803,0.0409088,0.0613632,0.1179733,0.0199814,0.1703033
					c-0.2173996,0.2749557-0.4048233,1.4299622-0.45858,1.8514328
					C75.2490387,110.5147476,75.1967087,110.5594635,75.1362991,110.5594635z"></path>
        </g>
            <g>
          <path fill="#ffc69f" d="M82.337822,111.0249176c-0.6874008-0.1759262-1.3720245-0.4281006-1.9190216-0.8800659
					c-0.2457275-0.2030334-0.4594727-0.4430084-0.7098846-0.6402283c-0.6141891-0.4837036-2.0987701-1.2278595-2.7329254-0.3786392
					c-0.2700577,0.3616638-0.1828079,0.8683929-0.0668182,1.3046036c0.2067108,0.7773895,0.4656906,1.5408783,0.7746124,2.2835999
					c0.1586151,0.3813553,0.3469391,0.7773361,0.691185,1.0055771c0.0517197,0.0342941,0.1082306,0.0648727,0.1699371,0.0714035
					c0.1034698,0.0109329,0.2027206-0.0479126,0.2759781-0.121788c0.3546677-0.3576736,0.2137375-0.9524994,0.049057-1.4285278
					c-0.0897522-0.2594223-0.1679764-0.5391159-0.286171-0.7805099c0.0201721,0.2950592,0.2428665,0.63517,0.4365768,0.8601608
					c0.3665771,0.4257813,0.9195023,0.6383286,1.4598312,0.7923279c0.4275284,0.1218567,0.8913651,0.2160721,1.3096542,0.0655289"></path>
                <path d="M78.5689697,113.9141235c-0.0123672,0-0.0242615,0-0.0366287-0.0019073
					c-0.0922852-0.0095139-0.168396-0.0532761-0.2245331-0.0903854c-0.3762817-0.2502136-0.5774994-0.6783524-0.7363892-1.0608139
					c-0.3111038-0.7487564-0.5736923-1.5222473-0.7796783-2.2985992c-0.1255798-0.4718933-0.2131119-1.0075378,0.0865784-1.4099808
					c0.1783905-0.2388,0.4286118-0.3805618,0.7425766-0.4224243c0.7977524-0.1056061,1.7624817,0.4633331,2.1630173,0.7782516
					c0.1379547,0.1094055,0.2649689,0.2302399,0.3877029,0.3472595c0.1060791,0.100853,0.2121582,0.2016983,0.3249054,0.2949371
					c0.4504852,0.3729477,1.0451202,0.64505,1.8714142,0.8562622c0.0651703,0.017128,0.1046524,0.0827789,0.0880051,0.1484222
					c-0.017128,0.0646973-0.0813446,0.1056061-0.1484222,0.087532c-0.8624496-0.220726-1.4870453-0.5080566-1.9660797-0.9038391
					c-0.1175003-0.0970459-0.2273865-0.2016983-0.3377457-0.3073044c-0.118454-0.1132126-0.2416611-0.2302399-0.370575-0.3320389
					c-0.4328918-0.339653-1.3105621-0.8229675-1.9808273-0.727829c-0.2459412,0.0323486-0.440979,0.1427155-0.5789337,0.3272858
					c-0.2373734,0.3177719-0.1569748,0.7858582-0.0466156,1.200676c0.203598,0.7668304,0.4623871,1.5298615,0.7692108,2.2681503
					c0.1522293,0.3653412,0.3272858,0.7392426,0.6464844,0.9504547c0.0328217,0.0218811,0.0761108,0.0475693,0.115593,0.05233
					c0.052803,0.0037994,0.1170197-0.0266418,0.1769638-0.087532c0.3087311-0.3111115,0.1731567-0.8600693,0.0199738-1.302475
					c-0.0237808-0.0685043-0.0466156-0.1379547-0.0694504-0.2083588c-0.0009537-0.0018997-0.0014267-0.0028534-0.0018997-0.0047531
					c-0.1079865-0.1750641-0.2069321-0.388176-0.2212067-0.5984344c-0.0042801-0.0580368,0.0333023-0.1113205,0.0899124-0.1265411
					c0.0551834-0.0161743,0.1146393,0.0123672,0.1408081,0.0646973c0.0860977,0.1750565,0.150795,0.3681946,0.2126389,0.5556183
					c0.0813446,0.1274948,0.1655426,0.2302399,0.2069321,0.2778168c0.3563004,0.4148102,0.9081116,0.6146011,1.4009399,0.7554092
					c0.4129105,0.117981,0.8486557,0.2045593,1.2349243,0.0685043c0.0632706-0.0256882,0.1332016,0.0085602,0.1560364,0.0732574
					c0.0228271,0.0627975-0.0099945,0.1332016-0.0732574,0.1550827c-0.4533463,0.1645889-0.9542618,0.0589828-1.3843002-0.0627975
					c-0.4571457-0.1303406-0.9637756-0.3101578-1.3500443-0.6574173c0.1041794,0.4214706,0.1203537,0.8695831-0.1893311,1.1825943
					C78.8039703,113.8589401,78.6850433,113.9141235,78.5689697,113.9141235z"></path>
        </g>
      </g>
        <g>
        <path fill="#6565ff" d="M118.4580612,82.9710617c-0.9045181-0.540329-1.8856659-0.2145844-2.8405533-0.0117035
				c-0.885849,0.1882095-1.7653198,0.4075623-2.6334381,0.665741c-2.3831787,0.7087402-4.7144928,1.713501-6.7144928,3.2093506
				c-1.965126,1.4697723-3.5293274,3.4171982-4.4276886,5.7092209c-1.1584778,2.9556656-1.0501633,6.2931824-2.8281937,9.038475
				c-1.6353912,2.5250397-4.4467316,4.2812653-7.4033203,5.283844c-3.479454,1.1798782-7.3370132,2.0041046-11.0430603,1.8689651
				c0,0,0.12397,5.0062561,0.1239624,5.0062943c-0.0932693,1.4601517,0.7277908,1.1423492,2.0020981,1.153511
				c1.2940369,0.0113297,2.5881805-0.0086288,3.8811646-0.0623245c2.6781845-0.1112289,5.3504944-0.3636169,8.0020676-0.7562943
				c1.9636307-0.2907944,3.9619217-0.6749954,5.6732254-1.6809006c1.2468033-0.732872,2.2868347-1.7647781,3.2947235-2.8019791
				c0.7368469-0.7582703,1.4835129-1.5556259,1.8463135-2.5487442c0.3661575-1.0022964,0.3046951-2.1009979,0.375061-3.1657639
				c0.2398529-3.629158,2.155014-7.1135483,5.0903091-9.2611771"></path>
      </g>
        <g>
        <path d="M99.5541306,113.1682205c-0.0499496,0-0.0965652-0.0304489-0.1146469-0.0799179
				c-0.0228348-0.0637436,0.0099945-0.1332016,0.0732574-0.1560364c2.8099823-1.0208588,5.3735428-2.7828598,7.413353-5.0966797
				c0.0447235-0.049469,0.1217804-0.0542297,0.17173-0.0104675c0.0504303,0.0447159,0.0556564,0.1217804,0.0109406,0.1722107
				c-2.066925,2.3442612-4.6647415,4.129097-7.5132523,5.1632767
				C99.5821991,113.1663132,99.5679245,113.1682205,99.5541306,113.1682205z"></path>
      </g>
        <g>
        <path fill="#d4eef4" d="M66.5466232,79.9338608l23.1280823-1.8753281c0.5177536-0.0419846,0.8694763-0.544754,0.7314148-1.0455322
				L86.082428,61.330616c-0.1020432-0.3700943-0.4450531-0.6215401-0.8287048-0.6074677l-24.1558876,0.8859367
				c-0.5483246,0.0201111-0.9258537,0.5582428-0.758152,1.0806808l5.3515091,16.6717758
				C65.8087769,79.7278595,66.1631546,79.9649506,66.5466232,79.9338608z"></path>
            <path d="M66.4770737,80.058342c-0.4105301,0-0.774437-0.2625885-0.9019318-0.6593246l-5.3516541-16.6724358
				c-0.0913353-0.2854233-0.0451927-0.5898705,0.1265373-0.8353348c0.1722031-0.2454605,0.4433517-0.3929291,0.7430458-0.4043465
				l24.1561966-0.8857613c0.0118942,0,0.0237808-0.0009499,0.0361557-0.0009499c0.4271774,0,0.8001328,0.2825661,0.914299,0.6983337
				l4.3236618,15.6820221c0.0756378,0.273056,0.0256882,0.5641861-0.137001,0.7963257
				c-0.1631699,0.2330933-0.4186172,0.3805618-0.7016602,0.4033966l-23.1282043,1.8752213
				C66.5298767,80.0573883,66.5032425,80.058342,66.4770737,80.058342z M85.2849426,60.84375
				c-0.0090332,0-0.018074,0.0009499-0.0266342,0.0009499l-24.1561966,0.8857613
				c-0.2231064,0.0085602-0.4243279,0.1179733-0.5522919,0.3006439s-0.1622162,0.4091034-0.0941887,0.6212654l5.3516579,16.6724358
				c0.1003723,0.3139648,0.4072037,0.5137634,0.729248,0.4871216l23.1282043-1.8752213
				c0.2107391-0.0161743,0.4005432-0.1255875,0.521843-0.2987442c0.1208344-0.1731491,0.1584091-0.389122,0.1018066-0.59272
				l-4.3236694-15.6820259C85.8800507,61.0540085,85.6027145,60.84375,85.2849426,60.84375z"></path>
      </g>
        <g>
        <path fill="#fff" d="M29.602438,79.9873581l31.7738285-2.576355c0.6711845-0.0544205,1.1271324-0.7061844,0.9481544-1.3553543
				L56.3543472,54.401722c-0.1304474-0.4731445-0.5651627-0.7975731-1.0558662-0.7879944l-30.9644642,0.6044006
				c-0.676506,0.0132065-1.172245,0.6413727-1.0278511,1.3024216l5.1607094,23.6258888
				C28.5815582,79.671463,29.0667915,80.0307922,29.602438,79.9873581z"></path>
            <path d="M29.5154362,80.1125717c-0.5546703,0-1.0470238-0.3900757-1.1673756-0.9399872l-5.160902-23.6262627
				c-0.0765877-0.3510704,0.0071354-0.7135544,0.2297649-0.9951706c0.2221527-0.2816162,0.5556221-0.4481125,0.9147778-0.4547729
				l30.9644527-0.6041412c0.0076141,0,0.0157013,0,0.0233116,0c0.5370674,0,1.0089645,0.3577271,1.152153,0.8771935
				l5.9700699,21.6539993c0.0951424,0.3444061,0.0323486,0.7097473-0.1726799,1.0018311
				c-0.2045517,0.2930298-0.5266037,0.4776077-0.8829041,0.5070953l-31.7736263,2.5764084
				C29.5801315,80.110672,29.5477829,80.1125717,29.5154362,80.1125717z M55.3194656,53.7357979
				c-0.0061836,0-0.0123672,0-0.0185547,0l-30.9644527,0.6041412c-0.2858982,0.0057068-0.5513401,0.1379547-0.728302,0.3615341
				c-0.1774368,0.2245331-0.2440357,0.5137596-0.1831455,0.7934723l5.160902,23.6262627
				c0.1013241,0.4633331,0.5399227,0.7963257,1.0065861,0.7439957l0,0l31.7736282-2.5764008
				c0.2839928-0.0228348,0.5403976-0.1693573,0.7035637-0.4024506c0.1626892-0.2330933,0.2126389-0.5242233,0.137001-0.7982254
				l-5.9700699-21.6539993C56.1229286,54.0202675,55.7471237,53.7357979,55.3194656,53.7357979z"></path>
      </g>
        <g>
        <path fill="#ff98cb" d="M31.5903397,66.8243942l8.6256104-0.6994019c1.1209335-0.090889,1.8824081-1.17939,1.5834999-2.2635498
				l-1.4274635-5.1775246c-0.2178612-0.7901917-0.9438705-1.3320122-1.7633896-1.3160172l-8.445858,0.164856
				c-1.1298237,0.0220528-1.9577503,1.0711479-1.7165985,2.1751518l1.2477131,5.7120667
				C29.8853836,66.296814,30.6957645,66.8969269,31.5903397,66.8243942z"></path>
      </g>
        <g>
        <rect width="15.079" height="1.309" x="67.41" y="64.651" fill="#fff"
              transform="rotate(-2.864 74.949 65.305)"></rect>
      </g>
        <g>
        <polygon fill="#ff98cb" points="49.177 84.292 73.648 83.068 73.12 81.748 48.649 82.972"></polygon>
      </g>
        <g>
        <polygon fill="#fff" points="47.603 87.945 72.074 86.721 71.546 85.401 47.075 86.625"></polygon>
      </g>
        <g>
        <polygon fill="#ff98cb" points="53.452 91.58 77.923 90.356 77.395 89.036 52.924 90.26"></polygon>
      </g>
        <g>
        <polygon fill="#fff" points="49.693 95.81 74.164 94.586 73.636 93.266 49.165 94.49"></polygon>
      </g>
        <g>
        <rect width="15.079" height="1.309" x="68.249" y="68.025" fill="#fff"
              transform="rotate(-2.864 75.789 68.679)"></rect>
      </g>
        <g>
        <rect width="15.079" height="1.309" x="68.757" y="71.311" fill="#fff"
              transform="rotate(-2.864 76.296 71.965)"></rect>
      </g>
        <g>
        <rect width="15.079" height="1.309" x="69.544" y="74.728" fill="#fff"
              transform="rotate(-2.864 77.083 75.382)"></rect>
      </g>
        <g>
        <path fill="#fff"
              d="M42.8222809,60.1187057c-0.0472488-0.1686211,11.1377716-0.7868881,11.1377716-0.7868881"></path>
            <path d="M42.8222733,60.2405586c-0.0532799,0-0.1022758-0.035202-0.1175003-0.0894318
				c-0.0095139-0.035202-0.0018997-0.0770645,0.0195045-0.1075096c0.0432892-0.0599403,0.1584091-0.220726,11.2289696-0.8334312
				c0.0604134-0.0047569,0.1246338,0.0475693,0.1284409,0.1151199c0.0033264,0.0675507-0.0480461,0.1246338-0.1151237,0.1284409
				c-4.216629,0.2330933-10.5853386,0.6250725-11.0686531,0.76017c-0.0123711,0.0104675-0.0266418,0.0180779-0.0428123,0.0218849
				C42.8441544,60.2386551,42.8332138,60.2405586,42.8222733,60.2405586z"></path>
      </g>
        <g>
        <line x1="43.225" x2="54.353" y1="63.098" y2="62.479" fill="#fff"></line>
            <path d="M43.22472,63.2194099c-0.0642204,0-0.1179771-0.0504265-0.1217804-0.1151199
				c-0.0033302-0.066597,0.0480461-0.1246338,0.1151199-0.1284409l11.1285934-0.618412
				c0.066597-0.008564,0.124157,0.0485191,0.1284409,0.1151199c0.0033302,0.066597-0.0480461,0.1246338-0.1151199,0.128437
				l-11.1285973,0.6184158C43.2290001,63.2194099,43.2270966,63.2194099,43.22472,63.2194099z"></path>
      </g>
        <g>
        <path fill="#fff" d="M31.5338058,70.0671921c0.2810307,0,25.4051704-1.7423935,25.4051704-1.7423935"></path>
            <path d="M31.5338421,70.1894073c-0.0670738,0-0.1217785-0.0542297-0.1217785-0.1217804s0.0542297-0.1217804,0.1213036-0.1217804
				l0,0c0.3344193-0.0037994,25.1466103-1.7248993,25.3968277-1.7429733
				c0.0708809,0.0057068,0.1255875,0.0466156,0.1298676,0.1132202c0.0047569,0.0675507-0.0456696,0.1255798-0.1127434,0.1303406
				C55.9212303,68.5177917,31.8159351,70.1894073,31.5338421,70.1894073z"></path>
      </g>
        <g>
        <line x1="32.321" x2="57.67" y1="74.564" y2="72.709" fill="#fff"></line>
            <path d="M32.3206558,74.6857529c-0.0632706,0-0.1165466-0.0485229-0.1213036-0.1132202
				c-0.0052338-0.066597,0.0451889-0.1246338,0.1122665-0.1303406l25.3487816-1.8552399
				c0.0775375-0.0038071,0.1251106,0.0456696,0.1303406,0.1132202c0.0052338,0.066597-0.0451927,0.1246338-0.1122665,0.1303406
				l-25.3487816,1.8552399C32.3263626,74.6857529,32.3235092,74.6857529,32.3206558,74.6857529z"></path>
      </g>
        <g>
        <g>
          <path fill="#ff9a32" d="M50.6692429,45.8694725c0.5615387,2.1666069-0.223896,4.2523232-1.9115486,5.7433548l0.8840866,3.4110832
					l-2.8910103-2.1130867c-0.9151154,0.431015-1.964447,0.7302094-3.1060562,0.8649864
					c-4.8569717,0.5734062-9.6004372-2.031414-10.5842972-5.8274651c-0.9838753-3.7961082,2.1654549-7.3419762,7.0224266-7.9153824
					C44.9492645,39.4584389,49.6853676,42.0733681,50.6692429,45.8694725z"></path>
        </g>
            <g>
          <g>
            <path d="M37.0077553,48.079689c-0.0261612-0.1084595-0.0413857-0.2340469-0.0461426-0.374855
						c-0.0042801-0.1408081,0.0133209-0.2787628,0.0532799-0.4157639c0.0547066-0.1902809,0.1213036-0.374855,0.2012215-0.5546684
						c0.078968-0.1807671,0.1650696-0.3472633,0.2568817-0.5023422c0.0922852-0.154129,0.1874237-0.2930336,0.287323-0.4157677
						c0.0998955-0.1217766,0.1988449-0.2197723,0.2977905-0.2930298l-0.0023804,0.0028534
						c0.061367-0.0485229,0.1260643-0.0989456,0.1945648-0.1522255c0.0685005-0.0542297,0.1398544-0.1027527,0.2140656-0.1493721
						c0.0742111-0.0447159,0.1512718-0.0846748,0.2302399-0.1179733c0.0794411-0.0323486,0.1617393-0.0542297,0.2449875-0.0627937
						c0.0851517-0.0085602,0.1698265,0,0.2549744,0.0237846c0.0851517,0.0247383,0.1622162,0.0608902,0.2340469,0.1103668
						c0.0708809,0.0494728,0.1327209,0.1094093,0.1826706,0.1788635c0.0513763,0.0694504,0.0870552,0.145565,0.1070328,0.2283363
						c0.0137978,0.0580368,0.0209312,0.1037025,0.0218811,0.1379547c0.0004768,0.0332985-0.0042801,0.0589867-0.0161705,0.0770645
						c-0.0109444,0.0190277-0.0275917,0.031395-0.0499496,0.0371017c-0.0223579,0.0066605-0.0489998,0.0114174-0.0794449,0.0142708
						c-0.0447159,0.0047607-0.0818176-0.0009499-0.1117897-0.0161705c-0.0294914-0.0152245-0.0551796-0.035202-0.075634-0.0589905
						c-0.0218849-0.022831-0.039959-0.0504227-0.0561333-0.0799179c-0.0157013-0.031395-0.0318718-0.058033-0.0489998-0.0818176
						c-0.0171242-0.0247383-0.0361519-0.0447159-0.058033-0.0608902c-0.0214081-0.0161743-0.0480461-0.0218849-0.0784912-0.0190277
						c-0.0808716,0.0085602-0.1645927,0.0342484-0.2511711,0.0780144c-0.0865784,0.0428123-0.17173,0.0979958-0.2573586,0.1645927
						c-0.0846748,0.0656471-0.1674461,0.1398544-0.2487907,0.2216759c-0.0808678,0.0827751-0.1574593,0.1664963-0.2288132,0.2502213
						c-0.0718307,0.083725-0.1360512,0.1655426-0.1955147,0.247364c-0.0580368,0.0808716-0.1084595,0.1531792-0.1488953,0.2169228
						c-0.0585098,0.1037025-0.1094093,0.2083549-0.1526985,0.313961c-0.0432892,0.1046562-0.0770645,0.2112122-0.101326,0.3177719
						c-0.0247383,0.1084595-0.0366287,0.2169189-0.0375786,0.327282c-0.0009537,0.110363,0.0133171,0.2235832,0.0409088,0.339653
						c0.0218811,0.0913353,0.0547066,0.1683998,0.0984688,0.2330933c0.0432892,0.0646973,0.0870552,0.1198769,0.1308212,0.1645927
						c0.052803,0.05233,0.1094093,0.0865784,0.1712532,0.1018028c0.0627899,0.0161743,0.133194,0.0199776,0.212162,0.0123672
						c0.1726799-0.0180779,0.3287125-0.0485229,0.467617-0.0932388c0.1393814-0.0456657,0.269722-0.0989456,0.3919792-0.1636391
						c0.1213036-0.0646973,0.238327-0.1389084,0.3491631-0.220726c0.1113167-0.0818214,0.2259598-0.1693535,0.3429832-0.2616386
						l0.078968-0.008564c0.026638-0.0028534,0.0556564,0.0009537,0.0856247,0.0114174
						c0.0309219,0.0114174,0.0589867,0.0256882,0.0861015,0.043766c0.0256882,0.0171242,0.0485229,0.039959,0.0680275,0.0646973
						c0.0199776,0.0256882,0.0328217,0.0513725,0.0394821,0.0789642c0.0147476,0.0627937,0.0033302,0.1265373-0.0347252,0.1931343
						c-0.0385323,0.0656471-0.0922852,0.1303444-0.1612625,0.1950417c-0.0689774,0.0637436-0.1493721,0.1246338-0.2411842,0.1845703
						c-0.0918083,0.0589867-0.1836205,0.1122665-0.2754288,0.1607895c-0.0913353,0.0466194-0.1779137,0.0884781-0.2587852,0.1236801
						c-0.0808678,0.035202-0.1465149,0.0599403-0.1978912,0.075161c-0.0418625,0.0133209-0.0827713,0.0266418-0.1222572,0.039959
						c-0.039959,0.0123711-0.0870514,0.0256882-0.141758,0.039959c-0.0551796,0.0142746-0.1213036,0.0275917-0.1993179,0.0409126
						c-0.0784912,0.0123672-0.1769638,0.0237846-0.2973175,0.0361519c-0.0727806,0.0076141-0.1427078,0.0047569-0.2088318-0.0114174
						c-0.0656471-0.0152206-0.1265373-0.035202-0.1812439-0.0599365c-0.0547066-0.0228348-0.1027489-0.0504265-0.1441383-0.078968
						c-0.040432-0.0275879-0.0737343-0.0532761-0.0998955-0.0732574c-0.1507988-0.1170235-0.2687721-0.2359467-0.3539238-0.3558273
						C37.1038475,48.3651085,37.043911,48.230011,37.0077553,48.079689z"></path>
          </g>
                <g>
            <path d="M40.7591515,48.2604561c0.0746841,0.0161743,0.1512718,0.035202,0.2302399,0.0580368
						c0.0799179,0.022831,0.1612625,0.0437622,0.2445107,0.0627899c0.083725,0.0199814,0.1702995,0.035202,0.2587814,0.0447159
						c0.0884819,0.0104675,0.1807671,0.0095139,0.2763824,0c0.1117897-0.0114174,0.2216797-0.0342484,0.3301392-0.0694504
						c0.1070328-0.0371056,0.2097855-0.0846748,0.3077812-0.1427116c0.0965652-0.0589867,0.1869507-0.1284409,0.2701988-0.2064552
						s0.1555557-0.1674461,0.2169189-0.2654419c0.0685005-0.1046562,0.1241608-0.1997948,0.1664963-0.2835197
						c0.0423393-0.083725,0.0746841-0.1579323,0.0979958-0.2235794c0.0223579-0.0646973,0.0366287-0.1198769,0.0428123-0.1655464
						c0.0057106-0.0447159,0.0047569-0.0837212-0.0028534-0.1160698c-0.0114174-0.0475693-0.0385323-0.0865784-0.0813446-0.1170235
						c-0.0428162-0.0323486-0.0960922-0.0561333-0.1593628-0.0723076c-0.0637436-0.0161743-0.1327209-0.026638-0.2078819-0.0285416
						c-0.075634-0.0028534-0.1536522-0.0009499-0.2326164,0.0066605c-0.0466194,0.0047569-0.101326,0.0123672-0.1636429,0.0218811
						c-0.0618401,0.0095139-0.1255875,0.0180779-0.1902809,0.0275917c-0.0637436,0.0095139-0.1265373,0.0180779-0.1869507,0.0256882
						c-0.0604172,0.008564-0.1132202,0.0142708-0.1579361,0.0190277c-0.066597,0.0066605-0.1379509,0.0076103-0.2135887,0.0009499
						c-0.075161-0.0076103-0.1512756-0.022831-0.2283363-0.0485191c-0.0765877-0.0237846-0.1507988-0.0618439-0.2231064-0.1094131
						c-0.0718307-0.0485229-0.136528-0.1113129-0.194561-0.1883774c-0.0180779-0.0247383-0.0371056-0.0551834-0.0556602-0.0894318
						c-0.0190277-0.0342522-0.0328217-0.0713577-0.0428123-0.1132164c-0.0109406-0.0456696-0.017601-0.0884819-0.0204544-0.1293945
						c-0.0023766-0.0409088-0.0033302-0.0808678-0.0019035-0.1189232c0.0061836-0.0970459,0.0299683-0.1969414,0.0732574-0.2996941
						c0.0428162-0.1037025,0.0994225-0.2064552,0.1698265-0.3073044c0.0704041-0.101799,0.1498489-0.2016983,0.237854-0.2977905
						c0.0880051-0.0979919,0.1798134-0.1902809,0.2763824-0.2778091s0.1931343-0.1674461,0.2892265-0.2397537
						c0.0956154-0.0723076,0.1864777-0.1351013,0.2716255-0.1874275c0.1198769-0.0742111,0.2459412-0.1312943,0.3786621-0.1722031
						c0.1322441-0.0418625,0.2668686-0.0685043,0.4029198-0.0827751c0.0813446-0.0085602,0.1607857-0.0066605,0.2388039,0.0057106
						c0.0780144,0.0123672,0.1488914,0.0342484,0.2140656,0.0656471c0.0646935,0.0323448,0.1203537,0.0742073,0.1655426,0.1265373
						c0.0461426,0.0523262,0.0775414,0.1132164,0.0946655,0.1845703c0.0099907,0.0418625,0.0128441,0.0761147,0.0095139,0.1065598
						c-0.0033302,0.0285416-0.0109406,0.0523262-0.0233078,0.0723038c-0.0114174,0.0199814-0.0266418,0.0333023-0.043766,0.0428162
						c-0.017601,0.0104637-0.0366287,0.0161743-0.0566101,0.018074c-0.0551796,0.0057106-0.1065559,0.0038071-0.1555519-0.0018997
						c-0.0475731-0.0066605-0.0951424-0.0152245-0.1412849-0.0247383s-0.0918121-0.0180779-0.1374779-0.0256882
						c-0.0456696-0.008564-0.0937157-0.0095139-0.1441383-0.0038071c-0.1507988,0.0152245-0.2968369,0.0580368-0.4390755,0.1293945
						c-0.141758,0.0704041-0.2763824,0.1560287-0.4033928,0.2568779c-0.1270142,0.0998993-0.243084,0.2093086-0.34869,0.327282
						c-0.1060829,0.118927-0.1983681,0.2330971-0.2782898,0.3425064c-0.0428123,0.0589905-0.0699272,0.1160736-0.0827713,0.1703033
						s-0.0137939,0.1056061-0.0028534,0.1522255c0.0171242,0.0704041,0.0627937,0.1208267,0.137001,0.1541252
						c0.074688,0.0323486,0.158886,0.0447197,0.2521248,0.035202c0.0542297-0.0057068,0.1165466-0.0123672,0.1850471-0.0218811
						c0.0685005-0.008564,0.1384315-0.0190277,0.2097855-0.0285416c0.0718307-0.0104637,0.1408081-0.0209312,0.2083588-0.0294952
						c0.0675507-0.0104637,0.1274872-0.018074,0.1802902-0.0237846c0.1260605-0.0123672,0.2506943-0.0076103,0.3743782,0.0133209
						s0.2378502,0.0580368,0.3425064,0.1132164c0.1046562,0.0542297,0.1950378,0.127491,0.2721024,0.2159691
						c0.0761108,0.0894318,0.1293907,0.1950378,0.158886,0.3177719c0.018074,0.0742073,0.0237846,0.1522217,0.018074,0.2311897
						c-0.0066605,0.078968-0.0214043,0.1598358-0.0456657,0.2426071c-0.0237846,0.0818214-0.0542297,0.1636429-0.0903854,0.2454643
						c-0.0371017,0.0808678-0.0770607,0.1617393-0.1198769,0.2407074c-0.0789642,0.1427078-0.1712532,0.278759-0.278286,0.4091034
						c-0.1075096,0.1293907-0.2269096,0.2464142-0.3586807,0.3472633c-0.1317673,0.101799-0.2763824,0.1864738-0.4333649,0.2549744
						c-0.1579323,0.0675507-0.3263321,0.110363-0.5042458,0.1284409c-0.0770607,0.0076103-0.1584091,0.0095139-0.2421303,0.0047569
						c-0.0846748-0.0047569-0.1698265-0.0161743-0.2549782-0.0332985c-0.0851517-0.0180779-0.1674461-0.0418625-0.246891-0.0732574
						c-0.0789642-0.0304451-0.1512718-0.0685005-0.2159691-0.1113167c-0.0642166-0.0437622-0.1189232-0.093235-0.1650658-0.1493683
						c-0.0451927-0.0561333-0.0765915-0.1179771-0.0932388-0.1874275c-0.0080872-0.0342522-0.0099907-0.0675507-0.0066605-0.0989456
						C40.6896973,48.2842407,40.7139587,48.265213,40.7591515,48.2604561z"></path>
          </g>
                <g>
            <path d="M44.576664,47.8732338c0.0751648,0.0161743,0.1517525,0.035202,0.2307167,0.0580368
						c0.0794449,0.022831,0.1612625,0.0437622,0.2445107,0.0627899c0.083725,0.0199814,0.1703033,0.0342522,0.2587852,0.0447159
						c0.0884781,0.0095139,0.1807671,0.0095139,0.2763824,0c0.1117897-0.0114136,0.2216759-0.0342484,0.3296623-0.0694504
						c0.1075096-0.0371056,0.2102585-0.0846748,0.3082542-0.1427116c0.0965691-0.0589867,0.1869507-0.1284409,0.2701988-0.2064552
						c0.0827751-0.0780144,0.1550789-0.1674461,0.2169228-0.2654419c0.0685005-0.1046562,0.124157-0.1997948,0.1664963-0.2835197
						c0.0418625-0.083725,0.0746841-0.1579323,0.0970421-0.2235794c0.0233078-0.0646973,0.0375824-0.1198769,0.043766-0.1655464
						c0.0052299-0.0447159,0.0042801-0.0837212-0.0038071-0.1160698c-0.0109406-0.0475693-0.0375786-0.0865784-0.0803947-0.1170235
						c-0.0432892-0.0323486-0.0960922-0.0561333-0.159359-0.0723076c-0.0637436-0.0161743-0.1327209-0.026638-0.2078819-0.0294914
						c-0.0761147-0.0019035-0.1536522,0-0.2326202,0.0076103c-0.0466194,0.0047569-0.1013222,0.0123672-0.1636391,0.0218811
						c-0.0623207,0.0095139-0.1255875,0.0180779-0.1902847,0.0275917c-0.0637436,0.0095139-0.1265335,0.0171242-0.1869507,0.0256882
						c-0.0604134,0.0076103-0.1132164,0.0142708-0.1579323,0.0190277c-0.0670738,0.0066605-0.1379547,0.0066605-0.2135887,0.0009499
						c-0.075161-0.0076103-0.1517525-0.022831-0.2283401-0.0485191c-0.0765877-0.0237846-0.150795-0.0618439-0.2231026-0.1094131
						c-0.0718307-0.0494728-0.1370049-0.1113129-0.1945648-0.1883774c-0.018074-0.0247383-0.0371017-0.0551834-0.0556564-0.0894318
						c-0.0190277-0.035202-0.0337753-0.0723076-0.0432892-0.1141701c-0.0109406-0.0447159-0.017601-0.0875282-0.0199776-0.1284409
						c-0.0023804-0.0409088-0.0033302-0.0808678-0.0019035-0.1189232c0.0061836-0.0979958,0.0299683-0.1978951,0.0732574-0.3006439
						c0.0428123-0.1037025,0.0994225-0.2064552,0.1698265-0.3063545c0.0704041-0.101799,0.1498451-0.2016983,0.2378502-0.2987404
						c0.087532-0.0970421,0.1798172-0.1893311,0.2763824-0.2768593c0.0965691-0.0875282,0.1926613-0.1674461,0.2887535-0.2397537
						s0.1869507-0.1351013,0.2721024-0.1874275c0.1198769-0.0742111,0.2459373-0.1312943,0.3786583-0.1731567
						c0.1322479-0.0409088,0.2668686-0.0685005,0.4029198-0.0818214c0.0813484-0.0085602,0.1607895-0.0066605,0.2388039,0.0057106
						c0.0780144,0.0123672,0.1488953,0.0342484,0.2135925,0.0656471c0.0651703,0.0323448,0.1203499,0.0742073,0.1660194,0.1265373
						c0.0461426,0.0513763,0.0775375,0.1132164,0.0946655,0.1845703c0.0099869,0.0418625,0.0128441,0.0761147,0.0095139,0.1056061
						c-0.0033302,0.0285416-0.0109406,0.0532799-0.0233116,0.0732574c-0.0118904,0.0199814-0.0271149,0.0333023-0.0437622,0.0428162
						c-0.017601,0.0104637-0.0366287,0.0161743-0.0570869,0.018074c-0.0547028,0.0057106-0.1065559,0.0038071-0.1550789-0.0018997
						c-0.0485191-0.0066605-0.0951385-0.0152245-0.141758-0.0247383c-0.0456696-0.0095139-0.0913353-0.0180779-0.137001-0.0256882
						c-0.0456696-0.008564-0.0937157-0.0095139-0.1446152-0.0047569c-0.150322,0.0152245-0.2963638,0.0589867-0.4385986,0.1303444
						c-0.141758,0.0704041-0.2763824,0.1560287-0.4033966,0.2568779c-0.1270103,0.0998993-0.243084,0.2093086-0.34869,0.327282
						c-0.1060829,0.118927-0.1988449,0.2330971-0.2787628,0.3425064c-0.0423355,0.0589905-0.0699272,0.1151199-0.0822945,0.1703033
						c-0.0128441,0.0542297-0.0137978,0.1056061-0.0028534,0.1522255c0.0171242,0.0704041,0.0627899,0.1208267,0.137001,0.1541252
						c0.0742111,0.0323486,0.158886,0.043766,0.252121,0.0342522c0.0542297-0.0047569,0.1160736-0.0114174,0.185051-0.0209312
						c0.0685005-0.0085602,0.1384277-0.0190277,0.2097855-0.0285416c0.0713539-0.0104637,0.1408081-0.0209312,0.2083549-0.0294952
						c0.0675507-0.0104637,0.127491-0.018074,0.180294-0.0237846c0.1260605-0.0123672,0.2502174-0.0076103,0.3743782,0.0133209
						c0.1236801,0.0209312,0.2378502,0.0580368,0.3425064,0.1132164c0.1046524,0.0542297,0.1950378,0.127491,0.2711487,0.2159691
						c0.0770645,0.0894318,0.1303444,0.1950378,0.1598358,0.3177719c0.0180779,0.0742073,0.0237846,0.1522217,0.0180779,0.2311897
						c-0.0066605,0.078968-0.0214081,0.1598358-0.0456696,0.2416573c-0.0237846,0.0827713-0.0542297,0.1645927-0.0903816,0.2464142
						c-0.0371056,0.0808678-0.0770645,0.1617393-0.1198769,0.2407074c-0.078968,0.1427078-0.1712532,0.278759-0.278286,0.4091034
						c-0.1075096,0.1293907-0.2269096,0.2454605-0.3586807,0.3472633c-0.1317711,0.101799-0.2763824,0.1864738-0.4338417,0.2549744
						c-0.1574554,0.0675507-0.3258553,0.110363-0.5037689,0.1284409c-0.0770645,0.0076103-0.1584091,0.0095139-0.2421341,0.0047569
						c-0.0851479-0.0047569-0.1698227-0.0161743-0.2549744-0.0332985c-0.0851517-0.0180779-0.16745-0.0418625-0.246891-0.0732574
						c-0.0794411-0.0304451-0.1512718-0.0685005-0.2159691-0.1122665c-0.0642204-0.0428123-0.118927-0.0922852-0.1650696-0.1484184
						c-0.0456657-0.0561333-0.0770645-0.118927-0.0937119-0.1883774c-0.0080872-0.0342522-0.0104675-0.0666008-0.0061836-0.0979958
						C44.5076904,47.8960686,44.5319481,47.8779907,44.576664,47.8732338z"></path>
          </g>
        </g>
      </g>
        <g>
        <path fill="#31cdfe" d="M97.3821182,46.2926674c0.0371933,2.7359161-1.7824783,5.207489-4.6563568,6.8101463
				c-0.1910172,1.9137421-0.3806152,3.9578094-0.2934875,3.9710312c-0.0005875-0.0433807-1.7707748-1.3947754-3.2924347-2.5613251
				c-1.2554169,0.3211403-2.5993805,0.4986496-4.003479,0.5177345c-6.8179626,0.0926781-12.4143829-3.6679497-12.4787292-8.4015083
				c-0.0641479-4.7190666,5.4279938-8.6305084,12.2459564-8.7231865
				C91.7360382,37.8126869,97.3179779,41.5736008,97.3821182,46.2926674z"></path>
      </g>
        <g>
        <g>
          <path d="M78.7430801,47.3708916c0.5346909,0.2359467,1.0926895,0.4671402,1.673996,0.6945267
					c0.5817871,0.2264328,0.9499817,0.3586807,1.1045837,0.3967361c0.1227264,0.022831,0.1893311,0.1151199,0.2012177,0.2778091
					c0.0095139,0.1293907-0.0133133,0.2378502-0.0684967,0.3206253c-0.0561371,0.0856247-0.1408081,0.1322441-0.2549744,0.1408081
					c-0.0922928,0.0066605-0.2787628-0.043766-0.5589523-0.1493721l-0.9371338-0.3691444l-1.2744141-0.5242271
					c-0.5051956-0.2102585-0.7901382-0.3339424-0.8562622-0.371048c-0.066124-0.0371017-0.1136932-0.0808678-0.1422348-0.1312943
					c-0.0285416-0.0504227-0.0461426-0.1208267-0.052803-0.2093086c-0.0071335-0.0989456,0.0042801-0.1807671,0.0337753-0.2445107
					s0.0775375-0.1198769,0.1450882-0.1683998c0.0685043-0.0485191,0.3001709-0.1722031,0.6978531-0.3719978l1.5194016-0.7535133
					c0.610321-0.3006439,1.0736618-0.5223236,1.3914261-0.6650352c0.3172989-0.1427078,0.5242233-0.2169189,0.6193695-0.2245293
					c0.0899048-0.0057106,0.1650696,0.0332985,0.2250061,0.1208267c0.0608902,0.0865784,0.0960922,0.1921844,0.1051254,0.3149147
					c0.0118942,0.1636429-0.115593,0.3025475-0.3834152,0.4176674c-0.2740021,0.1018028-0.7573166,0.313015-1.4489899,0.6393471
					C79.7905731,46.8362007,79.2111664,47.1225739,78.7430801,47.3708916z"></path>
        </g>
            <g>
          <path d="M87.7761993,43.6651649c0.0080872,0.1113129-0.1070328,0.2682953-0.3463135,0.4718971
					c-0.8924179,0.9266701-1.7301254,1.9989052-2.5140839,3.2167053c-0.7839584,1.2196999-1.3129425,2.0930901-1.5874252,2.6201706
					c-0.0813446,0.1579323-0.1598358,0.2740059-0.2354736,0.3453598c-0.0742111,0.0713539-0.1783829,0.1132164-0.3111115,0.1227303
					c-0.0979919,0.0066605-0.182663-0.0218811-0.252594-0.0875282c-0.069931-0.066597-0.1079865-0.1493721-0.115593-0.2483177
					c-0.0076141-0.1065559,0.0123672-0.2140656,0.0604095-0.3196716c0.1060867-0.2397537,0.437645-0.8096466,0.9937439-1.7077751
					c0.4052963-0.649807,0.7763443-1.2073326,1.1131439-1.6754227c0.5261307-0.7259254,1.0579681-1.4033241,1.5959854-2.0322037
					c0.5370712-0.6298332,0.8458023-0.962822,0.9252396-0.9999275c0.0789719-0.0371056,0.1774368-0.0599403,0.2944641-0.0685005
					c0.0799179-0.0057106,0.1612625,0.0237846,0.2430801,0.0894318
					C87.7224426,43.4577599,87.7676392,43.5481415,87.7761993,43.6651649z"></path>
        </g>
            <g>
          <path d="M91.0419006,46.3947487c-0.5375443-0.2388039-1.0974426-0.4718971-1.6792297-0.6973801
					c-0.5813065-0.2245331-0.949501-0.3567772-1.1045837-0.3948326c-0.0499496-0.0114174-0.0951385-0.0428162-0.1341476-0.0970459
					c-0.0399628-0.0523262-0.0618439-0.1132164-0.0670776-0.1817169c-0.0095139-0.1284409,0.0133209-0.2359505,0.0689774-0.3225288
					c0.0561371-0.0856247,0.1422348-0.1322441,0.2592621-0.1408081c0.0927582-0.0066566,0.2773361,0.0418625,0.5546722,0.1484222
					l0.9418869,0.3729515l1.2744064,0.5242233c0.5018692,0.2102585,0.7853851,0.3348961,0.8515091,0.3719978
					c0.066124,0.0371056,0.1146469,0.0808716,0.1446152,0.1303444c0.0299683,0.0513763,0.0485229,0.1208267,0.0551834,0.2102623
					c0.0095139,0.1322441-0.0157013,0.2359467-0.0751648,0.3120575c-0.0589828,0.0761147-0.2445068,0.1912346-0.5546646,0.3472633
					l-1.43853,0.7183113c-0.6455307,0.3234787-1.1721268,0.5765533-1.5802841,0.7592239
					c-0.4076767,0.1826706-0.662178,0.2778091-0.7639771,0.2854233c-0.0856247,0.0066566-0.1593628-0.0333023-0.2197723-0.1179771
					c-0.0604172-0.0846748-0.0951462-0.1893272-0.1041794-0.3130112c-0.0123749-0.1655464,0.1136932-0.3054008,0.3781815-0.4186172
					c0.2773361-0.0989494,0.7620773-0.313015,1.4537506-0.6374435C89.9944,46.9294395,90.5738068,46.6430664,91.0419006,46.3947487z
					"></path>
        </g>
      </g>
        <g>
        <path d="M69.2341919,36.9535446c-0.0734253,0.5810623-0.5932083,0.9973335-1.1681442,0.9246826l-1.540947-0.1947174
				c-0.1739502,0.8213959-0.3449097,1.6190491-0.3568878,1.7138634c-0.0164948,0.1305008-0.6134033-0.9690514-1.1149902-1.8998528
				c-0.0196609-0.0024872-0.0393295-0.0049706-0.0589905-0.0074539c-0.2114258-0.0267181-0.4228516-0.0534325-0.6342697-0.0801506
				c-0.3969421-0.0501556-0.7938805-0.1003151-1.1908188-0.1504745c-0.5245247-0.0662804-1.0490532-0.1325607-1.5735779-0.1988411
				c-0.5941925-0.0750809-1.188385-0.1501656-1.7825737-0.2252464c-0.6059303-0.0765686-1.2118645-0.1531372-1.8177948-0.229702
				c-0.5597458-0.0707321-1.1194916-0.1414604-1.6792374-0.2121925c-0.2444496-0.0308876-0.488903-0.061779-0.7333527-0.0926666
				c-0.1102028-0.0139275-0.2204056-0.0278511-0.3306122-0.0417786c-0.1432762-0.0181046-0.3090935-0.0675278-0.451313-0.0373344
				c-0.0630722,0.0133896-0.1174355,0.0529099-0.1649132,0.0965385c-0.0828323,0.0761223-0.1511879,0.1679497-0.2003517,0.2691383
				c-0.0607491,0.1250381-0.1047859,0.2777328-0.2313995,0.3351212c-0.0731049,0.0331345-0.1596375,0.0247574-0.2343102-0.004673
				c-0.0746689-0.0294304-0.1399231-0.078083-0.2041855-0.1261711c-0.2017174-0.150959-0.4034348-0.3019142-0.6051521-0.4528694
				c-0.0696793-0.0521469-0.1403236-0.1052361-0.1929665-0.1745415s-0.0882645-0.158844-0.072113-0.2443657
				c0.0120964-0.3024292,0.0241966-0.6048622,0.036293-0.9072952c0.0067368-0.168457,0.0367012-0.3380699,0.0578728-0.5056152
				c0.0417366-0.3302879,0.0834732-0.6605759,0.1252098-0.9908638c0.0569649-0.4508247,0.1139336-0.9016533,0.1709023-1.352478
				c0.0620232-0.4908371,0.1240463-0.9816723,0.1860695-1.4725094c0.0569038-0.4503231,0.1138077-0.9006443,0.1707115-1.3509674
				c0.0416069-0.3292809,0.0832176-0.6585617,0.1248245-0.9878426c0.01614-0.1277142,0.0322762-0.2554283,0.0484161-0.3831406
				c0.0749245-0.5929337,0.594696-1.0091305,1.1581268-0.9379349c0.0665321,0.0084076,0.1330605,0.0168152,0.1995888,0.0252209
				c0.1864929,0.0235653,0.3729858,0.0471325,0.5594788,0.0706978c0.2869263,0.0362568,0.5738525,0.0725136,0.8607788,0.1087704
				c0.3678322,0.0464802,0.7356644,0.0929585,1.1034966,0.1394386c0.4292068,0.0542374,0.8584175,0.1084728,1.2876244,0.1627083
				c0.4710579,0.0595226,0.942112,0.1190472,1.4131699,0.1785717c0.4933739,0.0623436,0.9867516,0.1246872,1.4801254,0.1870308
				c0.49617,0.0626984,0.9923363,0.1253948,1.4885025,0.1880913c0.4794273,0.0605812,0.9588585,0.1211624,1.438282,0.1817455
				c0.4431686,0.0559978,0.8863297,0.1119976,1.3294907,0.1679974c0.3873672,0.0489483,0.7747345,0.0978966,1.1621017,0.1468449
				c0.3120422,0.0394306,0.6240921,0.0788612,0.9361343,0.1182919c0.217186,0.0274448,0.4343796,0.0548897,0.6515732,0.0823345
				c0.2737198,0.0345879,0.5450974,0.0849743,0.8158798,0.1373482c0.1194153,0.0230961,0.2350464,0.0296116,0.3424454,0.0907803
				c0.2777328,0.1581841,0.4583511,0.4632759,0.5030823,0.775528c0.04142,0.2892284,0.0557556,0.5823307,0.0427551,0.8742218
				c-0.0016861,0.0378437-0.0039215,0.0761852-0.0157623,0.1121693c-0.0494232,0.1502132-0.2045441,0.1635647-0.3111725,0.249321
				c-0.0888672,0.0714703-0.1693268,0.1533833-0.2391968,0.243515c-0.0250702,0.0323353-0.0489426,0.0660038-0.0657349,0.1033154
				c-0.0395355,0.0878601-0.0326614,0.1882973-0.051033,0.2800179c-0.0155563,0.0776215-0.0215912,0.1580391-0.031517,0.2366066
				c-0.0207062,0.1638985-0.04142,0.3277969-0.0621338,0.4916954c-0.0439148,0.3475533-0.0878296,0.6951065-0.131752,1.0426559
				c-0.0847931,0.6710434-0.1695862,1.3420868-0.2543793,2.0131302c-0.0559311,0.4426193-0.1118622,0.8852425-0.1677933,1.3278656
				C69.2499008,36.8292618,69.2420502,36.891407,69.2341919,36.9535446z"></path>
      </g>
        <g>
        <path fill="#66cb00" d="M70.6057587,30.9588833l-0.8751221,6.9254894c-0.0734253,0.5810623-0.5932083,0.9973335-1.1681519,0.9246826
				l-1.5409393-0.1947174c-0.1739578,0.8213921-0.3449097,1.6190453-0.3568954,1.7138634
				c-0.0164871,0.1305008-0.6134033-0.9690514-1.1149826-1.8998528l-11.2228546-1.418148
				c-0.5634308-0.0711937-0.9633293-0.6036758-0.889904-1.1847382l0.8751221-6.9254913
				c0.0749245-0.5929337,0.594696-1.0091286,1.1581268-0.937933l14.2356758,1.7988529
				C70.280777,29.8335419,70.6806793,30.3659515,70.6057587,30.9588833z"></path>
      </g>
        <g>
        <g>
          <path d="M55.8945885,33.338604c0.0242615,0.0038071,0.0413895,0.0161743,0.0532799,0.0371056
					c0.0114174,0.0209312,0.0185547,0.0447159,0.0223579,0.0732574c0.0033302,0.0285454,0.0038071,0.0580368,0.0014267,0.0903854
					c-0.0023766,0.031395-0.0061836,0.0608902-0.0099907,0.0875282l-0.0128403,0.0856285
					c0.0237846,0.0542297,0.0556564,0.1141663,0.0960884,0.1788635c0.0404358,0.0646973,0.087532,0.1274872,0.1431885,0.1874275
					c0.0551796,0.0599365,0.1179733,0.1122665,0.1869507,0.1569824s0.145565,0.0742073,0.22929,0.0865784
					c0.0903816,0.0133171,0.1779137,0.0047569,0.2625885-0.0256882c0.0856247-0.0294952,0.1669693-0.075161,0.2445107-0.1341515
					c0.0784912-0.0589867,0.1522255-0.1303406,0.2231026-0.2112083c0.069931-0.0818214,0.1360512-0.16745,0.1959915-0.2578316
					c0.0604134-0.0884819,0.1151199-0.1788673,0.1645927-0.2701988c0.0499496-0.0903854,0.0937119-0.1741104,0.1312943-0.2511711
					c0.0380554-0.0780182,0.0685005-0.1446152,0.092762-0.2016983c0.0237846-0.0570869,0.0404358-0.0960922,0.0499496-0.1179771
					c0.0627899-0.1531754,0.1189232-0.2996902,0.1688728-0.441452c0.0494728-0.1408081,0.0851517-0.2816162,0.1060829-0.4233742
					c0.0052338-0.0342503-0.0023804-0.0551815-0.0228348-0.0627937l-0.5813103,0.0732594
					c-0.0332985,0.0038052-0.0589867,0.004755-0.0789642,0.0019016c-0.0570831-0.0085621-0.1018028-0.0332985-0.1341476-0.075161
					c-0.0328255-0.0418606-0.0447159-0.0960922-0.0342522-0.163641c0.0099907-0.0675507,0.0247383-0.1208286,0.043766-0.1607876
					c0.0185509-0.0390072,0.0437622-0.0675507,0.0746841-0.083725c0.0309219-0.0171242,0.0694542-0.0256863,0.1155968-0.0256863
					c0.0456657,0,0.1008492,0.0047569,0.1655426,0.0142708l0.0313988,0.0047569
					c0.0371056-0.0019035,0.0846748-0.0057087,0.1431847-0.0104656c0.05756-0.0047569,0.1227341-0.0114174,0.1945648-0.0180759
					c0.0718307-0.0066605,0.1479416-0.0142727,0.2292862-0.0228348c0.0803947-0.0076103,0.1622162-0.0161743,0.2449875-0.0247364
					s0.1650696-0.0171261,0.2459373-0.0237846c0.0822983-0.008564,0.158886-0.0152225,0.2302437-0.0209312
					c0.0047569-0.0009518,0.0199776-0.0028553,0.0466156-0.0047569c0.026165-0.0019035,0.0556602-0.0038052,0.0884819-0.0057087
					c0.0323486-0.0028534,0.0627937-0.0038052,0.0922852-0.0057087c0.0294952-0.0019035,0.0485229-0.0019035,0.05756-0.0009518
					c0.0185547,0.0028553,0.0337753,0.0104656,0.0475731,0.0228348c0.0133171,0.013319,0.0237846,0.0285416,0.0309181,0.0456676
					c0.0076141,0.0171242,0.0128441,0.0361519,0.0152245,0.0570831c0.0028534,0.021883,0.0033302,0.0409107,0.0009499,0.0589886
					c-0.0071335,0.0447159-0.0299683,0.0818195-0.0694504,0.1094112c-0.039959,0.0275898-0.087532,0.0494728-0.1436653,0.0665989
					c-0.0561295,0.0171242-0.1170197,0.0304432-0.1817169,0.0390072c-0.0656471,0.0095139-0.1260605,0.0180759-0.1821938,0.026638
					c-0.0566101,0.008564-0.1051292,0.0180779-0.1460419,0.0275917c-0.039959,0.0104656-0.0646935,0.0247364-0.0713539,0.0437641
					c-0.017601,0.0646954-0.0361557,0.1370029-0.0561333,0.2169209c-0.0199814,0.0799179-0.039959,0.1560326-0.0594635,0.2283363
					c-0.0057068,0.017128-0.0185509,0.0599403-0.0385323,0.127491c-0.0204544,0.0675468-0.0466194,0.1493683-0.0784912,0.2454605
					c-0.0328217,0.0970459-0.0699272,0.2016983-0.1117897,0.3158684c-0.0428123,0.1132164-0.0884819,0.2254829-0.137001,0.3339424
					c-0.0532799,0.1198769-0.1184502,0.2454643-0.1959915,0.3786583c-0.0770645,0.1322479-0.1645927,0.2597351-0.2616348,0.3815155
					c-0.0979958,0.1217804-0.2040787,0.2330933-0.3187218,0.3348961c-0.1151199,0.101799-0.2349968,0.1807671-0.3605843,0.2388
					c-0.0290184,0.0133209-0.0627899,0.0247383-0.1022758,0.035202c-0.0380554,0.0114174-0.0794411,0.0190277-0.124157,0.0256882
					c-0.044239,0.0047569-0.0908585,0.0076141-0.1389046,0.008564c-0.0485229,0-0.0960922-0.0028534-0.1422348-0.0095139
					c-0.0780182-0.0123672-0.1607895-0.0361557-0.2483177-0.0694542c-0.0880051-0.035202-0.1745834-0.0789642-0.2602119-0.1322441
					c-0.0856247-0.0523262-0.1664925-0.1122665-0.243084-0.1798172c-0.0765877-0.0675468-0.1422348-0.1398544-0.1983681-0.2159691
					c-0.0561333-0.0770607-0.0979919-0.1560287-0.1251068-0.2388c-0.0280685-0.0827751-0.035202-0.1655464-0.0223579-0.2492714
					c0.0095139-0.0646935,0.0247345-0.1189232,0.0437622-0.1636391c0.0199814-0.0447159,0.0466194-0.078968,0.078968-0.1037064
					c0.0328217-0.0237846,0.0732574-0.0390053,0.1232071-0.0456657
					C55.768528,33.3262367,55.8270416,33.3281403,55.8945885,33.338604z"></path>
        </g>
            <g>
          <path d="M60.6806374,35.1282005c-0.031395-0.0047569-0.0580368-0.0152245-0.0803947-0.0304451
					c-0.0218811-0.0152245-0.0394821-0.0342522-0.0518494-0.0561333c-0.0133209-0.0218811-0.0218849-0.0456657-0.026165-0.0732574
					c-0.0042801-0.0266418-0.0047569-0.0523262-0.0004768-0.0780144c0.0028534-0.0218849,0.0137978-0.05233,0.0313988-0.0913353
					c0.018074-0.0371056,0.040432-0.0799179,0.0661201-0.1265373c0.0266418-0.0456696,0.0547066-0.0941887,0.0856285-0.145565
					c0.0309181-0.0504265,0.0604134-0.0989456,0.0880051-0.145565c0.0290184-0.0456696,0.0532761-0.0884819,0.075161-0.1293907
					c0.0214043-0.0390091,0.0361519-0.0704041,0.0461426-0.0941925c0.0099907-0.0256844,0.0228348-0.0561295,0.0375786-0.093235
					c0.0142746-0.035202,0.0304451-0.0742111,0.0485229-0.1170235s0.0356789-0.0875282,0.0542297-0.1351013
					c0.0190277-0.0466194,0.0380554-0.0941887,0.0570869-0.141758c-0.0209312,0.0009499-0.0475731,0.0009499-0.0794449,0
					c-0.0309181-0.0009499-0.0637436-0.0019035-0.0989456-0.0038071c-0.0499496-0.0038033-0.0994225-0.0038033-0.1488953-0.0018997
					c-0.0499496,0.0018997-0.1008492,0.0047569-0.1526985,0.0085602c-0.0518532,0.0028534-0.1051331,0.0076103-0.1612663,0.0123672
					s-0.1160698,0.008564-0.1793404,0.0133209c-0.092762,0.0057106-0.185997,0.0133209-0.2792358,0.0237846
					c-0.0937119,0.0104675-0.1898041,0.008564-0.287323-0.0057068c-0.0299721-0.0047569-0.0556602-0.0161743-0.0794449-0.0361557
					c-0.022831-0.0199776-0.0494728-0.035202-0.0799179-0.0475693c-0.0375786,0.043766-0.0737343,0.0903854-0.1089363,0.1408081
					c-0.035202,0.0513763-0.0680237,0.1037025-0.0998955,0.1579323c-0.0304451,0.0542336-0.0599403,0.1084633-0.0856285,0.1617393
					c-0.026638,0.0532799-0.0508995,0.1037025-0.0713539,0.1512756c-0.0114174,0.026638-0.0233116,0.0599365-0.035202,0.101799
					c-0.0114174,0.0418625-0.0233116,0.0846748-0.0342522,0.1284409c-0.0109406,0.0437622-0.0214043,0.0846748-0.0323486,0.1246338
					c-0.0104637,0.039959-0.0199776,0.0713539-0.0280647,0.0951385c-0.0080872,0.0218849-0.0204544,0.0428162-0.0371056,0.0618439
					c-0.0166473,0.0199776-0.0366287,0.0371056-0.0585098,0.0523262c-0.0223579,0.0152245-0.0461426,0.026638-0.0723076,0.0342522
					c-0.0252113,0.0076103-0.0499496,0.0095139-0.0742111,0.0057068c-0.0418587-0.0057068-0.0742073-0.0237846-0.0960922-0.0523262
					c-0.022831-0.0285416-0.0390053-0.0627937-0.0494728-0.1018028c-0.0104637-0.0390053-0.0152206-0.0808678-0.0147438-0.1255836
					c0.0009499-0.043766,0.0033264-0.083725,0.009037-0.1198769c0.0137939-0.0913353,0.0394821-0.185524,0.0765877-0.2797127
					c0.0375824-0.0941887,0.0822983-0.1902809,0.136528-0.2854233c0.0532761-0.0960922,0.1136932-0.1912308,0.1807671-0.2854195
					c0.0675507-0.0951424,0.1379509-0.1893311,0.2135887-0.2816162c0.0632706-0.0846786,0.1408081-0.1807671,0.2326202-0.2901802
					c0.0913353-0.1084595,0.1921844-0.2197762,0.3015938-0.3329926c0.10989-0.1132164,0.2264366-0.2216759,0.3510704-0.3282356
					c0.1236839-0.1046524,0.2497444-0.1969414,0.3781853-0.2749557c0.127964-0.0780144,0.2564011-0.1370029,0.3853188-0.1779118
					c0.1289139-0.039959,0.2525978-0.0513763,0.371048-0.0333004c0.124157,0.0180779,0.2250061,0.057085,0.3011208,0.1141682
					c0.0765877,0.057085,0.1336708,0.1274891,0.1717262,0.2121639c0.0380554,0.083725,0.0594635,0.1788635,0.0646973,0.2835197
					c0.0047569,0.1046524-0.0014267,0.2140656-0.0185547,0.3282356c-0.0152206,0.1008492-0.0375786,0.203598-0.0661201,0.3073044
					c-0.0285416,0.1046524-0.0599403,0.2064552-0.0937157,0.3063507c-0.0342484,0.0979958-0.0694504,0.1931343-0.1056061,0.2844696
					c-0.035675,0.092289-0.0685005,0.1741104-0.0979919,0.2483177l-0.1246376,0.2939835
					c-0.0047569,0.008564-0.0133171,0.0256882-0.0247345,0.0504265c-0.0128441,0.026638-0.0280685,0.0570831-0.0466194,0.0932388
					c-0.0180779,0.0371017-0.0390091,0.0761108-0.061367,0.1179733c-0.0218811,0.0418625-0.0447159,0.0827713-0.0670738,0.1236839
					c-0.0218811,0.039959-0.0428123,0.0770607-0.0623169,0.1113129c-0.0195045,0.0332985-0.0366287,0.0608902-0.0508995,0.0818214
					l0.0028534-0.0019035c-0.0156975,0.0371056-0.0332985,0.075161-0.0518494,0.1141701
					c-0.017601,0.0380554-0.0394859,0.0723076-0.0656471,0.101799c-0.026165,0.0285416-0.0570869,0.0504265-0.092762,0.066597
					C60.7776794,35.1320076,60.7334404,35.1367645,60.6806374,35.1282005z M61.2196083,32.3291626
					c-0.0675507-0.0095139-0.136528-0.0066566-0.2078819,0.0114174c-0.0708809,0.0180779-0.1422348,0.0447159-0.2131157,0.0799179
					c-0.0708771,0.035202-0.141758,0.0780182-0.2112122,0.1284409c-0.0699272,0.0513763-0.137001,0.1046562-0.2012215,0.158886
					c-0.0642204,0.0551796-0.1251106,0.110363-0.1826706,0.1674461c-0.05756,0.0561333-0.110363,0.1084595-0.1569824,0.1560326
					c-0.0076103,0.0085602-0.0166473,0.0190277-0.0290184,0.0323448c-0.0114136,0.0123711-0.0237846,0.0266418-0.0361519,0.0428162
					c-0.0123672,0.0152206-0.0242615,0.0323448-0.0366287,0.0494728c-0.0118942,0.0171242-0.0214081,0.0332985-0.0294952,0.0466194
					l0.2311935,0.035202c0.084198,0.0123672,0.1812439,0.0209274,0.2906532,0.0247345
					c0.110363,0.0047569,0.2188225,0.0066605,0.3272858,0.0057068c0.1075058,0,0.2078819-0.0028534,0.2987404-0.0057068
					c0.0913353-0.0047569,0.1598358-0.0076103,0.2059784-0.0095139c0.0090408-0.0190277,0.0185547-0.0447159,0.0290184-0.0770645
					c0.0099907-0.031395,0.0209312-0.0685005,0.0304451-0.1075096c0.0109406-0.039959,0.0209312-0.0827713,0.0304451-0.128437
					c0.009037-0.0447159,0.0171242-0.0913353,0.0242615-0.1398582c0.0057068-0.0390091,0.0109406-0.083725,0.0152206-0.1341476
					c0.0047569-0.0504265,0.0033302-0.0998993-0.0052299-0.1474686c-0.008564-0.0466194-0.0247383-0.0884819-0.0513763-0.1236839
					C61.3157005,32.3596077,61.2747917,32.3377266,61.2196083,32.3291626z"></path>
        </g>
            <g>
          <path d="M62.6847725,32.8010597c0.0057106-0.0361519,0.008564-0.0685005,0.0090408-0.0970421
					c0-0.0275917,0.000473-0.0551796-0.0009537-0.0799179c0-0.0256882-0.000473-0.0513763-0.0009499-0.075161
					c0-0.0247345,0.0019035-0.0513763,0.0066605-0.0799179c0.0052299-0.0371056,0.0142708-0.0732574,0.0261612-0.1075096
					c0.0118942-0.0342484,0.0280685-0.0637436,0.0480461-0.0894318c0.0199814-0.0256882,0.0447159-0.0447159,0.0737343-0.0580368
					c0.0299683-0.0123672,0.0656471-0.0161743,0.1075096-0.0095139c0.0599403,0.008564,0.1060829,0.0285416,0.1379547,0.0599403
					c0.0328217,0.0304451,0.0556564,0.066597,0.0689774,0.110363c0.0137939,0.0418625,0.0199776,0.0894318,0.0190277,0.1408081
					c-0.0009537,0.0513763-0.0052338,0.101799-0.0128441,0.1512718c-0.0061836,0.0428162-0.0204544,0.1094131-0.0423393,0.1997948
					c-0.0218811,0.0903854-0.0480461,0.202652-0.0775375,0.3377495c-0.0294952,0.1360512-0.061367,0.2920837-0.0970459,0.4709473
					c-0.035202,0.1788635-0.0694504,0.3777084-0.1022758,0.5946274c-0.0099869,0.0685005-0.0190277,0.145565-0.0252113,0.2311935
					c-0.0066605,0.0856247-0.0071335,0.1683998-0.0004768,0.247364c0.0066605,0.0799179,0.0218849,0.150322,0.0456696,0.2131157
					c0.0242615,0.0627937,0.0627937,0.1065559,0.1160698,0.1312943c0.1574593-0.1084595,0.3049278-0.22929,0.4424057-0.3615341
					c0.137001-0.1322441,0.2635384-0.2682953,0.3796082-0.4072037c0.1165504-0.1389046,0.2226295-0.2759056,0.3201485-0.4119568
					c0.0965729-0.1351013,0.1840973-0.2597351,0.2625885-0.3720016c0.0746841-0.110363,0.1422348-0.2102585,0.202652-0.2996902
					c0.0604095-0.0903854,0.1146393-0.1731567,0.1641159-0.2502213s0.0932388-0.1493721,0.1312943-0.2159691
					c0.0390091-0.0675507,0.0742111-0.1322441,0.1060791-0.1950378c0.0085678-0.0142708,0.0214081-0.0342522,0.0399628-0.0599403
					c0.0166473-0.026638,0.0423355-0.0485191,0.0756378-0.0646935c0.0432892-0.0228348,0.1075058-0.0275917,0.1931305-0.0152245
					c0.05233,0.008564,0.0894318,0.0256882,0.1094131,0.05233c0.0204544,0.026638,0.0280685,0.0618401,0.0218811,0.1037025
					c-0.0023727,0.0152206-0.0057068,0.0323486-0.0095139,0.0523262c-0.0038071,0.0199814-0.0104599,0.0380554-0.0209274,0.0532799
					c-0.0485229,0.0865784-0.1094131,0.1836205-0.1840973,0.2930336c-0.0746841,0.1094093-0.1527023,0.2254829-0.2340469,0.3482132
					c-0.0775375,0.1151199-0.1569824,0.2330933-0.2397537,0.3529701c-0.0822983,0.1208305-0.1660233,0.2388039-0.2506943,0.3539238
					c-0.0846786,0.1151199-0.1693497,0.2254829-0.2530746,0.3301392c-0.084198,0.1046562-0.1655426,0.1997948-0.2445107,0.2863731
					c-0.0694542,0.0770645-0.1645966,0.1750603-0.2835197,0.2939835c-0.118927,0.1198769-0.2744827,0.260685-0.4661903,0.423378
					c-0.0294914,0.0247345-0.0594635,0.0485191-0.0884819,0.0704041c-0.0304451,0.022831-0.0604134,0.0428123-0.0922852,0.0589867
					c-0.031395,0.0171242-0.0646935,0.0294914-0.0998955,0.0361519c-0.0342522,0.008564-0.0713577,0.0095139-0.110363,0.0028534
					c-0.0599403-0.0085602-0.110363-0.0294914-0.1522255-0.0618401c-0.0409126-0.0323486-0.0761147-0.0694542-0.1056061-0.1132164
					c-0.0294952-0.043766-0.0532799-0.0903854-0.0718307-0.1408081c-0.0185547-0.0504265-0.035202-0.0989456-0.0499496-0.145565
					c-0.0180779-0.0580368-0.0323486-0.1208305-0.0409126-0.1883812c-0.0095139-0.066597-0.0152206-0.1360512-0.0161705-0.2083549
					c-0.0019035-0.0713577,0-0.1427116,0.0047569-0.2169228c0.0047569-0.0742073,0.0128441-0.145565,0.0233078-0.2169189
					c0.0014267-0.008564,0.0057068-0.035202,0.0128441-0.0799179c0.0076103-0.043766,0.0171242-0.0998993,0.0294952-0.1703033
					c0.0118904-0.0685005,0.0252113-0.1474686,0.039959-0.2359467c0.0147438-0.0884819,0.0304451-0.1807671,0.0466156-0.2768593
					c0.0161743-0.0970459,0.0318718-0.1959915,0.0480461-0.2968407s0.0309219-0.1978912,0.0447159-0.2911301L62.6847725,32.8010597z
					"></path>
        </g>
            <g>
          <path d="M66.8619232,36.0586739c-0.031395-0.0047569-0.0585098-0.0152206-0.0803986-0.0304451
					c-0.0218811-0.0161743-0.0394821-0.035202-0.0523224-0.0561333c-0.0128479-0.0218811-0.0214081-0.0466156-0.0261688-0.0742073
					c-0.0042801-0.0256882-0.0042801-0.0523262,0-0.0770645c0.0028534-0.0228348,0.0133209-0.0532799,0.0314026-0.0913353
					c0.018074-0.0380554,0.0399551-0.0799179,0.0661163-0.1265373c0.0266418-0.0466194,0.0547104-0.0951385,0.0856323-0.1465149
					c0.0309143-0.0504265,0.0604095-0.0989456,0.0880051-0.1446152c0.0290146-0.0466194,0.0532761-0.0894318,0.0751572-0.1293907
					c0.0209351-0.039959,0.0361557-0.0713539,0.0461426-0.0941887c0.0099945-0.0256882,0.0228348-0.0570831,0.0371094-0.0932388
					c0.0147476-0.0361519,0.0309143-0.075161,0.048996-0.1179733c0.018074-0.0428123,0.035675-0.0875282,0.0542297-0.1351013
					c0.0190277-0.0466194,0.0380554-0.0941887,0.0570831-0.141758c-0.0209274,0.0019035-0.0475693,0.0019035-0.0794449,0.0009499
					c-0.0309143-0.0009499-0.0642166-0.0018997-0.0994186-0.0047569c-0.0499496-0.0028534-0.0989456-0.0028534-0.1484222-0.0018997
					c-0.0499496,0.0018997-0.1008453,0.0047569-0.1526947,0.0085602c-0.051857,0.0028534-0.1051331,0.0076103-0.1612701,0.0123672
					c-0.0561295,0.0047569-0.116066,0.008564-0.1793365,0.0133209c-0.0927658,0.0057106-0.1864777,0.0142708-0.2797165,0.0237846
					c-0.0932312,0.0114174-0.1893234,0.008564-0.2868423-0.0057068c-0.0299759-0.0047569-0.0561371-0.0161743-0.0794449-0.0361557
					c-0.0228348-0.0199776-0.0499496-0.035202-0.0799179-0.0475693c-0.0375824,0.043766-0.0742111,0.0913353-0.1089401,0.1408081
					c-0.035202,0.0513763-0.0684967,0.1037025-0.0998917,0.1579323c-0.0314026,0.0542336-0.0599442,0.1084633-0.0865784,0.1617393
					c-0.0256882,0.0542297-0.0499496,0.1046562-0.0704041,0.1512756c-0.0114212,0.026638-0.0233154,0.0599365-0.035202,0.101799
					c-0.0114212,0.0418625-0.0233154,0.0846748-0.034256,0.1284409c-0.0114136,0.043766-0.0218811,0.0856247-0.0323486,0.1255836
					c-0.0104599,0.0390091-0.0199738,0.0713577-0.0280609,0.0941925c-0.0080872,0.0218811-0.0204544,0.0428123-0.0375824,0.0627899
					c-0.0161743,0.0190277-0.0361557,0.0361557-0.0580368,0.0513763c-0.0223541,0.0152245-0.0461426,0.026638-0.0723038,0.0342522
					c-0.0252151,0.0076103-0.0504303,0.0095139-0.0742111,0.0066605c-0.0418625-0.0066605-0.0742111-0.0247383-0.0965652-0.05233
					c-0.0223618-0.0294914-0.0394897-0.0627899-0.0490036-0.1027489c-0.0104599-0.0380592-0.0152206-0.0808716-0.01474-0.1246376
					c0.000946-0.0447159,0.0033264-0.0846748,0.0090332-0.1208267c0.0137939-0.0913353,0.0394821-0.1845741,0.0765915-0.2787628
					c0.0371017-0.0951385,0.0822983-0.1902809,0.136528-0.2854195c0.0532761-0.0960922,0.1136932-0.1912346,0.1807632-0.2863731
					c0.0670776-0.0951424,0.1379547-0.1883812,0.2135925-0.2816162c0.0632706-0.0846786,0.1408081-0.1807671,0.2321396-0.2892303
					c0.0918121-0.1094093,0.1926651-0.220726,0.3020706-0.3329926c0.1094131-0.1141663,0.2264404-0.2226257,0.3510742-0.3282318
					c0.1236801-0.1056061,0.2492676-0.1969414,0.3781815-0.2759094c0.1279678-0.0780144,0.2564011-0.137001,0.3848419-0.1779137
					c0.1293945-0.039959,0.2530746-0.0513763,0.3715286-0.0332985c0.1241531,0.0180779,0.2250061,0.0570831,0.3011169,0.1141701
					c0.0765915,0.058033,0.1336746,0.128437,0.17173,0.2131157c0.0380554,0.0827713,0.0594635,0.1779099,0.0642166,0.2825661
					c0.0052338,0.1046562-0.000946,0.2140656-0.018074,0.3282356c-0.0152206,0.1008492-0.0375824,0.2036018-0.066124,0.3073044
					c-0.0290146,0.1046524-0.0599365,0.2064552-0.0941849,0.3063507c-0.0337753,0.0979958-0.0689774,0.194088-0.1051331,0.2854233
					c-0.035675,0.0913353-0.0685043,0.1741066-0.0979919,0.247364l-0.1246414,0.2939835
					c-0.0047531,0.008564-0.0133133,0.0256882-0.0252075,0.0513763c-0.0123672,0.0256882-0.0275955,0.0570869-0.0461426,0.0932388
					c-0.0190277,0.0361519-0.0390091,0.075161-0.0613708,0.1170235c-0.0223541,0.0418625-0.0447159,0.083725-0.06707,0.1236839
					c-0.0218811,0.039959-0.0428162,0.0770607-0.0627899,0.1113129c-0.0190353,0.0332985-0.0361557,0.0608902-0.0504303,0.0818214
					l0.0028534-0.0019035c-0.0161743,0.0371056-0.0332947,0.0761147-0.0518494,0.1141701
					c-0.017601,0.0390053-0.0394821,0.0732574-0.0656433,0.101799c-0.0261688,0.0285416-0.0570908,0.0513763-0.0927658,0.066597
					C66.9589615,36.0624809,66.9147263,36.066288,66.8619232,36.0586739z M67.4004135,33.2596397
					c-0.06707-0.0104675-0.1360474-0.0066605-0.2074051,0.0114174c-0.0708771,0.0171242-0.1422348,0.0437622-0.2131119,0.0789642
					c-0.0713577,0.035202-0.1417618,0.078968-0.2112122,0.1293907c-0.069931,0.0513763-0.137001,0.1037064-0.2016983,0.1579361
					c-0.0637436,0.0551796-0.1246338,0.1113129-0.1821976,0.1674461c-0.0575562,0.0561333-0.1103592,0.1084595-0.1569824,0.1569824
					c-0.0076065,0.0076103-0.0171204,0.0180779-0.0290146,0.031395c-0.0114136,0.0123711-0.0237885,0.0266418-0.0366287,0.0428162
					c-0.0118942,0.0152206-0.0237885,0.0323448-0.0361557,0.0494728c-0.0118942,0.018074-0.0218811,0.0332985-0.0299683,0.0475693
					l0.2316666,0.0342522c0.084198,0.0123672,0.1812439,0.0218811,0.290657,0.0256844
					c0.1103592,0.0047569,0.2188187,0.0057106,0.3272858,0.0047569c0.1075058,0,0.2078781-0.0028534,0.2987366-0.0057068
					c0.0913391-0.0047569,0.1598358-0.0076103,0.2059784-0.0095139c0.0090408-0.0190277,0.0185547-0.043766,0.0290222-0.0761108
					c0.0095139-0.0323486,0.0204544-0.0685043,0.0304413-0.1084633c0.0109406-0.039959,0.0209351-0.0818176,0.0304489-0.1274872
					c0.0090332-0.0456657,0.0171204-0.0922852,0.0242615-0.1398582c0.0057068-0.0390053,0.0109406-0.0846748,0.0152206-0.1350975
					c0.0047531-0.0504265,0.0028534-0.0989456-0.0052338-0.1465187c-0.0085602-0.0475693-0.0247345-0.0884781-0.0518494-0.1236801
					C67.4969864,33.2891312,67.4560776,33.2681999,67.4004135,33.2596397z"></path>
        </g>
      </g>
        <g>
        <g>
          <polygon fill="#ff98cb" points="115.043 64.192 116.448 63.066 114.189 60.572 113.222 61.347"></polygon>
        </g>
            <g>
          <polygon fill="#ff98cb" points="113.354 65.429 114.759 64.303 112.5 61.81 111.533 62.585"></polygon>
        </g>
      </g>
    </g>
  </g>
</svg>
