<svg xmlns="http://www.w3.org/2000/svg" xml:space="preserve" id="css-developer-developing-website" viewBox="0 0 170 170"><g><g><g><polygon points="71.175 116.525 55.283 142.585 61.64 142.585 75.943 117.56"/></g><g><polygon points="34.597 115.115 46.428 142.585 40.817 142.585 29.764 114.98"/></g><g><polygon fill="#fff" points="33.248 115.115 45.079 142.585 39.468 142.585 28.415 114.98"/><path d="M45.079 142.707h-5.61a.12.12 0 0 1-.114-.077l-11.053-27.605a.123.123 0 0 1 .113-.167h.003l4.833.136c.048 0 .09.03.109.073l11.83 27.47a.122.122 0 0 1-.111.17m-5.529-.244h5.344l-11.727-27.227-4.57-.13z"/></g><g><polygon fill="#fff" points="70.417 116.525 54.524 142.585 60.881 142.585 75.184 117.56"/><path d="M60.88 142.707h-6.356a.122.122 0 0 1-.104-.186l15.892-26.06a.12.12 0 0 1 .13-.055l4.768 1.035a.122.122 0 0 1 .08.18l-14.303 25.025a.12.12 0 0 1-.106.06m-6.139-.244h6.069l14.186-24.82-4.52-.981z"/></g><g><path d="M88.214 107.728c-.212-.02-.478.061-.687.088l-14.062 1.792-11.28 1.437-6.069.773c-1.742.222-3.266.737-5.031.717-1.496-.017-2.993-.034-4.485-.14-2.867-.206-5.7-.743-8.564-.989-5.634-.484-11.262.86-16.916.86l-.002.064-.115 3.046c-.028.745.108.904.79.951.777.053 1.556.093 2.334.14l8.462.503 11.73.7 12.858.766 11.839.706 8.677.517 3.371.2.935-.13 2.597-.366 3.951-.555 4.997-.702 5.734-.806 6.164-.866 6.285-.884 6.098-.857 5.604-.787 4.8-.675 3.69-.519 2.27-.319c.14-.02.51-.015.583-.136.12-.198-.039-.913-.048-1.14l-.07-1.647-.052-1.227c-.8.08-1.613.031-2.404-.112-.444-.08-.883-.195-1.331-.247-.804-.092-1.615.021-2.417.132-2.63.363-5.273.697-7.93.722-.879.008-1.764-.017-2.63.135-.816.144-1.594.441-2.383.693-.803.255-1.83.71-2.668.586-.978-.146-1.982-.195-2.967-.292l-5.818-.573-9.984-.982-5.494-.541z"/></g><g><polygon fill="#cb6531" points="88.214 103.661 21.07 112.217 81.064 115.792 134.776 108.243"/></g><g><polyline fill="#ffc69f" points="117.028 77.671 117.762 84.951 109.539 84.667 109.174 77.051"/></g><g><path fill="#ffc69f" d="M120.327 68.197c1.758 4.65-.556 9.712-5.168 11.309-2.066.715-4.36.616-6.366-.212-1.702-.704-3.425-2.032-4.193-3.678-.258.012-.51.087-.767.093-.258.005-.545-.082-.66-.301-.137-.257.012-.559.089-.837.135-.491.169-1.217.05-1.71-.99-4.147 1.142-8.69 5.483-10.193 4.612-1.596 9.775.88 11.532 5.529"/></g><g><ellipse cx="104.704" cy="71.105" rx=".563" ry=".938" transform="rotate(-9.096 104.704 71.105)"/></g><g><path d="M106.475 70.035a.12.12 0 0 1-.111-.073c-.044-.1-.163-.171-.273-.227a3.17 3.17 0 0 0-2.782.003.12.12 0 0 1-.164-.053.12.12 0 0 1 .053-.163 3.37 3.37 0 0 1 3.003-.004c.149.076.31.176.385.347a.12.12 0 0 1-.11.17"/></g><g><path d="M104.569 75.745a.14.14 0 0 1-.07-.02.13.13 0 0 1-.043-.174c.046-.075.13-.092.166-.1q.274-.05.549-.025a.12.12 0 0 1 .11.132c-.007.067-.068.122-.133.11a1.7 1.7 0 0 0-.48.023.12.12 0 0 1-.1.054"/></g><g><path d="M107.174 77.386q-.377 0-.743-.091a.122.122 0 1 1 .058-.236c.308.075.625.1.94.072.163-.014.551-.076.65-.335a.125.125 0 0 1 .157-.07.123.123 0 0 1 .07.157c-.142.373-.596.468-.855.49a3 3 0 0 1-.277.013"/></g><g><path d="M109.83 79.87c-.455 0-.697-.087-.713-.092a.12.12 0 0 1-.072-.156.124.124 0 0 1 .156-.073c.006.002.571.202 1.626-.048a.123.123 0 0 1 .146.091.12.12 0 0 1-.09.147c-.427.1-.78.132-1.054.132"/></g><g><path d="M124.808 66.417c.922 2.223-.446 4.328-1.68 6.126-1.28 1.867-2.703 3.69-4.563 5.057.031-.023-1.938-2.657-2.088-2.848s-.335-.398-.583-.407c.38.014.867-.28 1.172-.461.263-.157.525-.327.709-.566.23-.3.317-.684.323-1.057a2.65 2.65 0 0 0-.868-2.006c-.57-.504-1.4-.737-2.151-.562-.422.098-.803.312-1.177.524l-.604.34-.093.053c-.114-.447-.264-.865-.303-1.32-.052-.601.294-1.685-.397-1.937-.628-.23-2.456.444-3.167.53-2.152.259-4.35.279-6.484-.138-1.94-.379-3.944-1.23-4.899-2.903 1.337.087 2.58-.683 3.525-1.6.944-.918 1.704-2.01 2.723-2.848.974-.802 2.15-1.343 3.355-1.76a20.1 20.1 0 0 1 6.597-1.1c1.202.001 2.426.116 3.53.574s2.082 1.3 2.462 2.4c.368 1.065.418 2.53.438 3.647 1.842.273 3.409.297 4.223 2.262"/></g><g><path d="m116.643 72.117-.018-.001a.123.123 0 0 1-.103-.139c.047-.319-.167-.67-.499-.816-.318-.14-.72-.106-1.051.09a.123.123 0 0 1-.167-.044.12.12 0 0 1 .043-.166c.397-.235.886-.273 1.273-.103.435.192.705.644.642 1.075a.12.12 0 0 1-.12.104"/></g><g><path d="m112.845 118.387-18.779-.298s-8.518-1.09-10.038 11.742c-.102.857.122 11.972.122 11.972l11.34-.71s5.229-8.67 5.845-8.701c.616-.033 12.175-3.248 12.175-3.248z"/></g><g><path fill="#6565ff" d="M107 85.66c-1.899 1.73-3.103 4-4 6.314-1.786 4.604-2.477 9.498-3.02 14.36a264 264 0 0 0-1.217 14.47c-.013.232-.022.48.102.683.153.252.47.373.765.47 5.931 1.947 12.463 1.084 18.687.198.84-.12 1.73-.26 2.367-.778.678-.55.926-1.41 1.134-2.22 1.455-5.66 2.667-11.37 3.926-17.068 1.118-5.065 3.064-10.546.127-15.41-3.465-5.74-14.202-5.268-18.87-1.018"/></g><g><path d="M104.81 120.983q-4.158-.046-8.315-.093c-4.502-.05-9.465-.499-13.84.77-2.747.798-4.973 2.783-6.638 5.05-1.617 2.204-2.15 4.925-2.222 7.608-.02.801.328 8.567.096 8.563 4.29.08 8.624-.27 12.915-.286 0 0 4.996-7.525 5.654-7.56.659-.034 13.019-3.295 13.019-3.295z"/></g><g><path fill="#fff" d="M129.874 140.721c.546-1.032.721-2.529.883-3.634 1.937-13.252.293-26.572 4.903-39.484.553-1.548 1.179-3.127 1.09-4.755-.396-7.294-13.992-3.76-17.823-1.854-.575.286-3.61 1.706-3.61 2.353-3.525 2.96-5.69 7.059-7.125 11.244s-2.216 8.534-3.458 12.77c-.995 3.395-2.31 6.767-4.416 9.724-1.82 2.555-4.304 5.113-7.403 6.344-2.236.888-4.645 1.334-6.963 2.022-.987.293-1.994.65-2.718 1.334-.88.832-.778 1.583-.588 2.588a10 10 0 0 1 .154 1.78c.002.564-.134 1.08-.153 1.642-.001.031.02.076.045.06"/><path d="M82.679 142.977a.14.14 0 0 1-.067-.016c-.062-.035-.089-.11-.087-.17.009-.264.044-.52.077-.766.04-.296.078-.574.076-.87a9.6 9.6 0 0 0-.152-1.758c-.174-.921-.338-1.792.624-2.7.772-.728 1.833-1.085 2.768-1.363.82-.243 1.665-.46 2.481-.669 1.49-.382 3.032-.777 4.472-1.349 2.647-1.052 5.119-3.172 7.348-6.302 1.807-2.537 3.205-5.615 4.398-9.686.512-1.748.954-3.545 1.381-5.283.607-2.474 1.235-5.031 2.08-7.494 1.704-4.972 4.034-8.657 7.123-11.266.087-.467 1.14-1.164 3.474-2.303l.198-.098c2.856-1.42 11.781-3.976 15.904-1.576 1.304.76 2.008 1.948 2.095 3.533.083 1.526-.45 3.009-.968 4.442l-.13.361c-2.927 8.2-3.335 16.735-3.73 24.99-.227 4.743-.461 9.646-1.167 14.472l-.043.3c-.154 1.074-.345 2.412-.852 3.372a.12.12 0 0 1-.165.05.12.12 0 0 1-.05-.164c.487-.922.675-2.236.826-3.292l.044-.303c.703-4.812.937-9.71 1.164-14.448.395-8.271.804-16.824 3.744-25.059l.13-.362c.509-1.41 1.034-2.869.954-4.345-.082-1.499-.746-2.621-1.975-3.337-4.044-2.353-12.85.179-15.672 1.585l-.2.098c-2.908 1.42-3.343 1.953-3.343 2.146a.12.12 0 0 1-.043.093c-3.073 2.581-5.392 6.242-7.088 11.191-.84 2.451-1.468 5.003-2.074 7.472-.427 1.74-.87 3.54-1.383 5.293-1.202 4.098-2.61 7.2-4.433 9.759-2.257 3.169-4.766 5.318-7.458 6.388-1.453.577-3.002.974-4.5 1.358-.815.209-1.657.425-2.473.667-.908.27-1.937.615-2.67 1.305-.823.779-.746 1.448-.551 2.478.102.54.153 1.13.156 1.802.001.314-.04.614-.079.905-.03.228-.062.464-.073.702a.121.121 0 0 1-.01.196.15.15 0 0 1-.081.02"/></g><g><path d="M103.965 136.627a.122.122 0 0 1-.046-.234c2.083-.853 3.953-2.278 5.265-4.011 2.688-3.55 3.53-7.979 4.342-12.26l.075-.392c.8-4.198 1.704-8.44 2.687-12.604.614-2.597 1.237-4.908 2.651-6.896 2.554-3.59 7.43-5.76 14.908-6.636.067-.014.127.04.135.107a.12.12 0 0 1-.107.135c-7.406.866-12.226 3.004-14.737 6.535-1.39 1.953-2.005 4.24-2.613 6.81a295 295 0 0 0-2.685 12.595l-.074.39c-.818 4.31-1.665 8.766-4.388 12.362-1.338 1.769-3.244 3.22-5.367 4.09a.1.1 0 0 1-.046.009"/></g><g><path d="M131.814 62.258c3.135 1.556 5.376 4.774 5.151 8.01-.116 1.674-.841 3.244-1.19 4.885-.35 1.642-.24 3.544 1.038 4.775 1.5 1.443 3.954 1.416 5.923 2.235 1.298.539 2.405 1.478 3.098 2.628.428.711.703 1.547.498 2.324-.128.484-.43.907-.721 1.323-1.962 2.802-4.551 5.896-1.433 8.973 1.3 1.283 3.07 2.058 4.822 2.73-1.67.707-3.47 1.227-5.326 1.246-1.989.02-3.883-.659-5.53-1.73-1.615-1.05-1.86-3.21-1.787-4.985.077-1.899.353-3.948-.632-5.573-1.001-1.654-2.997-2.355-4.819-3.003-1.821-.648-3.797-1.525-4.555-3.303-.764-1.79-.01-3.85.912-5.564s2.049-3.45 2.047-5.397c0-.28-.027-.568-.155-.817-.288-.557-1.458-1.385-1.99-1.754-.85-.59-2.305-.588-3.298-.756-2.841-.48-7.52-3.81-3.716-6.086 3.203-1.916 8.308-1.825 11.663-.16"/></g><g><path fill="#fff" d="M87.5 120.986a.122.122 0 0 1-.001-.244l10.722-.091h.001c.067 0 .121.054.122.12a.12.12 0 0 1-.12.124z"/></g><g><path fill="#fff" d="M78.494 139.52a.12.12 0 0 1-.121-.106c-.651-4.902.045-8.367 2.07-10.298 2.168-2.069 5.125-1.563 5.155-1.558l10.601-.002a.122.122 0 1 1 0 .244H85.576c-.05-.007-2.891-.49-4.968 1.494-1.963 1.876-2.634 5.27-1.993 10.087a.12.12 0 0 1-.105.137z"/></g><g><g><path d="M67.439 108.079c-1.275.031-2.55.112-3.82.26q-.801.094-1.596.233c-.48.085-.883.292-1.38.23-.33-.04-.598-.274-.923-.338a1.5 1.5 0 0 0-.573.019c-.067.013-.139.031-.183.084-.065.078-.041.191-.019.287q.072.3.086.612c.006.14-.018.29.03.423.065.177.236.286.394.371.277.148.584.24.888.319.965.251 1.974.359 2.971.435a40 40 0 0 0 4.09.091c2.33-.058 4.806-.178 7.072-.876.386-.119.983-.274 1.236-.634.125-.177.116-.414.14-.618l.091-.795a1.28 1.28 0 0 0-.85-.263c-.309.021-.611.148-.854.348-.253.21-.32.227-.609.153-.219-.056-.457-.074-.681-.104a26 26 0 0 0-1.613-.16 41 41 0 0 0-3.897-.077"/></g><g><ellipse cx="67.435" cy="108.367" fill="#fff" rx="8.376" ry="1.512" transform="rotate(-1.493 67.435 108.368)"/><path d="M66.283 110.016c-3.582 0-6.512-.432-7.176-1.086a.5.5 0 0 1-.166-.355v-.001c.012-1.059 4.393-1.74 8.509-1.842 4.148-.1 7.57.339 8.313 1.073a.5.5 0 0 1 .167.356c-.012 1.06-4.393 1.74-8.51 1.84q-.577.015-1.137.015m-7.099-1.44q0 .087.094.18c.68.67 4.176 1.101 8.137 1.002 4.865-.12 8.264-.94 8.271-1.6q.001-.086-.094-.18c-.678-.67-4.183-1.1-8.136-1.002-4.865.12-8.264.94-8.272 1.6"/></g><g><path d="m63.984 103.56.44 3.62c-.04.695 4.7.79 4.74.094l-1.298-6.602"/></g></g><g><path d="m44.955 105.262.316-.026.901-.075 1.414-.117 1.853-.153 2.219-.184 2.51-.208 2.731-.226 2.88-.239 2.961-.245 2.977-.247 2.927-.242 2.818-.234 2.65-.22 2.422-.2 2.142-.177 1.805-.15 1.414-.117.969-.08c.156-.013.311-.023.467-.04.267-.026.532-.039.797-.055.145-.009.297-.02.437-.093.276-.145.411-.473.513-.76a.7.7 0 0 0 .055-.262.34.34 0 0 0-.148-.242c-.14-.106-.325-.149-.505-.19q-.67-.15-1.341-.304c-.138-.031-.318-.074-.389-.2-.05-.089-.03-.222-.06-.327l-.136-.49-.302-1.087-.704-2.532-.803-2.888-.86-3.094-.875-3.147-.845-3.04-1.422-5.114-.483-1.738-.269-.968-.04-.142c-.022-.082-1.31.05-1.408.054l-6.328.243-9.467.365-10.314.397-4.68.18-2.07.08c-.357.014-.686-.002-1.033-.022-.566-.033-1.154.114-1.642-.178-.246-.146-.418-.375-.627-.564s-.487-.344-.8-.296c-.192.029-.373.13-.545.232a21 21 0 0 0-.635.39c-.163.105-.328.215-.443.365-.246.322-.027.725.072 1.03l1.51 4.668 2.31 7.139 2.429 7.503 1.904 5.886z"/></g><g><polygon fill="#fff" points="46.794 103.975 85.02 100.875 77.671 74.221 37.714 75.687"/><path d="M46.794 104.097a.12.12 0 0 1-.116-.085l-9.08-28.288a.12.12 0 0 1 .016-.108.13.13 0 0 1 .096-.051L77.667 74.1c.059-.009.107.034.122.09l7.348 26.653a.12.12 0 0 1-.017.102.12.12 0 0 1-.09.052l-38.226 3.1zm-8.915-28.294 9.001 28.042 37.983-3.08-7.283-26.418z"/></g><g><polygon fill="#d4eef4" points="49.098 101.755 81.876 99.201 75.496 76.318 41.453 77.678"/></g><g><g><path fill="#ffc69f" d="M78.167 112.162c-.08.686-.02 1.36.648 1.702.778.4 1.862.429 2.704.288.266-.045.366-.44.426-.702"/><path d="M80.583 114.353c-.694 0-1.339-.132-1.824-.38-.773-.399-.787-1.184-.713-1.826.008-.066.07-.122.135-.106a.12.12 0 0 1 .107.135c-.098.847.076 1.32.583 1.58.774.398 1.865.402 2.628.276.196-.033.288-.437.327-.609a.127.127 0 0 1 .146-.092c.066.015.107.08.092.145-.059.258-.168.736-.524.796-.322.054-.645.08-.957.08"/></g><g><path fill="#ffc69f" d="M77.874 113.326c-.047.272-.333.479-.606.44s-.488-.32-.456-.594c-.215.291-.69.262-.967.029-.276-.234-.397-.6-.482-.952a8.2 8.2 0 0 1-.227-1.811l-.364 1.01c-.05.14-.11.291-.238.368-.19.114-.453 0-.572-.187-.12-.187-.133-.42-.134-.642a9 9 0 0 1 .366-2.585c.092-.313.211-.635.457-.85.374-.328.956-.342 1.38-.131.59.292 1.137.66 1.68 1.029q.996.678 1.98 1.374"/><path d="M77.336 113.891a1 1 0 0 1-.085-.005.68.68 0 0 1-.534-.471.7.7 0 0 1-.267.084.92.92 0 0 1-.683-.205c-.307-.259-.436-.66-.522-1.016a8.4 8.4 0 0 1-.2-1.229l-.158.439c-.05.14-.12.33-.29.433-.257.153-.59.007-.737-.226-.139-.216-.152-.48-.154-.707-.004-.888.12-1.77.371-2.62.098-.333.225-.672.493-.907.386-.339 1.01-.399 1.515-.15.583.29 1.112.642 1.694 1.038.673.459 1.34.921 1.982 1.376a.121.121 0 1 1-.141.198c-.64-.453-1.306-.915-1.978-1.372-.575-.392-1.097-.74-1.665-1.02-.355-.177-.897-.193-1.246.112-.222.194-.333.496-.42.793a8.9 8.9 0 0 0-.361 2.55c.001.203.011.416.115.578.085.134.278.227.406.148.09-.054.137-.17.186-.307l.365-1.01a.12.12 0 0 1 .135-.077c.058.01.1.059.101.118.008.6.083 1.2.224 1.785.076.318.189.673.442.886a.66.66 0 0 0 .498.15.41.41 0 0 0 .292-.157.122.122 0 0 1 .219.086.433.433 0 0 0 .353.458.427.427 0 0 0 .469-.339.12.12 0 0 1 .14-.099c.066.012.111.074.1.141a.684.684 0 0 1-.659.544"/></g><g><path fill="#ffc69f" d="M76.775 113.139a7.8 7.8 0 0 1-.442-2.267"/><path d="M76.775 113.26a.12.12 0 0 1-.115-.08 7.9 7.9 0 0 1-.45-2.303.12.12 0 0 1 .117-.127c.06-.002.125.05.127.116.034.763.18 1.514.435 2.232a.122.122 0 0 1-.114.163"/></g><g><path fill="#ffc69f" d="M75.136 110.438s.198-1.55.484-1.911"/><path d="m75.136 110.56-.015-.001a.12.12 0 0 1-.106-.137c.021-.162.211-1.594.51-1.97a.122.122 0 0 1 .19.15c-.217.274-.404 1.43-.458 1.85a.12.12 0 0 1-.12.107"/></g><g><path fill="#ffc69f" d="M82.338 111.025c-.688-.176-1.372-.428-1.92-.88-.245-.203-.459-.443-.71-.64-.613-.484-2.098-1.228-2.732-.379-.27.362-.183.868-.067 1.305q.311 1.167.775 2.283c.158.382.347.778.691 1.006a.4.4 0 0 0 .17.071c.103.011.203-.048.276-.122.355-.357.214-.952.049-1.428-.09-.26-.168-.54-.286-.78.02.294.243.635.436.86.367.425.92.638 1.46.792.428.122.892.216 1.31.065"/><path d="M78.569 113.914q-.018 0-.037-.002a.5.5 0 0 1-.224-.09c-.376-.25-.578-.679-.737-1.061a18 18 0 0 1-.78-2.299c-.125-.471-.212-1.007.087-1.41q.27-.358.743-.422c.798-.106 1.762.463 2.163.778.138.11.265.23.388.348.106.1.212.201.325.294.45.373 1.045.646 1.87.857a.12.12 0 0 1 .089.148.12.12 0 0 1-.148.088c-.863-.221-1.488-.508-1.967-.904a6 6 0 0 1-.337-.307 5 5 0 0 0-.37-.333c-.434-.34-1.311-.822-1.982-.727a.83.83 0 0 0-.579.327c-.237.318-.157.786-.046 1.2.203.767.462 1.53.769 2.269.152.365.327.739.646.95a.3.3 0 0 0 .116.053c.053.003.117-.027.177-.088.309-.311.173-.86.02-1.302l-.071-.214c-.108-.175-.207-.388-.222-.598a.122.122 0 0 1 .23-.062c.087.175.152.368.214.556.081.127.165.23.207.278.356.414.908.614 1.4.755.414.118.85.205 1.236.069a.12.12 0 0 1 .156.073.12.12 0 0 1-.074.155c-.453.164-.954.059-1.384-.063-.457-.13-.964-.31-1.35-.657.104.421.12.87-.19 1.182a.49.49 0 0 1-.338.16"/></g></g><g><path fill="#6565ff" d="M118.458 82.971c-.904-.54-1.886-.215-2.84-.012-.886.189-1.766.408-2.634.666-2.383.709-4.714 1.714-6.714 3.21-1.966 1.47-3.53 3.417-4.428 5.709-1.159 2.955-1.05 6.293-2.828 9.038-1.636 2.525-4.447 4.281-7.404 5.284-3.48 1.18-7.337 2.004-11.043 1.869l.124 5.006c-.093 1.46.728 1.143 2.002 1.154a76.228 76.228 0 0 0 11.883-.819c1.964-.29 3.963-.675 5.674-1.68 1.247-.734 2.287-1.766 3.295-2.803.736-.758 1.483-1.555 1.846-2.548.366-1.003.305-2.101.375-3.166.24-3.63 2.155-7.114 5.09-9.261"/></g><g><path d="M99.554 113.168a.122.122 0 0 1-.041-.236c2.81-1.02 5.373-2.783 7.413-5.096a.122.122 0 0 1 .183.162c-2.067 2.344-4.665 4.128-7.513 5.163a.1.1 0 0 1-.042.007"/></g><g><path fill="#d4eef4" d="m66.547 79.934 23.128-1.875a.828.828 0 0 0 .731-1.046l-4.324-15.682a.83.83 0 0 0-.828-.608l-24.156.886a.828.828 0 0 0-.758 1.08l5.351 16.673a.83.83 0 0 0 .856.572"/><path d="M66.477 80.058a.945.945 0 0 1-.902-.659l-5.352-16.672a.94.94 0 0 1 .127-.836.95.95 0 0 1 .743-.404L85.25 60.6h.036c.428 0 .8.282.915.698l4.323 15.682a.948.948 0 0 1-.839 1.2l-23.127 1.874zm18.808-19.214h-.027l-24.156.886c-.223.009-.424.118-.552.301s-.162.41-.094.621l5.351 16.673c.1.314.407.514.73.487l23.128-1.875a.703.703 0 0 0 .624-.891l-4.324-15.683a.7.7 0 0 0-.68-.52"/></g><g><path fill="#fff" d="m29.602 79.987 31.774-2.576a1.074 1.074 0 0 0 .948-1.355l-5.97-21.654a1.074 1.074 0 0 0-1.056-.788l-30.964.604a1.074 1.074 0 0 0-1.028 1.303l5.16 23.625c.116.525.6.885 1.136.841"/><path d="M29.515 80.113a1.2 1.2 0 0 1-1.167-.94l-5.16-23.627a1.19 1.19 0 0 1 .229-.995 1.19 1.19 0 0 1 .915-.455l30.964-.604h.023c.538 0 1.01.358 1.153.877l5.97 21.654a1.193 1.193 0 0 1-1.056 1.509L29.612 80.11zM55.32 53.736h-.018l-30.965.604a.95.95 0 0 0-.911 1.155l5.16 23.626c.102.464.54.797 1.007.744l31.774-2.576a.95.95 0 0 0 .84-1.2l-5.97-21.655a.95.95 0 0 0-.917-.698"/></g><g><path fill="#ff98cb" d="m31.59 66.824 8.626-.699a1.793 1.793 0 0 0 1.583-2.264l-1.427-5.177a1.79 1.79 0 0 0-1.763-1.316l-8.446.165a1.793 1.793 0 0 0-1.717 2.175l1.248 5.712a1.79 1.79 0 0 0 1.896 1.404"/></g><g><rect width="15.079" height="1.309" x="67.41" y="64.651" fill="#fff" transform="rotate(-2.864 74.949 65.305)"/></g><g><polygon fill="#ff98cb" points="49.177 84.292 73.648 83.068 73.12 81.748 48.649 82.972"/></g><g><polygon fill="#fff" points="47.603 87.945 72.074 86.721 71.546 85.401 47.075 86.625"/></g><g><polygon fill="#ff98cb" points="53.452 91.58 77.923 90.356 77.395 89.036 52.924 90.26"/></g><g><polygon fill="#fff" points="49.693 95.81 74.164 94.586 73.636 93.266 49.165 94.49"/></g><g><rect width="15.079" height="1.309" x="68.249" y="68.025" fill="#fff" transform="rotate(-2.864 75.789 68.679)"/></g><g><rect width="15.079" height="1.309" x="68.757" y="71.311" fill="#fff" transform="rotate(-2.864 76.296 71.965)"/></g><g><rect width="15.079" height="1.309" x="69.544" y="74.728" fill="#fff" transform="rotate(-2.864 77.083 75.382)"/></g><g><path fill="#fff" d="M42.822 60.119c-.047-.169 11.138-.787 11.138-.787"/><path d="M42.822 60.24a.12.12 0 0 1-.117-.089.13.13 0 0 1 .02-.107c.043-.06.158-.221 11.228-.834a.125.125 0 0 1 .129.115.12.12 0 0 1-.115.129c-4.217.233-10.586.625-11.07.76a.1.1 0 0 1-.042.022.1.1 0 0 1-.033.005"/></g><g><line x1="43.225" x2="54.353" y1="63.098" y2="62.479" fill="#fff"/><path d="M43.225 63.22a.12.12 0 0 1-.122-.116.123.123 0 0 1 .115-.128l11.129-.619c.066-.008.124.049.128.116a.123.123 0 0 1-.115.128l-11.129.618z"/></g><g><path fill="#fff" d="M31.534 70.067c.28 0 25.405-1.742 25.405-1.742"/><path d="M31.534 70.19a.122.122 0 0 1 0-.244c.334-.004 25.146-1.725 25.396-1.743.071.006.126.046.13.113a.12.12 0 0 1-.113.13c-1.026.072-25.131 1.743-25.413 1.743"/></g><g><line x1="32.321" x2="57.67" y1="74.564" y2="72.709" fill="#fff"/><path d="M32.32 74.686a.122.122 0 0 1-.009-.244l25.35-1.855c.077-.004.125.046.13.113a.12.12 0 0 1-.113.13L32.33 74.687z"/></g><g><g><path fill="#ff9a32" d="M50.67 45.87c.56 2.166-.225 4.252-1.912 5.743l.884 3.41-2.891-2.112c-.915.43-1.965.73-3.106.865-4.857.573-9.6-2.032-10.585-5.828-.983-3.796 2.166-7.342 7.023-7.915 4.866-.575 9.602 2.04 10.586 5.836"/></g><g><g><path d="M37.008 48.08a2 2 0 0 1-.046-.375q-.007-.211.053-.416a4.59 4.59 0 0 1 .458-1.057q.137-.231.287-.416.15-.183.298-.293l-.002.003.194-.152a1.812 1.812 0 0 1 .444-.267 1 1 0 0 1 .246-.063q.128-.013.255.024a.759.759 0 0 1 .417.29q.075.102.106.227.02.087.022.138a.14.14 0 0 1-.016.077.08.08 0 0 1-.05.037.4.4 0 0 1-.08.014.2.2 0 0 1-.111-.016.3.3 0 0 1-.076-.059.4.4 0 0 1-.056-.08 1 1 0 0 0-.049-.081.3.3 0 0 0-.058-.061.1.1 0 0 0-.078-.02.7.7 0 0 0-.252.079 1.5 1.5 0 0 0-.257.164q-.127.099-.249.222a5 5 0 0 0-.424.498q-.088.12-.149.216a3 3 0 0 0-.153.314 2 2 0 0 0-.101.318 1.415 1.415 0 0 0 .003.667.7.7 0 0 0 .099.233q.065.097.13.165.08.078.172.102.094.024.212.012a2.3 2.3 0 0 0 1.209-.478q.167-.122.343-.261l.079-.009a.2.2 0 0 1 .085.012q.047.016.086.043.04.027.068.065.03.038.04.079a.26.26 0 0 1-.035.193.9.9 0 0 1-.161.195 2 2 0 0 1-.241.185 4 4 0 0 1-.534.284q-.122.052-.198.075l-.123.04-.141.04a3 3 0 0 1-.2.041 6 6 0 0 1-.297.036.6.6 0 0 1-.209-.011 1 1 0 0 1-.325-.139l-.1-.073a1.7 1.7 0 0 1-.354-.356 1.2 1.2 0 0 1-.181-.405"/></g><g><path d="M40.76 48.26q.11.025.23.058.119.034.244.063.126.03.259.045.132.015.276 0 .168-.016.33-.07.16-.055.308-.142.145-.09.27-.207c.125-.117.156-.167.217-.265a3 3 0 0 0 .167-.284q.063-.125.098-.223a1 1 0 0 0 .042-.166.3.3 0 0 0-.002-.116.2.2 0 0 0-.082-.117.4.4 0 0 0-.16-.072 1 1 0 0 0-.207-.029 1.7 1.7 0 0 0-.396.029q-.093.014-.19.027a8 8 0 0 1-.345.045 1.054 1.054 0 0 1-.442-.048.817.817 0 0 1-.473-.387.4.4 0 0 1-.044-.113.8.8 0 0 1-.022-.248.9.9 0 0 1 .073-.3q.065-.156.17-.307a3 3 0 0 1 .238-.298 4 4 0 0 1 .566-.517q.143-.11.271-.188.18-.11.379-.172t.403-.083a1 1 0 0 1 .239.006.8.8 0 0 1 .214.065q.097.05.165.127a.42.42 0 0 1 .104.291.2.2 0 0 1-.023.072.1.1 0 0 1-.044.043.13.13 0 0 1-.056.018.7.7 0 0 1-.156-.002q-.071-.01-.141-.024l-.138-.026a.5.5 0 0 0-.144-.004q-.225.022-.439.13-.213.105-.403.256-.19.15-.349.328a5 5 0 0 0-.278.342q-.064.09-.083.17a.26.26 0 0 0-.003.153q.026.104.137.154a.5.5 0 0 0 .252.035l.185-.022q.104-.013.21-.028l.209-.03q.1-.015.18-.024.188-.018.374.014a.9.9 0 0 1 .343.113.9.9 0 0 1 .272.216q.115.134.159.318.027.112.018.23-.01.12-.046.243a2 2 0 0 1-.09.246q-.056.121-.12.24a2.7 2.7 0 0 1-.278.41 2.2 2.2 0 0 1-.36.347 2 2 0 0 1-.432.255 1.7 1.7 0 0 1-.747.133 1.539 1.539 0 0 1-.502-.107 1 1 0 0 1-.216-.11.8.8 0 0 1-.165-.15.5.5 0 0 1-.093-.187.3.3 0 0 1-.007-.1q.006-.047.073-.056"/></g><g><path d="M44.577 47.873q.112.024.23.058.12.035.245.063.126.03.259.045.132.015.276 0 .168-.017.33-.07.16-.055.308-.142.145-.09.27-.207.124-.118.217-.265a3 3 0 0 0 .167-.284q.062-.126.097-.223a1 1 0 0 0 .043-.166.3.3 0 0 0-.003-.116.2.2 0 0 0-.08-.117.5.5 0 0 0-.16-.072 1 1 0 0 0-.208-.03 2 2 0 0 0-.396.03q-.094.014-.19.027-.096.014-.188.026l-.157.019a1.048 1.048 0 0 1-.442-.048.827.827 0 0 1-.473-.387.4.4 0 0 1-.044-.114 1 1 0 0 1-.02-.128 1 1 0 0 1-.002-.12.9.9 0 0 1 .073-.3q.065-.156.17-.306.105-.153.238-.3a4 4 0 0 1 .565-.516q.144-.109.272-.187.18-.11.379-.173.198-.062.403-.082a1 1 0 0 1 .239.006.8.8 0 0 1 .213.065.5.5 0 0 1 .166.127.42.42 0 0 1 .104.29.2.2 0 0 1-.023.073.1.1 0 0 1-.044.043.13.13 0 0 1-.057.018.7.7 0 0 1-.155-.002 2 2 0 0 1-.142-.025l-.137-.025a.5.5 0 0 0-.144-.005q-.225.023-.439.13-.213.105-.403.257-.19.15-.349.328a5 5 0 0 0-.279.342.5.5 0 0 0-.082.17.3.3 0 0 0-.003.153q.026.104.137.154a.5.5 0 0 0 .252.034q.082-.007.185-.021l.21-.029.209-.029q.1-.015.18-.024a1.4 1.4 0 0 1 .374.014q.186.03.343.113a.9.9 0 0 1 .27.216.74.74 0 0 1 .179.549q-.01.119-.046.241a2 2 0 0 1-.09.247q-.055.12-.12.24a2.7 2.7 0 0 1-.278.41 2.3 2.3 0 0 1-.36.347 2 2 0 0 1-.433.255 1.7 1.7 0 0 1-.746.133 1.539 1.539 0 0 1-.502-.107 1 1 0 0 1-.216-.112.8.8 0 0 1-.165-.148.5.5 0 0 1-.093-.189.3.3 0 0 1-.007-.098q.006-.049.073-.056"/></g></g></g><g><path fill="#31cdfe" d="M97.382 46.293c.037 2.736-1.782 5.207-4.656 6.81-.191 1.914-.38 3.958-.294 3.97 0-.043-1.77-1.394-3.292-2.56a17 17 0 0 1-4.004.517c-6.818.093-12.414-3.668-12.478-8.401-.065-4.72 5.428-8.63 12.246-8.723 6.832-.093 12.414 3.668 12.478 8.387"/></g><g><g><path d="M78.743 47.37q.802.355 1.674.695.873.341 1.105.397.183.034.2.278a.5.5 0 0 1-.068.32.31.31 0 0 1-.255.141q-.138.01-.559-.149l-.937-.37-1.274-.523q-.757-.315-.856-.371a.36.36 0 0 1-.143-.132.5.5 0 0 1-.052-.209q-.011-.148.033-.245c.044-.097.078-.12.145-.168q.102-.072.698-.372l1.52-.753q.914-.452 1.391-.665.476-.214.62-.225.135-.01.225.12.09.131.105.316.018.245-.384.417-.411.151-1.449.64-1.036.486-1.739.859"/></g><g><path d="M87.776 43.665q.012.166-.346.472a21 21 0 0 0-2.514 3.217q-1.176 1.83-1.588 2.62-.122.238-.235.345a.5.5 0 0 1-.311.123.32.32 0 0 1-.253-.088.37.37 0 0 1-.115-.248.65.65 0 0 1 .06-.32q.16-.36.994-1.707.607-.974 1.113-1.676a32 32 0 0 1 1.596-2.032q.806-.945.925-1a.8.8 0 0 1 .295-.068.35.35 0 0 1 .243.09.36.36 0 0 1 .136.272"/></g><g><path d="M91.042 46.395a38 38 0 0 0-1.68-.698q-.87-.337-1.104-.394a.23.23 0 0 1-.134-.098.34.34 0 0 1-.067-.181.5.5 0 0 1 .069-.323.32.32 0 0 1 .26-.14q.137-.011.554.148l.942.373 1.274.524q.752.316.852.372t.144.13a.5.5 0 0 1 .055.21.44.44 0 0 1-.075.313q-.089.113-.554.347l-1.439.718q-.969.486-1.58.76-.611.273-.764.285-.13.01-.22-.118a.6.6 0 0 1-.104-.313q-.02-.248.378-.419.416-.15 1.454-.637 1.036-.486 1.739-.86"/></g></g><g><path d="M69.234 36.954a1.053 1.053 0 0 1-1.168.924l-1.54-.194c-.175.82-.346 1.619-.358 1.713-.016.13-.613-.969-1.115-1.9l-.059-.007-.634-.08-1.19-.15-1.574-.2q-.892-.112-1.783-.225l-1.818-.23q-.84-.105-1.679-.212l-.733-.092-.331-.042c-.143-.018-.31-.068-.451-.037a.37.37 0 0 0-.165.096.9.9 0 0 0-.2.27c-.061.124-.105.277-.232.334a.3.3 0 0 1-.234-.004 1 1 0 0 1-.204-.126l-.606-.453c-.07-.052-.14-.105-.193-.175s-.088-.159-.072-.244l.037-.907c.006-.169.036-.339.057-.506l.126-.99.17-1.353.187-1.473.17-1.35.125-.989.049-.383c.075-.593.594-1.009 1.158-.938l.2.025.559.071.86.109 1.104.14 1.288.162 1.413.179 1.48.187 1.488.188 1.439.181 1.33.168 1.161.147.936.119.652.082c.274.035.545.085.816.137.12.023.235.03.342.091.278.158.459.463.503.776q.063.435.043.874a.4.4 0 0 1-.016.112c-.049.15-.204.164-.31.25q-.135.107-.24.243a.5.5 0 0 0-.066.103c-.04.088-.032.188-.05.28-.016.078-.022.158-.032.237l-.062.491-.132 1.043-.254 2.013-.168 1.328z"/></g><g><path fill="#66cb00" d="m70.606 30.959-.875 6.925a1.053 1.053 0 0 1-1.169.925l-1.54-.195c-.174.822-.345 1.62-.357 1.714-.017.13-.614-.969-1.115-1.9L54.327 37.01c-.564-.071-.964-.603-.89-1.185l.875-6.925c.075-.593.595-1.01 1.158-.938l14.236 1.799c.575.073.975.605.9 1.198"/></g><g><g><path d="M55.895 33.339a.07.07 0 0 1 .053.037q.016.03.022.073a.5.5 0 0 1 .002.09l-.01.088-.013.086a1.4 1.4 0 0 0 .24.366q.082.09.186.157a.46.46 0 0 0 .23.086q.135.02.262-.025a.9.9 0 0 0 .244-.134q.118-.09.224-.212.105-.122.196-.258.09-.132.164-.27a6 6 0 0 0 .274-.57q.095-.23.169-.442.075-.21.106-.423.008-.052-.023-.063l-.581.073a.3.3 0 0 1-.079.002.2.2 0 0 1-.134-.075q-.05-.062-.034-.164a.6.6 0 0 1 .043-.16.18.18 0 0 1 .075-.084.24.24 0 0 1 .116-.026q.068 0 .165.014l.032.005.143-.01.194-.019.23-.022.245-.025.246-.024a10 10 0 0 1 .365-.031l.092-.006a.4.4 0 0 1 .058-.001.1.1 0 0 1 .047.023.14.14 0 0 1 .031.046.225.225 0 0 1 .016.116.16.16 0 0 1-.07.109.5.5 0 0 1-.143.067q-.084.026-.181.039l-.183.026a2 2 0 0 0-.146.028q-.06.015-.071.044-.026.096-.056.217-.03.12-.06.228l-.038.127a10 10 0 0 1-.19.562 6 6 0 0 1-.137.334q-.08.18-.196.378a3 3 0 0 1-.262.382 3 3 0 0 1-.319.335q-.172.152-.36.239a.892.892 0 0 1-.365.07 1 1 0 0 1-.143-.01 1.3 1.3 0 0 1-.248-.07 1.734 1.734 0 0 1-.503-.312 1.4 1.4 0 0 1-.199-.216.9.9 0 0 1-.125-.239.5.5 0 0 1-.022-.25.7.7 0 0 1 .043-.163.26.26 0 0 1 .08-.103.3.3 0 0 1 .123-.046.6.6 0 0 1 .175.006"/></g><g><path d="M60.68 35.128a.2.2 0 0 1-.08-.03.195.195 0 0 1-.078-.13.2.2 0 0 1 0-.078.4.4 0 0 1 .031-.091q.027-.056.066-.127l.086-.145a11 11 0 0 0 .163-.275q.031-.059.046-.094l.038-.093.048-.117.055-.136.057-.141h-.08l-.099-.004q-.075-.005-.149-.002l-.152.009q-.077.004-.162.012c-.085.008-.116.008-.179.013a6 6 0 0 0-.28.024 1.1 1.1 0 0 1-.287-.006.16.16 0 0 1-.079-.036.3.3 0 0 0-.08-.047 1.8 1.8 0 0 0-.209.298 3 3 0 0 0-.157.313 1 1 0 0 0-.035.102l-.034.129a6 6 0 0 1-.06.22.2.2 0 0 1-.038.061.3.3 0 0 1-.13.087.2.2 0 0 1-.075.005.14.14 0 0 1-.096-.052.3.3 0 0 1-.05-.102.5.5 0 0 1-.014-.125q0-.066.009-.12.021-.138.077-.28t.136-.285.18-.286q.102-.143.214-.281a7 7 0 0 1 .535-.623q.165-.17.35-.329.186-.157.379-.275.192-.117.385-.178a.8.8 0 0 1 .371-.033.65.65 0 0 1 .301.114.53.53 0 0 1 .172.212q.057.127.065.284.007.157-.019.328-.023.152-.066.307a5 5 0 0 1-.2.591q-.053.138-.097.249l-.125.294-.024.05-.047.093q-.028.055-.061.118l-.068.124q-.032.06-.062.111-.03.05-.05.082l.002-.002-.052.114a.4.4 0 0 1-.065.102.3.3 0 0 1-.093.067.25.25 0 0 1-.133.01m.54-2.799a.5.5 0 0 0-.208.012 1 1 0 0 0-.213.08q-.107.053-.212.128a4 4 0 0 0-.54.482l-.03.033-.036.042-.036.05-.03.047.231.035q.127.018.291.024.165.008.327.006a9 9 0 0 0 .505-.015 1.64 1.64 0 0 0 .06-.185 2 2 0 0 0 .07-.402.5.5 0 0 0-.006-.148.3.3 0 0 0-.051-.123.18.18 0 0 0-.122-.066"/></g><g><path d="M62.685 32.801a1 1 0 0 0 .009-.097l-.001-.08-.001-.075q0-.037.007-.08a.6.6 0 0 1 .026-.107.3.3 0 0 1 .048-.09.2.2 0 0 1 .074-.058.2.2 0 0 1 .107-.01.24.24 0 0 1 .207.17q.02.064.019.142a1 1 0 0 1-.013.15q-.009.066-.042.2a15 15 0 0 0-.175.81q-.053.268-.102.594a3 3 0 0 0-.025.231 1.5 1.5 0 0 0 0 .248q.009.12.045.213a.23.23 0 0 0 .116.131q.236-.163.442-.362t.38-.407q.175-.208.32-.412t.263-.372l.202-.3.165-.25a4 4 0 0 0 .237-.41l.04-.06a.2.2 0 0 1 .075-.065q.065-.035.194-.015.079.012.109.052t.022.104l-.01.052a.14.14 0 0 1-.02.053q-.074.13-.185.293l-.234.348q-.116.174-.24.353a12 12 0 0 1-.503.684 6 6 0 0 1-.528.58 8 8 0 0 1-.555.495 1 1 0 0 1-.092.059.34.34 0 0 1-.363-.023.5.5 0 0 1-.105-.113.7.7 0 0 1-.072-.141l-.05-.146a1.622 1.622 0 0 1-.057-.397 2.4 2.4 0 0 1 .028-.433l.013-.08.03-.17.04-.237.046-.276.048-.297.045-.291z"/></g><g><path d="M66.862 36.059a.2.2 0 0 1-.08-.03.2.2 0 0 1-.053-.057.233.233 0 0 1-.026-.151.3.3 0 0 1 .031-.092q.028-.057.067-.126a7 7 0 0 1 .173-.291 3 3 0 0 0 .121-.224l.038-.093q.02-.054.049-.118l.054-.135.057-.142a1 1 0 0 1-.08.001q-.046 0-.099-.005a2 2 0 0 0-.301.007l-.161.012-.18.014a7 7 0 0 0-.28.023q-.14.018-.286-.005a.16.16 0 0 1-.08-.036.3.3 0 0 0-.08-.048 2 2 0 0 0-.208.299 3 3 0 0 0-.087.162q-.04.081-.07.15a1 1 0 0 0-.036.103l-.034.128-.032.126q-.016.059-.028.094a.2.2 0 0 1-.038.063.3.3 0 0 1-.058.051.3.3 0 0 1-.072.034.2.2 0 0 1-.074.007.15.15 0 0 1-.097-.052.3.3 0 0 1-.049-.103.5.5 0 0 1-.015-.125q.001-.067.01-.12.02-.138.076-.28t.136-.285.181-.286q.1-.143.214-.282a7 7 0 0 1 .534-.622q.164-.17.351-.328t.378-.276.385-.178a.8.8 0 0 1 .372-.033.65.65 0 0 1 .3.114.54.54 0 0 1 .172.213q.058.125.065.282.007.158-.018.329-.024.15-.067.307a5 5 0 0 1-.199.592l-.098.247-.124.294-.026.052-.046.093-.061.117a7 7 0 0 1-.18.317l.002-.002-.051.114a.4.4 0 0 1-.066.102.3.3 0 0 1-.093.066.25.25 0 0 1-.133.012m.538-2.8a.5.5 0 0 0-.207.012q-.106.026-.213.079a1.5 1.5 0 0 0-.211.13q-.105.075-.202.157a6.98 6.98 0 0 0-.368.356l-.037.043-.036.05-.03.047.232.034q.126.02.29.026.165.007.328.005a9 9 0 0 0 .504-.015 1 1 0 0 0 .03-.077q.014-.048.03-.108a2 2 0 0 0 .07-.403.6.6 0 0 0-.005-.146.3.3 0 0 0-.052-.124q-.039-.053-.123-.065"/></g></g><g><g><polygon fill="#ff98cb" points="115.043 64.192 116.448 63.066 114.189 60.572 113.222 61.347"/></g><g><polygon fill="#ff98cb" points="113.354 65.429 114.759 64.303 112.5 61.81 111.533 62.585"/></g></g></g></g></svg>