<svg xmlns="http://www.w3.org/2000/svg" xml:space="preserve" id="woman-designer-using-animation-software" x="0" y="0" version="1.1" viewBox="0 0 170 170"><g><g><g><path d="M115.822 112.007c.088.038.16.156.217.228.138.173.266.355.393.537a72 72 0 0 1 1.64 2.49 312 312 0 0 1 2.054 3.27q.5.806 1 1.615.228.375.46.75c.184.291.417.362.7.534.258.156.44.433.48.733a2 2 0 0 1-.011.474l-.055.542c-.013.12-.03.253-.122.332-.143.124-.411.09-.597.087l-.91-.013-1.132-.015-2.878-.04-1.72-.023-1.888-.026-2.046-.028-2.189-.03-2.32-.032-2.436-.033-7.881-.108-2.775-.038-2.826-.039-2.864-.039-2.89-.04-2.903-.04-2.901-.039-2.888-.04q-1.43-.019-2.861-.039l-2.821-.038-2.768-.038-2.701-.037-2.623-.036-2.53-.035-2.424-.033-6.508-.089-1.871-.026-1.7-.023-1.516-.02-1.319-.019-1.108-.015-.885-.012-.648-.009-.399-.005-.136-.002 8.12-10.493z"/></g><g><path fill="#fff" d="M115.177 110.322c.518.223 7.427 11.609 7.427 11.609l-81.533-1.116 8.12-10.493z"/><path d="M122.604 122.056h-.002L41.07 120.94a.124.124 0 0 1-.097-.2l8.119-10.493a.12.12 0 0 1 .098-.049h65.986a.1.1 0 0 1 .05.01c.528.228 6.328 9.753 7.485 11.66a.13.13 0 0 1 .001.127.13.13 0 0 1-.108.062m-81.281-1.363 81.058 1.11c-2.702-4.447-6.741-10.948-7.242-11.356H49.251z"/></g><g><polygon points="112.067 112.524 108.763 112.524 109.476 114.194 112.816 114.194"/></g><g><polygon points="113.507 116.126 110.202 116.126 110.916 117.796 114.255 117.796"/></g><g><polygon fill="#fff" points="107.269 114.194 103.964 114.194 104.678 115.863 108.017 115.863"/><path d="M108.018 115.988h-3.34a.13.13 0 0 1-.115-.076l-.714-1.67a.13.13 0 0 1 .01-.118.13.13 0 0 1 .105-.055h3.305c.05 0 .094.029.114.074l.749 1.67a.13.13 0 0 1-.01.118.13.13 0 0 1-.104.057m-3.258-.25h3.065l-.637-1.42h-3.035z"/></g><g><polygon points="98.817 114.457 95.512 114.457 96.226 116.126 99.565 116.126"/></g><g><polygon points="104.045 116.961 100.74 116.961 101.454 118.631 104.793 118.631"/></g><g><polygon points="102.705 112.007 99.4 112.007 100.114 113.677 103.454 113.677"/></g><g><line x1="148.875" x2="21.125" y1="104.574" y2="102.916" fill="#fff"/><path d="M148.875 104.698h-.001l-127.75-1.657a.125.125 0 0 1 0-.25h.002l127.75 1.658a.125.125 0 0 1 0 .25"/></g><g><path d="M79.19 107.4c0 .895 18.08.895 18.08 0v-1.956c0-.94-18.08-.94-18.08 0z"/></g><g><path fill="#fff" d="M82.883 106.075c0 .462 12.63.462 12.63 0v-9.029h-12.63z"/><path d="M89.197 106.545c-1.656 0-3.2-.03-4.347-.086-2.092-.102-2.092-.24-2.092-.384v-9.029c0-.069.056-.124.125-.124h12.63c.068 0 .124.055.124.124v9.029c0 .128 0 .47-6.44.47m-6.19-.522c.841.378 11.54.378 12.38 0V97.17h-12.38z"/></g><g><path fill="#fff" d="M51.915 98.21h71.84a2.293 2.293 0 0 0 2.293-2.292V49.81a2.293 2.293 0 0 0-2.293-2.293h-71.84a2.293 2.293 0 0 0-2.294 2.293v46.108a2.293 2.293 0 0 0 2.294 2.293"/><path d="M123.76 98.336H51.91a2.416 2.416 0 0 1-2.413-2.413V49.806a2.417 2.417 0 0 1 2.413-2.415h71.85a2.417 2.417 0 0 1 2.413 2.415v46.117a2.416 2.416 0 0 1-2.413 2.413M51.91 47.64c-1.193 0-2.164.97-2.164 2.165v46.117c0 1.193.97 2.163 2.164 2.163h71.85c1.193 0 2.164-.97 2.164-2.163V49.806c0-1.194-.97-2.165-2.164-2.165z"/></g><g><path fill="#d4eef4" d="M56.151 94.303h62.93a1.97 1.97 0 0 0 1.969-1.97v-38.79a1.97 1.97 0 0 0-1.97-1.969H56.151a1.97 1.97 0 0 0-1.97 1.97v38.79a1.97 1.97 0 0 0 1.97 1.969"/></g><g><path fill="#fff" d="M84.782 79.537h30.395a1.9 1.9 0 0 0 1.9-1.9V57.995a1.9 1.9 0 0 0-1.9-1.9H84.782a1.9 1.9 0 0 0-1.9 1.9v19.642c0 1.05.851 1.9 1.9 1.9"/><path d="M115.18 79.661H84.78a2.023 2.023 0 0 1-2.021-2.02V57.99c0-1.113.906-2.02 2.02-2.02h30.403c1.114 0 2.02.907 2.02 2.02v19.65c0 1.114-.906 2.02-2.02 2.02M84.78 56.221c-.977 0-1.772.794-1.772 1.77v19.65c0 .976.795 1.77 1.772 1.77h30.402c.976 0 1.77-.794 1.77-1.77V57.99c0-.976-.794-1.77-1.77-1.77z"/></g><g><g><g><ellipse cx="91.044" cy="69.139" rx="2.403" ry="2.105" transform="rotate(-34.812 91.044 69.14)"/></g><g><ellipse cx="90.893" cy="69.244" fill="#fff" rx="1.026" ry=".899" transform="rotate(-34.812 90.893 69.244)"/></g></g><g><g><ellipse cx="105.246" cy="76.625" rx="2.403" ry="2.105" transform="rotate(-34.812 105.246 76.625)"/></g><g><ellipse cx="105.095" cy="76.73" fill="#fff" rx="1.026" ry=".899" transform="rotate(-34.812 105.095 76.73)"/></g></g><g><path fill="#ffcd00" d="M104.074 66.682c-.796-.497-1.537-1.065-2.291-1.615a59 59 0 0 0-5.28-3.428c-1.187-.683-2.439-1.339-3.857-1.484s-3.051.326-3.963 1.492c-.865 1.106-.9 2.608-.414 3.794s1.418 2.116 2.372 2.973c2.135 1.92 4.5 3.626 7.162 4.846.867.397 1.762.74 2.661 1.073q1.647.609 3.318 1.167c1.204.403 2.431.788 3.73.882 1.3.093 2.696-.13 3.85-.854s2.01-2.01 1.946-3.268c-.031-.632-.223-1.262-.61-1.746-.457-.57-1.157-.733-1.843-.981-.099-.142-.646-.235-.821-.298l-.885-.32-1.833-.665a17 17 0 0 1-3.242-1.568"/></g><g><path fill="#fff" d="M104.751 65.361c-.782-.478-1.51-1.027-2.251-1.558a56 56 0 0 0-5.193-3.303c-1.168-.656-2.401-1.284-3.805-1.409s-3.03.358-3.947 1.514c-.872 1.097-.925 2.573-.458 3.732.468 1.16 1.38 2.061 2.315 2.891 2.093 1.859 4.416 3.506 7.041 4.672.854.379 1.737.706 2.625 1.021q1.626.578 3.275 1.106c1.189.38 2.4.744 3.688.82s2.674-.16 3.827-.886c1.152-.727 2.017-2 1.97-3.235-.024-.62-.206-1.236-.584-1.707-.445-.555-1.138-.705-1.815-.941-.096-.139-.638-.222-.81-.283l-2.683-.934a16.6 16.6 0 0 1-3.195-1.5"/><path d="M108.507 74.985a8 8 0 0 1-.473-.014c-1.288-.076-2.494-.433-3.72-.825-1.096-.351-2.2-.723-3.277-1.107-.843-.3-1.745-.631-2.634-1.025-2.41-1.069-4.723-2.604-7.074-4.692-.876-.778-1.851-1.71-2.347-2.938-.538-1.333-.356-2.81.475-3.857.866-1.09 2.455-1.7 4.056-1.56 1.445.128 2.697.774 3.855 1.424a57 57 0 0 1 5.204 3.31l.44.317c.58.421 1.181.856 1.804 1.237.974.594 2.04 1.094 3.17 1.488l2.683.935c.046.015.121.033.206.054.301.072.53.133.637.238l.285.096c.568.186 1.155.378 1.554.875.368.46.585 1.092.611 1.78.046 1.208-.769 2.551-2.028 3.345-1.165.735-2.44.919-3.427.919M93.053 59.196c-1.363 0-2.665.56-3.401 1.487-.926 1.166-.834 2.628-.439 3.607.476 1.178 1.427 2.087 2.282 2.845 2.331 2.071 4.624 3.592 7.01 4.651.881.39 1.778.72 2.615 1.018 1.076.383 2.176.754 3.27 1.104 1.21.387 2.4.74 3.659.814.992.06 2.447-.045 3.752-.867 1.186-.747 1.954-2.003 1.912-3.123-.024-.637-.222-1.218-.557-1.635-.352-.439-.879-.611-1.437-.794q-.16-.052-.32-.108a.13.13 0 0 1-.062-.046c-.05-.063-.38-.14-.52-.175a3 3 0 0 1-.23-.06l-2.682-.935c-1.147-.4-2.23-.907-3.218-1.512-.632-.386-1.237-.823-1.822-1.246l-.438-.317a56 56 0 0 0-5.18-3.294c-1.136-.638-2.361-1.27-3.756-1.394a5 5 0 0 0-.438-.02"/></g><g><path fill="#fff" d="M97.583 62.183c-.808 1.919-2.298 3.639-4.142 4.783"/><path d="M93.441 67.09a.125.125 0 0 1-.066-.231c1.835-1.137 3.289-2.816 4.093-4.725a.12.12 0 0 1 .164-.066c.063.027.093.1.066.164-.824 1.956-2.313 3.675-4.191 4.84a.13.13 0 0 1-.066.018"/></g><g><path d="M99.37 69.796a.125.125 0 0 1-.07-.228c.681-.46 1.296-1.11 1.826-1.928.49-.755.859-1.574 1.185-2.346a.123.123 0 0 1 .164-.066c.063.027.093.1.066.163-.33.783-.705 1.613-1.206 2.385-.548.846-1.186 1.519-1.894 1.998a.12.12 0 0 1-.07.022"/></g><g><path d="M104.299 71.164a.125.125 0 0 1-.089-.212c.428-.432.757-.88.978-1.33a6.3 6.3 0 0 0 .365-.987q.12-.412.222-.826a.12.12 0 0 1 .15-.092.124.124 0 0 1 .093.15q-.103.42-.226.838c-.092.313-.21.68-.38 1.027a5.4 5.4 0 0 1-1.025 1.395.13.13 0 0 1-.088.037"/></g><g><path d="M108.578 71.937a.124.124 0 0 1-.071-.227c.327-.228.745-.539 1.071-.922.229-.267.512-.688.563-1.176.007-.07.07-.126.137-.111a.125.125 0 0 1 .111.136c-.058.553-.37 1.02-.62 1.313-.346.404-.78.728-1.12.965a.12.12 0 0 1-.071.022"/></g></g><g><rect width="57.177" height="1.87" x="59.9" y="82.536" fill="#6565ff"/></g><g><rect width="57.177" height="1.87" x="59.9" y="86.296" fill="#fd99cb"/></g><g><rect width="57.177" height="1.87" x="59.9" y="89.832" fill="#fe6734"/></g><g><g><ellipse cx="102.786" cy="87.1" rx="2.224" ry="1.918"/></g><g><ellipse cx="102.066" cy="87.137" fill="#fff" rx="2.224" ry="1.918"/><path d="M102.066 89.179c-1.295 0-2.349-.916-2.349-2.042 0-1.127 1.054-2.043 2.35-2.043 1.295 0 2.349.916 2.349 2.043 0 1.126-1.054 2.042-2.35 2.042m0-3.835c-1.157 0-2.1.804-2.1 1.793s.943 1.792 2.1 1.792 2.1-.804 2.1-1.792c0-.99-.942-1.793-2.1-1.793"/></g></g><g><path fill="#fff" d="M57.11 66.966h19.57a.854.854 0 0 0 .854-.855v-6.185a.854.854 0 0 0-.854-.854H57.11a.854.854 0 0 0-.855.854v6.185c0 .472.382.855.854.855"/></g><g><g><ellipse cx="84.406" cy="83.144" rx="2.224" ry="1.918"/></g><g><ellipse cx="83.687" cy="83.18" fill="#fff" rx="2.224" ry="1.918"/><path d="M83.687 85.223c-1.296 0-2.35-.916-2.35-2.043 0-1.126 1.054-2.042 2.35-2.042 1.295 0 2.349.916 2.349 2.042 0 1.127-1.054 2.043-2.35 2.043m0-3.836c-1.158 0-2.1.805-2.1 1.793 0 .99.942 1.793 2.1 1.793 1.157 0 2.1-.804 2.1-1.793s-.943-1.793-2.1-1.793"/></g></g><g><g><ellipse cx="92.229" cy="90.748" rx="2.224" ry="1.918"/></g><g><ellipse cx="91.51" cy="90.785" fill="#fff" rx="2.224" ry="1.918"/><path d="M91.51 92.827c-1.296 0-2.35-.916-2.35-2.042 0-1.127 1.054-2.043 2.35-2.043 1.295 0 2.35.916 2.35 2.043 0 1.126-1.055 2.042-2.35 2.042m0-3.835c-1.158 0-2.1.804-2.1 1.793s.942 1.793 2.1 1.793 2.1-.805 2.1-1.793c0-.99-.942-1.793-2.1-1.793"/></g></g><g><g><path fill="#ffc69f" d="M98.738 132.715c.4-1.144.266-2.498.453-3.744.374-2.416 1.984-4.267 2.183-6.728.011-.168.02-.36.098-.51.16-.307.514-.23.748-.029.591.535.781 1.601.808 2.57a13.3 13.3 0 0 1-.298 3.205c.266-.457.887-.673 1.227-1.117a8.8 8.8 0 0 0 1.048-1.76 8.8 8.8 0 0 0 .768-3.993c-.017-.346-.052-.704.071-1.027s.466-.595.8-.504c.149.04.271.145.38.254 1.587 1.597.546 4.467-.068 6.296.152-.193.38-.156.573-.036.236.147.444.372.572.685.058.155.097.328.096.498.008.111-.09.45-.064.519.024.068.27.18.328.256.1.143.172.325.209.513.069.367.022.75-.04 1.122.275.11.506.42.568.793.081.408-.05.7-.182 1.045a4.2 4.2 0 0 1-.513 1.014c-.468.684-1.06 1.196-1.622 1.732-.832.775-1.687 1.714-1.95 3.058"/><path d="m104.931 136.952-.024-.002a.125.125 0 0 1-.098-.147c.268-1.37 1.114-2.311 1.988-3.125l.263-.249c.468-.44.953-.895 1.34-1.462.197-.278.355-.591.499-.986l.027-.072c.122-.314.218-.562.15-.908-.055-.323-.252-.604-.492-.7a.126.126 0 0 1-.077-.137c.069-.41.102-.75.04-1.078-.034-.175-.1-.34-.188-.464a1 1 0 0 0-.128-.09c-.116-.073-.19-.123-.216-.195-.024-.066-.008-.16.025-.332.015-.078.036-.185.033-.22q0-.23-.09-.464a1.3 1.3 0 0 0-.52-.623c-.123-.079-.294-.138-.409.007a.13.13 0 0 1-.157.033.126.126 0 0 1-.06-.15l.065-.19c.602-1.788 1.512-4.49.034-5.978-.09-.09-.2-.188-.324-.22-.267-.08-.55.161-.651.427-.1.263-.085.568-.07.864l.006.112a8.9 8.9 0 0 1-.779 4.05 9 9 0 0 1-1.061 1.785c-.17.22-.398.384-.618.542-.243.174-.472.34-.601.561a.125.125 0 0 1-.23-.089c.225-1.02.324-2.089.296-3.175-.023-.835-.175-1.944-.768-2.48-.123-.105-.277-.16-.388-.14q-.107.02-.166.134c-.06.118-.072.284-.082.43l-.002.032c-.107 1.328-.624 2.493-1.124 3.62-.436.983-.887 2-1.06 3.117a15 15 0 0 0-.119 1.417c-.04.795-.083 1.617-.34 2.349a.124.124 0 0 1-.158.077.125.125 0 0 1-.077-.159c.245-.699.284-1.467.326-2.28.025-.476.05-.969.122-1.442.178-1.15.636-2.182 1.078-3.18.491-1.108 1-2.253 1.104-3.539.013-.2.026-.392.111-.557a.48.48 0 0 1 .34-.263c.188-.04.414.036.6.197.66.596.828 1.776.852 2.66.025.944-.045 1.875-.209 2.774.111-.095.231-.18.35-.267.206-.147.418-.3.565-.49a8.7 8.7 0 0 0 1.031-1.735c.56-1.247.821-2.609.758-3.937l-.006-.11c-.017-.322-.034-.655.086-.967.139-.366.54-.695.949-.58.18.048.322.172.436.285 1.557 1.567.682 4.283.061 6.129a.65.65 0 0 1 .422.114c.278.174.492.43.62.745.07.186.107.373.106.544.005.055-.011.142-.037.277-.012.062-.028.15-.032.194.027.022.079.055.113.076.08.052.154.1.195.153.11.156.19.355.23.564.068.355.033.724-.022 1.074.278.155.49.474.552.844.082.413-.036.719-.162 1.043l-.026.069c-.151.414-.319.745-.528 1.04-.402.588-.896 1.052-1.375 1.503l-.262.248c-.845.786-1.66 1.69-1.914 2.991a.125.125 0 0 1-.123.1"/></g><g><path d="M105.99 127.064a.124.124 0 0 1-.082-.218c.41-.358.717-.843.867-1.364a.124.124 0 1 1 .24.068 3.15 3.15 0 0 1-.942 1.483.12.12 0 0 1-.082.03"/></g><g><path d="M107.193 128.485a.125.125 0 0 1-.086-.215c.332-.314.605-.679.814-1.085a.125.125 0 1 1 .222.113c-.221.432-.512.82-.864 1.153a.13.13 0 0 1-.086.034"/></g><g><path d="M107.841 130.203a.125.125 0 0 1-.077-.223c.287-.223.505-.52.632-.857a.126.126 0 0 1 .16-.073.126.126 0 0 1 .074.161 2.2 2.2 0 0 1-.712.966.12.12 0 0 1-.077.026"/></g></g><g><rect width="9.414" height="8.416" x="61.547" y="88.643" fill="#ffc69f"/></g><g><path fill="#ffc69f" d="M69.709 89.734c4.243-2.26 6.892-7.205 6.42-11.99-.287-.022-.416-.146-.692-.23a8.5 8.5 0 0 0-3.656-.29"/></g><g><path fill="#68cc00" d="M54.182 100.012c-3.489.625-7.006 1.576-9.903 3.593-3.893 2.712-6.27 7.07-7.946 11.472a56 56 0 0 0-3.559 23.143c1.686-.16 3.376.155 5.063.292 1.688.138 3.474.076 4.943-.755"/></g><g><path fill="#68cc00" d="M81.869 100.239c2.362.138 4.782.29 6.95 1.236 2.748 1.201 4.842 3.6 6.195 6.276 2.076 4.11 2.992 8.66 3.913 13.135.893 4.339 2.38 8.866 2.046 13.333l4.703 2.949c-.073 1.074-1.033 1.973-2.008 2.429s-2.078.54-3.154.583c-2.358.095-4.73.027-7.056-.378-.947-.165-1.909-.397-2.705-.935-1.29-.873-1.944-2.4-2.533-3.841"/></g><g><path fill="#68cc00" d="M38.208 138.305a103.3 103.3 0 0 1 4.474-28.333c.68-2.228 1.474-4.498 2.994-6.218 2.724-3.08 7.098-3.716 11.104-4.036a190 190 0 0 1 18.601-.573c3.655.068 7.504.302 10.577 2.366 5.473 3.677 6.412 11.514 6.45 18.303q.028 5-.2 9.995c-.067 1.499-.3 3.053-.244 4.55.063 1.664.358 3.324.411 4.997l-10.796-.26"/></g><g><path d="M92.396 137.395h-.01a.125.125 0 0 1-.115-.133c.398-5.511.22-11.08-.525-16.553a.125.125 0 0 1 .106-.14c.077-.014.131.039.141.107.748 5.49.926 11.075.527 16.603a.124.124 0 0 1-.124.116"/></g><g><path d="M49.155 112.131a.1.1 0 0 1-.056-.013.125.125 0 0 1-.056-.167 47 47 0 0 0 1.503-3.36.126.126 0 0 1 .163-.07.126.126 0 0 1 .07.163 48 48 0 0 1-1.512 3.378.12.12 0 0 1-.112.07"/></g><g><path d="m87.835 139.356-4.09.415-44.317-1.324c-.36-9.78 2.375-20.397 9.84-27.144a23 23 0 0 1 3.054-2.336c6.178-3.962 14.363-4.68 21.04-1.656 5.38 2.435 9.76 7.006 11.727 12.655 2.435 6.986 2.586 12.104 2.746 19.39"/></g><g><path fill="#fff" d="m86.461 139.771-47.025-1.34c-.395-.01.378-7.718.487-8.408.45-2.85 1.195-5.665 2.29-8.36.964-2.368 2.2-4.644 3.748-6.727 1.637-2.203 3.721-4.39 6.436-5.424a26.3 26.3 0 0 1 9.793-1.695c3.134.055 6.261.675 9.12 1.885 5.822 2.464 10.563 7.089 12.691 12.804 2.214 5.958 2.493 10.863 2.46 17.265"/><path d="M86.462 139.896h-.004l-47.025-1.34a.16.16 0 0 1-.122-.061c-.4-.483.438-8.17.489-8.492.467-2.964 1.24-5.787 2.298-8.387 1.007-2.477 2.273-4.749 3.763-6.754 2.088-2.81 4.212-4.598 6.492-5.467a26.5 26.5 0 0 1 9.84-1.703c3.198.056 6.367.711 9.166 1.894 6.009 2.544 10.66 7.237 12.759 12.876 2.12 5.703 2.502 10.484 2.468 17.31a.126.126 0 0 1-.125.124m-46.97-1.588 46.845 1.335c.029-6.728-.36-11.462-2.453-17.093-2.076-5.576-6.676-10.217-12.623-12.734-2.768-1.17-5.906-1.818-9.073-1.875a26.4 26.4 0 0 0-9.746 1.688c-2.235.85-4.322 2.61-6.381 5.381-1.477 1.989-2.733 4.243-3.732 6.7-1.05 2.583-1.818 5.386-2.283 8.332-.132.843-.782 7.597-.553 8.266"/></g><g><path fill="#68cc00" d="M74.308 96.086a8.94 8.94 0 0 1 4.174 4.743c.007-.64-23.406-.879-23.412-.238.156-.722.367-1.3.858-1.852.264-.297.567-.557.87-.815l2.168-1.851c0 .563 15.342.576 15.342.013"/><path d="M78.482 100.954a.12.12 0 0 1-.11-.069c-.963-.538-22.219-.755-23.192-.236a.12.12 0 0 1-.124.065.125.125 0 0 1-.111-.125c0-.026 0-.052.015-.079.155-.699.368-1.283.875-1.854a9 9 0 0 1 .882-.826l2.168-1.852a.125.125 0 0 1 .194.043c.785.477 14.331.487 15.116.013a.124.124 0 0 1 .172-.058 9.08 9.08 0 0 1 4.21 4.75c.03.035.03.07.03.104a.125.125 0 0 1-.125.124m-14.845-.866c.977 0 1.999.005 3.047.016 3.086.03 5.967.102 8.113.202 2.088.096 3.033.193 3.46.289a8.84 8.84 0 0 0-3.946-4.367c-.363.17-1.803.398-7.518.398h-.095c-2.022 0-3.911-.04-5.318-.109-1.619-.08-2.206-.177-2.418-.277l-2.083 1.779c-.294.25-.597.51-.858.803-.425.478-.629.974-.772 1.55.397-.09 1.316-.172 3.443-.228 1.38-.037 3.078-.056 4.945-.056"/></g><g><path d="M78.703 74.026a11.8 11.8 0 0 1-1.535 3.99c-.908 1.478-1.806 2.978-3.008 4.243-.28.3-.578.579-.877.828-.45.375-.92.72-1.392 1.069.94-.694 1.763 1.57 1.964 2.124.484 1.343.584 2.948-.311 4.165-.513.698-1.362 1.12-2.227 1.176-.865.057-1.736-.235-2.438-.743.257 1.407-.472 2.875-1.6 3.754s-2.592 1.235-4.021 1.28c-.6.019-1.208-.014-1.783-.186a3.86 3.86 0 0 1-2.316-1.94 3.86 3.86 0 0 1-.175-3.016c-1.336.395-2.965.271-3.87-.788-.304-.357-.504-.795-.635-1.245-.73-2.505.655-4.397 2.534-5.789q-.374-.33-.718-.689a11.8 11.8 0 0 1-2.475-3.822c-1.478-3.643-.909-8.104 1.626-11.108 1.797-2.126 4.432-3.444 7.176-3.933 1.966-.35 3.985-.294 5.95.03.758.126 1.599.29 2.292.637.323.161.611.396.835.68.054.067.487.892.439.894 1.324-.057 2.702.05 3.865.687 1.132.62 1.969 1.708 2.422 2.916.454 1.209.545 2.532.417 3.816q-.048.488-.139.97"/></g><g><path fill="#ff98cb" d="M72.254 83.876c.08.17.16.35.219.53-4.142-1.049-13.443-.909-16.218-.84.24-.219.489-.418.758-.618q-.374-.33-.718-.689c4.361-.18 13.663.56 16.987.829-.34.29-.68.549-1.028.788"/></g><g><path d="M76.173 95.672a.125.125 0 0 1-.117-.08c-.33-.894-1.104-1.945-2.192-1.976a5 5 0 0 0-.33.012c-.207.014-.421.028-.634-.02a.87.87 0 0 1-.542-.391.54.54 0 0 1-.058-.436c.058-.193.214-.319.35-.43.312-.255.669-.599.693-1.028.032-.542-.47-.983-.966-1.343a.125.125 0 0 1 .147-.203c.55.4 1.107.899 1.069 1.56-.031.532-.46.941-.78 1.203-.12.098-.238.194-.274.313a.3.3 0 0 0 .035.24.62.62 0 0 0 .382.271c.178.042.365.028.562.016.117-.01.239-.012.352-.013 1.213.033 2.062 1.172 2.42 2.136a.125.125 0 0 1-.117.17"/></g><g><path d="M51.948 94.427a.124.124 0 0 1-.124-.115.126.126 0 0 1 .114-.134c.542-.043.94-.502 1.095-.939.152-.429.154-.944.008-1.575l-.053-.216c-.064-.255-.13-.519-.137-.792-.01-.42.145-.792.413-.997.121-.092.259-.148.392-.2.126-.051.244-.099.34-.174.274-.212.337-.613.378-1.005l.112-1.062c.007-.07.073-.128.137-.111a.125.125 0 0 1 .111.136l-.111 1.063c-.047.445-.122.903-.473 1.176-.124.096-.265.153-.401.208-.123.05-.24.096-.334.168-.204.156-.322.452-.314.793.006.244.066.483.129.736l.054.22c.158.68.152 1.24-.016 1.716-.218.615-.745 1.06-1.31 1.104z"/></g><g><path d="M55.498 96.305a.124.124 0 0 1-.033-.245c.504-.138.651-.82.623-1.363l-.014-.233c-.036-.534-.076-1.138.278-1.581.199-.248.48-.393.754-.534.29-.149.565-.289.718-.54.158-.26.15-.581.142-.922-.007-.297-.015-.604.091-.89a.126.126 0 0 1 .16-.074.124.124 0 0 1 .074.16c-.09.242-.082.512-.075.799.009.36.018.734-.18 1.058-.189.31-.508.474-.816.632-.261.133-.508.26-.673.467-.294.367-.258.896-.224 1.409l.014.236c.033.635-.159 1.438-.806 1.616a.1.1 0 0 1-.033.005"/></g><g><path d="M75.727 85.091a.12.12 0 0 1-.095-.044.124.124 0 0 1 .014-.175c.531-.453.89-.952 1.066-1.483.203-.613.14-1.262-.17-1.736a4 4 0 0 0-.25-.325 4 4 0 0 1-.26-.337 2.005 2.005 0 0 1 .208-2.425q.065-.068.135-.136c.175-.171.34-.332.35-.533.006-.118-.045-.253-.093-.385-.081-.221-.174-.472-.013-.696a.127.127 0 0 1 .174-.028c.056.04.069.118.029.175-.078.108-.035.247.044.463.057.154.116.314.108.483-.014.3-.232.512-.424.7q-.067.064-.129.128c-.52.553-.6 1.482-.181 2.115.071.11.155.21.244.316.092.11.187.223.268.348.35.538.424 1.268.197 1.951-.19.575-.575 1.111-1.141 1.594a.12.12 0 0 1-.081.03"/></g><g><path d="M78.16 82.66a.124.124 0 0 1-.12-.155c.078-.316.216-.626.35-.927.258-.58.501-1.13.325-1.676-.1-.309-.323-.56-.559-.824-.248-.28-.504-.569-.617-.94a1.37 1.37 0 0 1 .15-1.11c.06-.097.134-.19.208-.283.168-.21.327-.41.291-.629-.045-.278-.389-.43-.683-.53-.056-.02-.102-.092-.094-.15a.164.164 0 0 1 .144-.138c.071 0 .122.039.142.091.33.125.677.32.738.687.053.327-.157.592-.343.825-.068.086-.137.17-.192.26a1.12 1.12 0 0 0-.122.906c.096.318.324.574.565.845.242.272.493.554.61.914.205.637-.07 1.255-.335 1.854-.13.29-.263.59-.337.886a.125.125 0 0 1-.121.094"/></g><g><path fill="none" d="m100.897 134.226-1.727-.176"/></g><g><rect width="55.694" height="10.249" x="77.534" y="34.906" fill="#ff98cb"/></g><g><path d="M81.838 44.013a.125.125 0 0 1-.125-.125v-6.736a.125.125 0 1 1 .25 0v6.736c0 .07-.057.125-.125.125"/></g><g><path d="M84.486 43.668a.125.125 0 0 1-.124-.125V38.65a.125.125 0 1 1 .25 0v4.894c0 .07-.057.125-.126.125"/></g><g><path d="M87.308 43.668a.125.125 0 0 1-.125-.125V40.52a.125.125 0 1 1 .25 0v3.023c0 .07-.056.125-.125.125"/></g><g><path d="M89.669 43.668a.125.125 0 0 1-.125-.125v-5.528a.125.125 0 1 1 .25 0v5.528c0 .07-.057.125-.125.125"/></g><g><path d="M92.149 44.013a.125.125 0 0 1-.125-.125v-6.736a.125.125 0 1 1 .25 0v6.736c0 .07-.057.125-.125.125"/></g><g><path d="M94.798 43.668a.125.125 0 0 1-.125-.125V38.65a.125.125 0 1 1 .25 0v4.894c0 .07-.057.125-.125.125"/></g><g><path d="M97.619 43.668a.125.125 0 0 1-.125-.125V40.52a.125.125 0 1 1 .25 0v3.023c0 .07-.056.125-.125.125"/></g><g><path d="M99.98 43.668a.125.125 0 0 1-.125-.125v-5.528a.125.125 0 1 1 .25 0v5.528c0 .07-.057.125-.125.125"/></g><g><path d="M102.46 44.013a.125.125 0 0 1-.125-.125v-6.736a.125.125 0 1 1 .25 0v6.736c0 .07-.056.125-.125.125"/></g><g><path d="M105.109 43.668a.125.125 0 0 1-.125-.125V38.65a.125.125 0 1 1 .25 0v4.894c0 .07-.057.125-.125.125"/></g><g><path d="M107.93 43.668a.125.125 0 0 1-.125-.125V40.52a.125.125 0 1 1 .25 0v3.023c0 .07-.056.125-.125.125"/></g><g><path d="M110.29 43.668a.125.125 0 0 1-.124-.125v-5.528a.125.125 0 1 1 .25 0v5.528c0 .07-.057.125-.126.125"/></g><g><path d="M112.771 44.013a.125.125 0 0 1-.125-.125v-6.736a.125.125 0 1 1 .25 0v6.736c0 .07-.056.125-.125.125"/></g><g><path d="M115.42 43.668a.125.125 0 0 1-.125-.125V38.65a.125.125 0 1 1 .25 0v4.894c0 .07-.057.125-.125.125"/></g><g><path d="M118.24 43.668a.125.125 0 0 1-.124-.125V40.52a.125.125 0 1 1 .25 0v3.023c0 .07-.057.125-.125.125"/></g><g><path d="M120.602 43.668a.125.125 0 0 1-.125-.125v-5.528a.125.125 0 1 1 .25 0v5.528c0 .07-.056.125-.125.125"/></g><g><path d="M123.082 44.013a.125.125 0 0 1-.125-.125v-6.736a.125.125 0 1 1 .25 0v6.736c0 .07-.056.125-.125.125"/></g><g><path d="M125.73 43.668a.125.125 0 0 1-.124-.125V38.65a.125.125 0 1 1 .25 0v4.894c0 .07-.057.125-.126.125"/></g><g><path d="M128.552 43.668a.125.125 0 0 1-.125-.125V40.52a.125.125 0 1 1 .25 0v3.023c0 .07-.057.125-.125.125"/></g><g><path d="M130.913 43.668a.125.125 0 0 1-.125-.125v-5.528a.125.125 0 1 1 .25 0v5.528c0 .07-.057.125-.125.125"/></g><g><g><path d="M119.648 30.999q.003.547-.307 1.145-.31.597-.793.973-.483.38-.947.382-.48.001-.776-.317-.297-.32-.3-.884-.002-.54.322-1.12.326-.582.827-.954.502-.374.948-.376.475-.003.749.307.274.306.277.844m-2.64 1.356a.8.8 0 0 0 .17.518q.17.2.43.2.35-.002.716-.33.365-.328.605-.84.238-.515.236-.968-.002-.32-.143-.49-.14-.173-.403-.17-.36.001-.742.316-.381.317-.626.813-.245.499-.243.951"/></g><g><path d="M120.636 32.91q.154-.01.236-.01.208-.004.694.04.486.039.741.079.256.04.318.077a.3.3 0 0 1 .138.244q0 .061-.093.128a.3.3 0 0 1-.174.067q-.096 0-.295-.046a5 5 0 0 0-.801-.12 10 10 0 0 0-.868-.038q-.179.001-.368.056a.6.6 0 0 1-.208.04.16.16 0 0 1-.108-.038.12.12 0 0 1-.046-.101q-.002-.227.35-.556.35-.326.99-.658.782-.408 1.033-.683.251-.273.25-.536a.55.55 0 0 0-.19-.414.65.65 0 0 0-.467-.173q-.258 0-.475.088a1.16 1.16 0 0 0-.421.319q-.084.096-.156.096a.24.24 0 0 1-.16-.063.19.19 0 0 1-.074-.144q0-.252.398-.486t.938-.237q.462-.002.775.276a.93.93 0 0 1 .314.72q.002.442-.333.814-.336.371-1.26.82-.395.193-.678.44"/></g><g><path d="M124.211 33.041a.4.4 0 0 1-.129.298.42.42 0 0 1-.299.125.3.3 0 0 1-.22-.087.3.3 0 0 1-.09-.22.4.4 0 0 1 .135-.302.43.43 0 0 1 .302-.13.28.28 0 0 1 .215.09q.086.09.086.226m.47-1.68a.4.4 0 0 1-.13.295.42.42 0 0 1-.299.128.3.3 0 0 1-.22-.09.3.3 0 0 1-.091-.217q0-.17.135-.301a.43.43 0 0 1 .303-.133q.13 0 .215.091.085.09.087.226"/></g><g><path d="M128.44 30.952q.004.547-.308 1.144a2.9 2.9 0 0 1-.793.975q-.483.377-.946.38-.48.003-.777-.317-.296-.319-.3-.883-.001-.54.322-1.12.326-.583.827-.954.502-.373.948-.376.475-.002.75.306.274.307.277.845m-2.64 1.356a.8.8 0 0 0 .17.517q.168.201.43.2.35-.002.715-.33a2.55 2.55 0 0 0 .605-.84q.24-.514.236-.968-.001-.32-.143-.49a.49.49 0 0 0-.402-.17q-.362.002-.743.317-.38.316-.626.813a2.1 2.1 0 0 0-.242.95"/></g><g><path d="M132 30.932q.003.548-.308 1.146-.309.596-.793.973-.483.38-.946.381-.48.002-.777-.316-.296-.32-.3-.884-.002-.54.322-1.12.326-.582.827-.955.502-.373.948-.375.475-.003.75.306.274.308.276.844m-2.64 1.357a.8.8 0 0 0 .17.518q.168.2.43.198.35 0 .715-.328.366-.328.605-.841.24-.514.236-.967-.001-.32-.143-.49-.14-.173-.402-.17-.362 0-.743.316-.38.315-.626.813-.245.498-.242.951"/></g></g><g><rect width="49.749" height=".749" x="81.838" y="43.543"/></g><g><path fill="#6565ff" d="m52.399 66.6-11.77 1.746a.73.73 0 0 1-.83-.616l-1.746-11.77a.73.73 0 0 1 .615-.829l11.77-1.746a.73.73 0 0 1 .83.615l1.746 11.77a.73.73 0 0 1-.615.83"/></g><g><path fill="#fff" d="m52.19 57.21-11.729-1.998a.73.73 0 0 1-.597-.842l1.997-11.73a.73.73 0 0 1 .843-.598l11.73 1.998a.73.73 0 0 1 .597.842l-1.998 11.73a.73.73 0 0 1-.842.597"/><path d="M52.314 57.346a1 1 0 0 1-.143-.013L40.44 55.335a.854.854 0 0 1-.699-.985l1.998-11.732a.85.85 0 0 1 .349-.554.83.83 0 0 1 .636-.144l11.733 1.997c.464.08.777.521.698.985l-1.998 11.732a.856.856 0 0 1-.842.712m-.101-.259a.606.606 0 0 0 .697-.495l1.998-11.732a.606.606 0 0 0-.494-.698L42.68 42.165a.602.602 0 0 0-.697.494l-1.998 11.732a.606.606 0 0 0 .495.698z"/></g><g><path d="M41.77 60.339a.125.125 0 0 1-.016-.249 28.6 28.6 0 0 0 6.775-1.72.125.125 0 1 1 .09.232 28.8 28.8 0 0 1-6.833 1.736z"/></g><g><path d="M42.37 64.193a.125.125 0 0 1-.013-.249 69 69 0 0 0 7.41-1.153.12.12 0 0 1 .148.095.124.124 0 0 1-.096.149c-2.448.52-4.95.909-7.437 1.157z"/></g><g><path d="M50.83 47.672h-.011a45 45 0 0 1-6.313-1.083.125.125 0 0 1-.091-.15c.017-.067.087-.11.15-.092 2.056.504 4.168.867 6.278 1.077a.124.124 0 0 1-.012.248"/></g><g><path d="M51.176 50.865h-.007a24.7 24.7 0 0 1-7.03-1.478c-.065-.023-.099-.095-.075-.16s.096-.094.16-.073a24.4 24.4 0 0 0 6.96 1.462c.069.004.121.063.117.132a.125.125 0 0 1-.125.117"/></g><g><path d="M49.104 53.966h-.006a20.2 20.2 0 0 1-6.178-1.272c-.065-.025-.097-.097-.073-.161s.094-.096.16-.073c1.96.736 4.013 1.16 6.103 1.257a.125.125 0 0 1-.006.25"/></g><g><path fill="#ffc69f" d="M100.921 134.203c.006.476.077.952.209 1.41"/><path d="M101.13 135.737a.124.124 0 0 1-.12-.09 5.5 5.5 0 0 1-.214-1.443.125.125 0 0 1 .124-.127h.001c.068 0 .124.055.125.123.006.467.074.931.204 1.378a.125.125 0 0 1-.12.16"/></g><g><ellipse cx="129.501" cy="114.77" rx="6.016" ry=".835"/></g><g><g><path fill="#6565ff" d="M141.259 104.523a2.69 2.69 0 0 1 2.212-.66c.988.16 1.833.919 2.16 1.857.198.572.207 1.226-.063 1.768-.125.251-.304.471-.485.685-.298.352-.612.701-1.005.942-.454.279-.986.396-1.507.51-.553.12-1.147.237-1.673.024.071.51.05 1.066.122 1.577.028.207 1.968-.07 2.161-.11a6.5 6.5 0 0 0 2.09-.827c1.154-.725 2.107-1.658 2.38-3.05.344-1.744-.518-3.68-2.186-4.396-1.116-.48-2.376-.273-3.41-.992-.166-.115-.354-.253-.55-.204-.219.055-.315.307-.368.525a8.7 8.7 0 0 0-.246 2.275c.001.059.006.123.048.164.08.08.207.008.32-.088"/></g><g><g><path fill="#fff" d="M128.704 114.347c.007.651 13.314.51 13.307-.142l-.142-13.38-13.307.141z"/><path d="M134.327 114.896c-2.702 0-5.176-.115-5.62-.365-.105-.06-.128-.133-.128-.184l-.142-13.38q0-.05.035-.088a.12.12 0 0 1 .088-.037l13.307-.142h.002c.068 0 .124.055.125.124l.142 13.38c0 .05-.02.124-.124.185-.55.326-4.297.507-7.685.507m-5.499-.582c.713.52 12.355.396 13.058-.138l-.14-13.225-13.058.14z"/></g><g><path d="M141.871 100.768c.005.453-2.975.863-6.65.902-3.674.039-6.662-.307-6.666-.76-.001-.061.032-.107.116-.168a.66.66 0 0 1 .302-.125c.37-.14.941-.251 1.699-.35.488-.066 1.06-.117 1.7-.17l.944-.055c.59-.021 1.23-.043 1.888-.05.253-.003.506-.006.742.007.556-.006 1.079.004 1.568.014 1.248.047 2.31.141 3.07.254v.015c.71.114 1.15.245 1.253.41.034.03.034.045.034.076"/></g><g><path d="M141.868 100.506c.005.453-2.974.863-6.649.902s-6.662-.307-6.667-.76c0-.061.032-.107.116-.168a.66.66 0 0 1 .302-.124c.135-.017.27-.033.388-.02.37.012.76.098 1.06-.086a.9.9 0 0 0 .251-.245c.083-.107.15-.228.216-.35.115-.228.315-.442.585-.445.404-.004.577.418.9.626a.3.3 0 0 0 .085.06c.254.148.625.099.842-.1l.016-.016c.234-.229.23-.592.362-.895.115-.304.382-.564.718-.673.319-.11.724-.038.98.17.17.15.256.346.325.542.087.24.174.482.227.723 0 .03.018.06.018.09.035.106.053.212.138.286.136.165.39.223.626.205a1.09 1.09 0 0 0 .804-.477c.017-.015.033-.015.033-.03.3-.442.174-1.09.592-1.443.35-.291.924-.252 1.315-.014.373.253.613.643.786 1.035.104.24.19.497.345.707v.015c.051.075.12.135.17.194.154.165.391.284.628.296.168.013.302-.094.454-.08.034.03.034.045.034.075"/></g><g><path fill="#6565ff" d="m135.874 104.22 1.174 2.08c.038.067.11.112.192.122l2.579.308c.207.025.292.253.144.385l-1.846 1.65a.21.21 0 0 0-.071.2l.464 2.296c.038.185-.177.328-.364.243l-2.315-1.062a.28.28 0 0 0-.235.003l-2.292 1.11c-.184.09-.403-.05-.37-.235l.416-2.305a.21.21 0 0 0-.074-.2l-1.881-1.609c-.152-.13-.071-.359.136-.388l2.571-.363a.25.25 0 0 0 .19-.126l1.129-2.105c.09-.17.359-.172.453-.005"/></g></g></g><g><path d="m111.478 108.903-.029-.003a.125.125 0 0 1-.093-.15l.484-2.068a.13.13 0 0 1 .15-.094.125.125 0 0 1 .093.15l-.484 2.069a.125.125 0 0 1-.121.096"/></g><g><path d="m113.256 108.674-.011-.001a.124.124 0 0 1-.113-.134 8.9 8.9 0 0 1 .671-2.682.123.123 0 0 1 .164-.066c.063.027.093.1.066.164a8.6 8.6 0 0 0-.653 2.605.125.125 0 0 1-.124.114"/></g><g><path d="M114.592 108.723a.13.13 0 0 1-.095-.043.125.125 0 0 1 .013-.177l2.257-1.945a.125.125 0 0 1 .175.013.125.125 0 0 1-.013.176l-2.256 1.946a.12.12 0 0 1-.081.03"/></g><g><path d="M36.701 109.834a.12.12 0 0 1-.105-.059l-1.498-2.4a.126.126 0 0 1 .04-.172.127.127 0 0 1 .172.04l1.497 2.4a.126.126 0 0 1-.04.172.12.12 0 0 1-.066.019"/></g><g><path d="M37.555 107.953a.125.125 0 0 1-.124-.11l-.278-2.156a.125.125 0 0 1 .107-.14c.066-.013.13.04.14.108l.279 2.157a.125.125 0 0 1-.108.14z"/></g><g><path d="M39.257 107.869h-.009a.125.125 0 0 1-.115-.134 12.5 12.5 0 0 1 .524-2.791.125.125 0 0 1 .239.074 12.2 12.2 0 0 0-.515 2.735.124.124 0 0 1-.124.116"/></g></g></g></svg>