<svg xmlns="http://www.w3.org/2000/svg" xml:space="preserve" id="woman-designer-using-animation-software" x="0" y="0"
     enable-background="new 0 0 170 170" version="1.1" viewBox="0 0 170 170">
  <g>
    <g>
      <g>
        <path d="M115.8215561,112.0068207c0.0882874,0.0380325,0.160881,0.1562729,0.2178574,0.2278595
				c0.138031,0.1734009,0.2658463,0.3551788,0.3926849,0.5368347c0.5690155,0.8149338,1.1046066,1.6536865,1.6393967,2.4912796
				c0.6924438,1.0845108,1.3750305,2.1753159,2.0540085,3.2683029c0.3342361,0.5380325,0.6674347,1.0767136,0.9998322,1.6158905
				c0.1538696,0.249588,0.3053207,0.5008163,0.4611588,0.7491837c0.1832581,0.2920837,0.4163437,0.3630447,0.699585,0.5343933
				c0.2584152,0.1563263,0.4400253,0.4336319,0.4800491,0.7329941c0.0209961,0.1570892,0.0049362,0.3165054-0.0111465,0.4741745
				c-0.0184402,0.1808243-0.0368881,0.3616486-0.0553284,0.5424652c-0.0122681,0.1202469-0.0305252,0.252594-0.1216888,0.3319626
				c-0.1426544,0.1241913-0.4111938,0.0892105-0.5971527,0.0866623c-0.3033371-0.0041504-0.6066666-0.0083084-0.9100037-0.0124588
				c-0.3773346-0.0051651-0.7546768-0.0103302-1.1320114-0.0154953c-0.4469833-0.0061264-0.893959-0.0122452-1.3409348-0.018364
				c-0.5122528-0.0070114-1.024498-0.0140228-1.5367508-0.0210419c-0.5731506-0.007843-1.1463013-0.0156937-1.7194595-0.0235367
				c-0.6296844-0.0086212-1.2593765-0.0172424-1.889061-0.0258636c-0.6818619-0.0093384-1.3637161-0.0186691-2.045578-0.0280075
				c-0.72966-0.0099869-1.4593201-0.0199814-2.1889801-0.0299683c-0.7730942-0.0105896-1.5461884-0.0211716-2.3192825-0.0317535
				c-0.8121567-0.0111237-1.624321-0.0222397-2.4364853-0.0333633c-0.8468552-0.0115891-1.693718-0.0231857-2.5405807-0.0347824
				c-0.8771896-0.0120087-1.7543793-0.0240173-2.6315765-0.036026c-0.9031525-0.0123672-1.8063126-0.0247345-2.7094727-0.0370941
				c-0.9247513-0.0126648-1.8495102-0.025322-2.7742615-0.0379868c-0.9419861-0.0128937-1.8839645-0.025795-2.8259506-0.0386887
				c-0.9548492-0.0130768-1.9096985-0.0261459-2.8645401-0.0392227c-0.9633408-0.0131836-1.9266891-0.0263748-2.8900299-0.039566
				c-0.9674683-0.0132446-1.9349365-0.0264893-2.9024048-0.0397339c-0.9672318-0.0132446-1.9344635-0.0264893-2.9016953-0.0397339
				c-0.9626236-0.013176-1.9252396-0.0263596-2.8878632-0.0395355c-0.9536514-0.0130539-1.9073029-0.0261154-2.8609467-0.0391693
				c-0.9403076-0.0128708-1.8806152-0.0257492-2.8209229-0.03862c-0.9225998-0.0126343-1.845192-0.0252686-2.7677917-0.0378952
				c-0.9005203-0.0123291-1.8010406-0.0246582-2.701561-0.0369873c-0.8740768-0.0119705-1.7481537-0.0239334-2.6222305-0.0359039
				c-0.8432655-0.0115433-1.6865311-0.0230865-2.5297966-0.0346375c-0.8080864-0.0110626-1.6161728-0.0221252-2.4242592-0.0331879
				c-0.7685394-0.0105209-1.5370789-0.0210419-2.3056183-0.0315704c-0.7246284-0.0099182-1.4492531-0.0198364-2.1738815-0.0297623
				c-0.6763458-0.0092545-1.3526917-0.0185165-2.0290375-0.0277786c-0.6236954-0.0085373-1.2473946-0.0170746-1.8710899-0.0256195
				c-0.5666847-0.0077591-1.1333656-0.0155182-1.7000465-0.0232697c-0.5052986-0.0069199-1.0105972-0.0138397-1.5158958-0.0207596
				c-0.4395447-0.0060196-0.8790932-0.0120316-1.3186417-0.0180511c-0.3694305-0.0050583-0.7388611-0.0101166-1.1082916-0.0151749
				c-0.2949409-0.0040359-0.5898857-0.0080795-0.8848305-0.0121155c-0.2160912-0.0029602-0.4321861-0.0059128-0.6482773-0.008873
				c-0.1328697-0.0018234-0.2657433-0.0036392-0.398613-0.0054626c-0.0452843-0.000618-0.0905685-0.001236-0.1358528-0.0018539
				l8.1187553-10.4930878H115.8215561z"></path>
      </g>
        <g>
        <path fill="#fff" d="M115.1765976,110.3216782c0.518219,0.2232513,7.4277954,11.6093674,7.4277954,11.6093674
				l-81.5330505-1.1162796l8.1187553-10.4930878H115.1765976z"></path>
            <path d="M122.6042786,122.0560608c-0.0004883,0-0.0009689,0-0.0019455,0l-81.5326385-1.1169586
				c-0.04776-0.0009766-0.0901566-0.0282669-0.1111107-0.0701752c-0.0204697-0.0428848-0.01511-0.0935669,0.0141296-0.1306076
				l8.1189079-10.4922028c0.0233917-0.031189,0.0599403-0.0487289,0.0984421-0.0487289h65.9863434
				c0.0170593,0,0.0336227,0.0038986,0.0492172,0.0097427c0.5282669,0.2280731,6.3279724,9.7524338,7.4853821,11.6598434
				c0.0233917,0.0380096,0.02388,0.0867462,0.0014648,0.126709
				C122.6905365,122.0316925,122.6491165,122.0560608,122.6042786,122.0560608z M41.3226204,120.6934891l81.0579834,1.1101303
				c-2.7012711-4.4473648-6.7407455-10.9483414-7.2412262-11.35672H49.2514687L41.3226204,120.6934891z"></path>
      </g>
        <g>
        <polygon points="112.067 112.524 108.763 112.524 109.476 114.194 112.816 114.194"></polygon>
      </g>
        <g>
        <polygon points="113.507 116.126 110.202 116.126 110.916 117.796 114.255 117.796"></polygon>
      </g>
        <g>
        <polygon fill="#fff" points="107.269 114.194 103.964 114.194 104.678 115.863 108.017 115.863"></polygon>
            <path d="M108.01754,115.9878311h-3.3396683c-0.0497055,0-0.0950317-0.0302124-0.1145248-0.0760193l-0.7139359-1.6695938
				c-0.016571-0.0380096-0.0126724-0.0828476,0.010231-0.1179352c0.0233917-0.034111,0.0623779-0.0555496,0.1042938-0.0555496
				h3.305069c0.0492172,0,0.0935669,0.0292358,0.1140289,0.0740738l0.7485428,1.6695862
				c0.0170517,0.0380173,0.0136414,0.0828476-0.0092621,0.1189117
				C108.099411,115.9663925,108.0599365,115.9878311,108.01754,115.9878311z M104.760231,115.7383194h3.0648117l-0.63694-1.4200745
				h-3.0350876L104.760231,115.7383194z"></path>
      </g>
        <g>
        <polygon points="98.817 114.457 95.512 114.457 96.226 116.126 99.565 116.126"></polygon>
      </g>
        <g>
        <polygon points="104.045 116.961 100.74 116.961 101.454 118.631 104.793 118.631"></polygon>
      </g>
        <g>
        <polygon points="102.705 112.007 99.4 112.007 100.114 113.677 103.454 113.677"></polygon>
      </g>
        <g>
        <line x1="148.875" x2="21.125" y1="104.574" y2="102.916" fill="#fff"></line>
            <path d="M148.8752289,104.6983643c-0.0004883,0-0.0009766,0-0.0014648,0l-127.7504578-1.6569214
				c-0.0692005-0.0009766-0.1242676-0.0575027-0.1232929-0.126709c0.0009747-0.068222,0.05653-0.1228027,0.1247559-0.1228027
				c0.0004864,0,0.0009747,0,0.001461,0l127.7504654,1.6569214c0.0691986,0.0009689,0.1242676,0.0575027,0.123291,0.1267014
				C148.9990082,104.6437836,148.9434509,104.6983643,148.8752289,104.6983643z"></path>
      </g>
        <g>
        <path d="M79.1890869,107.3992004c0,0.8957138,18.080162,0.8957138,18.080162,0v-1.9555893
				c0-0.9389038-18.080162-0.9389038-18.080162,0V107.3992004z"></path>
      </g>
        <g>
        <path fill="#fff" d="M82.8825531,106.0748825c0,0.4620514,12.629631,0.4620514,12.629631,0l0.0000076-9.0288086H82.8826675
				L82.8825531,106.0748825z"></path>
            <path d="M89.1973648,106.5453415c-1.6564331,0-3.2002869-0.0302124-4.3474655-0.0867462
				c-2.0921021-0.1013641-2.0921021-0.2387924-2.0921021-0.3840179v-9.0282593c0-0.0691986,0.0560455-0.1247559,0.1247559-0.1247559
				h12.629631c0.0687103,0,0.1247559,0.0555573,0.1247559,0.1247559v9.0282593
				C95.63694,106.2032318,95.63694,106.5453415,89.1973648,106.5453415z M83.007309,106.0229263
				c0.8411331,0.3781662,11.5389862,0.3781662,12.3801193,0v-8.8518524H83.007309V106.0229263z"></path>
      </g>
        <g>
        <path fill="#fff" d="M51.9147911,98.2109299h71.8403778c1.2665634,0,2.2933197-1.0267563,2.2933197-2.2933197V49.8098869
				c0-1.2665634-1.0267563-2.2933197-2.2933197-2.2933197H51.9147911c-1.2665634,0-2.2933159,1.0267563-2.2933159,2.2933197
				v46.1077232C49.6214752,97.1841736,50.6482277,98.2109299,51.9147911,98.2109299z"></path>
            <path d="M123.7597351,98.3357925H51.9103394c-1.3308983,0-2.4137421-1.0828476-2.4137421-2.4132538V49.805584
				c0-1.3313828,1.0828438-2.4142265,2.4137421-2.4142265h71.8493958c1.3309021,0,2.4137497,1.0828438,2.4137497,2.4142265
				v46.1169548C126.1734848,97.2529449,125.0906372,98.3357925,123.7597351,98.3357925z M51.9103394,47.6408691
				c-1.19347,0-2.1642303,0.9707603-2.1642303,2.1647148v46.1169548c0,1.1929779,0.9707603,2.1637421,2.1642303,2.1637421
				h71.8493958c1.1934738,0,2.1642303-0.9707642,2.1642303-2.1637421V49.805584
				c0-1.1939545-0.9707565-2.1647148-2.1642303-2.1647148H51.9103394z"></path>
      </g>
        <g>
        <path fill="#d4eef4" d="M56.1510353,94.3025589h62.9293251c1.0876541,0,1.9693756-0.8817139,1.9693756-1.9693756V53.5434418
				c0-1.0876579-0.8817215-1.9693794-1.9693756-1.9693794H56.1510353c-1.0876579,0-1.9693794,0.8817215-1.9693794,1.9693794
				v38.7897415C54.1816559,93.420845,55.0633774,94.3025589,56.1510353,94.3025589z"></path>
      </g>
        <g>
        <path fill="#fff" d="M84.7823257,79.5369644h30.3947449c1.0491562,0,1.8996582-0.850502,1.8996582-1.8996582v-19.642067
				c0-1.0491524-0.850502-1.8996582-1.8996582-1.8996582H84.7823257c-1.0491486,0-1.8996582,0.8505058-1.8996582,1.8996582
				v19.642067C82.8826675,78.6864624,83.7331772,79.5369644,84.7823257,79.5369644z"></path>
            <path d="M115.1807938,79.6613312H84.7787552c-1.1145248,0-2.0209579-0.9064331-2.0209579-2.0204697V57.991745
				c0-1.1140366,0.9064331-2.0204697,2.0209579-2.0204697h30.4020386c1.1140366,0,2.0204697,0.9064331,2.0204697,2.0204697
				v19.6491165C117.2012634,78.7548981,116.2948303,79.6613312,115.1807938,79.6613312z M84.7787552,56.2207909
				c-0.9766083,0-1.7714462,0.7943459-1.7714462,1.7709541v19.6491165c0,0.9766083,0.794838,1.7709579,1.7714462,1.7709579
				h30.4020386c0.9766083,0,1.7709579-0.7943497,1.7709579-1.7709579V57.991745
				c0-0.9766083-0.7943497-1.7709541-1.7709579-1.7709541H84.7787552z"></path>
      </g>
        <g>
        <g>
          <g>
            <ellipse cx="91.044" cy="69.139" rx="2.403" ry="2.105" transform="rotate(-34.812 91.044 69.14)"></ellipse>
          </g>
            <g>
            <ellipse cx="90.893" cy="69.244" fill="#fff" rx="1.026" ry=".899"
                     transform="rotate(-34.812 90.893 69.244)"></ellipse>
          </g>
        </g>
            <g>
          <g>
            <ellipse cx="105.246" cy="76.625" rx="2.403" ry="2.105"
                     transform="rotate(-34.812 105.246 76.625)"></ellipse>
          </g>
                <g>
            <ellipse cx="105.095" cy="76.73" fill="#fff" rx="1.026" ry=".899"
                     transform="rotate(-34.812 105.095 76.73)"></ellipse>
          </g>
        </g>
            <g>
          <path fill="#ffcd00" d="M104.0740738,66.6821365c-0.7957764-0.4969711-1.5369034-1.0651474-2.2914963-1.6152267
					c-1.6905594-1.2323608-3.4534912-2.3770218-5.2800751-3.4283142c-1.1865082-0.6828957-2.4383698-1.3384933-3.8565216-1.4832954
					c-1.4181442-0.1448059-3.0510864,0.3258133-3.9627151,1.4916573c-0.8650513,1.1062889-0.9006653,2.6082535-0.4139938,3.7943268
					c0.4866791,1.1860809,1.4175491,2.1157913,2.3716278,2.9731903c2.134964,1.9186172,4.4993744,3.6255798,7.1625137,4.8453445
					c0.8661118,0.3966904,1.761116,0.7407532,2.660881,1.0733109c1.0979233,0.4057999,2.2039108,0.7948837,3.3174438,1.1670609
					c1.2042389,0.402504,2.4312668,0.7879868,3.7311249,0.8814392c1.2998505,0.0934525,2.6954422-0.1289063,3.8487244-0.8536682
					s2.0095444-2.0100098,1.9466171-3.2683029c-0.0315704-0.6313553-0.2236862-1.2613983-0.6106873-1.7454605
					c-0.4561234-0.5705185-1.1569824-0.7328873-1.8422928-0.9813461c-0.0989761-0.142334-0.6465759-0.2344131-0.8217239-0.297905
					c-0.2949753-0.1069489-0.5899506-0.2138901-0.8849258-0.3208313c-0.6110229-0.2215271-1.2220459-0.4430466-1.8330688-0.6645737
					C106.1749268,67.8360291,105.0878983,67.3152924,104.0740738,66.6821365z"></path>
        </g>
            <g>
          <path fill="#fff" d="M104.7514877,65.3613052c-0.7828369-0.478363-1.5106049-1.0273361-2.2519608-1.5583687
					c-1.660881-1.189682-3.3945999-2.2923317-5.1925812-3.3024864c-1.167923-0.6561699-2.4009781-1.2847214-3.805191-1.409481
					s-3.0289612,0.3576393-3.9471359,1.5140572c-0.8712769,1.0973434-0.9250946,2.5731239-0.4572067,3.7321854
					c0.4678879,1.1590576,1.3793182,2.0608139,2.3146591,2.8912659c2.0930328,1.8583069,4.4161453,3.5058746,7.0414276,4.6712036
					c0.8537979,0.3789902,1.7368927,0.705925,2.624855,1.0214996c1.083519,0.3850784,2.1752319,0.7536316,3.2746353,1.1054993
					c1.1889572,0.3805237,2.4007187,0.7440567,3.6882858,0.8198318s2.6739349-0.1598358,3.8262711-0.8859711
					c1.1523285-0.72612,2.0170898-1.9991455,1.9702148-3.2343597c-0.0235214-0.6197815-0.2062302-1.23629-0.5839462-1.7070084
					c-0.4451828-0.5547867-1.1380386-0.7056351-1.814415-0.941246c-0.0963745-0.1385956-0.6381454-0.22229-0.8110123-0.2825012
					c-0.2911301-0.1014175-0.5822601-0.2028275-0.8733902-0.3042374c-0.6030579-0.2100677-1.2061157-0.4201355-1.8091736-0.6302109
					C106.8201141,66.4688568,105.7488251,65.9707336,104.7514877,65.3613052z"></path>
                <path d="M108.507309,74.9849167c-0.1666718,0-0.3250504-0.0048752-0.4731979-0.0136414
					c-1.2880173-0.0760269-2.4941559-0.4337234-3.7192993-0.8255386c-1.0969772-0.3508759-2.2002945-0.7231979-3.2782669-1.1062393
					c-0.8421021-0.3001938-1.7441483-0.6315765-2.6335297-1.0253372c-2.4093552-1.0692062-4.7231903-2.6042862-7.0735855-4.692009
					c-0.8762131-0.7777786-1.8518448-1.7105255-2.3474579-2.9385986c-0.5380173-1.3323555-0.355751-2.8099365,0.4751434-3.85672
					c0.8654938-1.0896683,2.4546738-1.700779,4.0560379-1.5594559c1.4444504,0.1276817,2.6963959,0.77388,3.8547745,1.4239769
					c1.7909393,1.0058479,3.5419159,2.1198845,5.2041931,3.3099403l0.4395752,0.3167648
					c0.5808945,0.421051,1.181282,0.855751,1.8045807,1.2368393l0,0c0.9736786,0.5945435,2.0399551,1.0945435,3.1705627,1.4883041
					l2.6822586,0.9347c0.0462952,0.0155945,0.1208572,0.0331345,0.2056503,0.0536041
					c0.3016586,0.0721283,0.5297318,0.1335297,0.63694,0.2387924c0.0950317,0.0331421,0.1900635,0.0643311,0.2850876,0.09552
					c0.5682297,0.1861572,1.1554565,0.3781662,1.5545807,0.8752441c0.3679352,0.4590607,0.5848007,1.0916138,0.6111145,1.7807007
					c0.0458069,1.2075958-0.7694931,2.5506821-2.0287552,3.3440475
					C110.7689972,74.800705,109.4946365,74.9849167,108.507309,74.9849167z M93.0526276,59.1964226
					c-1.36306,0-2.6642303,0.5594521-3.4005814,1.4863548c-0.9264145,1.1666641-0.8343048,2.6286545-0.4390869,3.6072083
					c0.4756393,1.1783676,1.4273911,2.0867462,2.2821655,2.8450317c2.3308945,2.0711517,4.6237793,3.5916138,7.0092621,4.6510696
					c0.8815765,0.3908386,1.7782593,0.7202759,2.6159821,1.0175476c1.075531,0.3830414,2.1759262,0.7543793,3.270462,1.1042862
					c1.2090683,0.38694,2.3986359,0.739769,3.6578979,0.8138428c0.992691,0.0604248,2.4468765-0.044838,3.7524338-0.866478
					c1.1861649-0.7475586,1.9541931-2.0029221,1.9117966-3.1237793c-0.02388-0.6364517-0.2217331-1.2173462-0.5565338-1.6344986
					c-0.3523407-0.4385986-0.8791428-0.6111145-1.4376221-0.7943497c-0.1062393-0.0350876-0.2134476-0.0701752-0.3201752-0.1072159
					c-0.0248489-0.0087662-0.0462952-0.0253372-0.0614014-0.0467834c-0.0501938-0.0623779-0.379631-0.1403503-0.5204697-0.1744614
					c-0.0945435-0.0224152-0.1773834-0.0428848-0.2290421-0.0604248l-2.6827469-0.9347
					c-1.1471786-0.3996124-2.2300186-0.9074097-3.2183228-1.5116959c0,0,0,0-0.0004883,0
					c-0.6315765-0.3859634-1.2358704-0.8235855-1.8206635-1.2465897l-0.4385986-0.3167648
					c-1.6549683-1.1851845-3.3981476-2.2933693-5.1807938-3.2943459c-1.1349945-0.6374245-2.3601379-1.2699814-3.7553635-1.3937607
					C93.3445435,59.2022705,93.1978531,59.1964226,93.0526276,59.1964226z"></path>
        </g>
            <g>
          <path fill="#fff"
                d="M97.5834808,62.183075c-0.8089371,1.9187851-2.2987518,3.6388016-4.1425781,4.7826843"></path>
                <path d="M93.4410324,67.0901794c-0.0414276,0-0.0823593-0.020462-0.1062393-0.0594482
					c-0.0360641-0.0584793-0.0180283-0.1354828,0.040451-0.1715393c1.8347931-1.1374283,3.2884979-2.8157959,4.0930786-4.7251472
					c0.0268021-0.0643272,0.099411-0.0945435,0.1632538-0.0662766c0.0638428,0.0272903,0.0935669,0.1003876,0.0667648,0.1637421
					c-0.8245621,1.9561424-2.3133545,3.6754341-4.1915207,4.8401527
					C93.486351,67.0843353,93.4634476,67.0901794,93.4410324,67.0901794z"></path>
        </g>
            <g>
          <path d="M99.3708572,69.7958374c-0.0399628,0-0.0794373-0.0194931-0.1033173-0.0545807
					c-0.0384979-0.0575104-0.02388-0.1345062,0.0336304-0.1734924c0.6803055-0.4600372,1.294342-1.1091614,1.8245544-1.9278717
					c0.4902573-0.7553635,0.8591614-1.5740738,1.1851883-2.3460083c0.0263138-0.0633469,0.0979538-0.0945358,0.1637421-0.0662766
					c0.0633545,0.0272903,0.0930786,0.1003952,0.0662766,0.1637421c-0.3304062,0.7826538-0.705162,1.61306-1.2056503,2.3849945
					c-0.5487366,0.8460007-1.1861649,1.5185165-1.8947372,1.9980469
					C99.4190979,69.7890091,99.3952179,69.7958374,99.3708572,69.7958374z"></path>
        </g>
            <g>
          <path d="M104.2987289,71.1642532c-0.0316772,0-0.0633545-0.0116959-0.0877228-0.0360565
					c-0.0492172-0.0487366-0.0492172-0.1276855-0.0009689-0.1764145c0.4278717-0.431778,0.7568207-0.8791428,0.9775772-1.3294373
					c0.1622849-0.3304062,0.2758331-0.6851807,0.3655014-0.9873276c0.0804062-0.2748566,0.15448-0.5506821,0.2217331-0.8265076
					c0.016571-0.0672531,0.0823593-0.1111145,0.1510696-0.0916214c0.0667648,0.0155945,0.1077042,0.0838242,0.0916214,0.1501007
					c-0.0682297,0.2797241-0.1432724,0.5594482-0.2251434,0.8382034c-0.092598,0.3128662-0.2100449,0.6793365-0.3806076,1.0263138
					c-0.2329407,0.4746628-0.5774841,0.9444427-1.0243683,1.3957138
					C104.36306,71.1515884,104.3308945,71.1642532,104.2987289,71.1642532z"></path>
        </g>
            <g>
          <path d="M108.5779648,71.9371567c-0.0394669,0-0.0779724-0.0185165-0.1023331-0.0536041
					c-0.0394745-0.0565262-0.0253448-0.1344986,0.031189-0.1734848c0.3274841-0.2280731,0.7451248-0.5389862,1.0716324-0.9220276
					c0.2285614-0.2670593,0.5112076-0.6881104,0.5623779-1.1764145c0.007309-0.0691986,0.0696869-0.1257324,0.1374283-0.1111145
					c0.0682297,0.0068283,0.1179352,0.0682297,0.1111145,0.1364517c-0.0584793,0.5526352-0.3698883,1.0194931-0.6208572,1.3128662
					c-0.3450317,0.4044876-0.7792435,0.7280731-1.1194,0.9649124
					C108.6276779,71.930336,108.6028214,71.9371567,108.5779648,71.9371567z"></path>
        </g>
      </g>
        <g>
        <rect width="57.177" height="1.87" x="59.9" y="82.536" fill="#6565ff"></rect>
      </g>
        <g>
        <rect width="57.177" height="1.87" x="59.9" y="86.296" fill="#fd99cb"></rect>
      </g>
        <g>
        <rect width="57.177" height="1.87" x="59.9" y="89.832" fill="#fe6734"></rect>
      </g>
        <g>
        <g>
          <ellipse cx="102.786" cy="87.1" rx="2.224" ry="1.918"></ellipse>
        </g>
            <g>
          <ellipse cx="102.066" cy="87.137" fill="#fff" rx="2.224" ry="1.918"></ellipse>
                <path d="M102.0662766,89.1788712c-1.2953262,0-2.3489304-0.9161758-2.3489304-2.0419083
					c0-1.126709,1.0536041-2.0428848,2.3489304-2.0428848c1.2953186,0,2.349411,0.9161758,2.349411,2.0428848
					C104.4156876,88.2626953,103.3615952,89.1788712,102.0662766,89.1788712z M102.0662766,85.3435898
					c-1.1574097,0-2.0994186,0.8040924-2.0994186,1.7933731c0,0.9883041,0.942009,1.7923965,2.0994186,1.7923965
					c1.1578903,0,2.0998993-0.8040924,2.0998993-1.7923965C104.1661758,86.1476822,103.2241669,85.3435898,102.0662766,85.3435898z"></path>
        </g>
      </g>
        <g>
        <path fill="#fff" d="M57.1090965,66.9657593H76.679924c0.4718704,0,0.8544006-0.3825226,0.8544006-0.854393v-6.1851578
				c0-0.4718704-0.3825302-0.854393-0.8544006-0.854393H57.1090965c-0.4718704,0-0.8543968,0.3825226-0.8543968,0.854393v6.1851578
				C56.2546997,66.5832367,56.6372261,66.9657593,57.1090965,66.9657593z"></path>
      </g>
        <g>
        <g>
          <ellipse cx="84.406" cy="83.144" rx="2.224" ry="1.918"></ellipse>
        </g>
            <g>
          <ellipse cx="83.687" cy="83.18" fill="#fff" rx="2.224" ry="1.918"></ellipse>
                <path d="M83.6866455,85.2227325c-1.2953186,0-2.349411-0.9161758-2.349411-2.0428848
					c0-1.1257324,1.0540924-2.0419083,2.349411-2.0419083c1.2953262,0,2.3489304,0.9161758,2.3489304,2.0419083
					C86.0355759,84.3065567,84.9819717,85.2227325,83.6866455,85.2227325z M83.6866455,81.3874512
					c-1.1578903,0-2.0998993,0.8040924-2.0998993,1.7923965c0,0.9892807,0.942009,1.7933731,2.0998993,1.7933731
					c1.1574097,0,2.0994186-0.8040924,2.0994186-1.7933731C85.7860641,82.1915436,84.8440552,81.3874512,83.6866455,81.3874512z"></path>
        </g>
      </g>
        <g>
        <g>
          <ellipse cx="92.229" cy="90.748" rx="2.224" ry="1.918"></ellipse>
        </g>
            <g>
          <ellipse cx="91.51" cy="90.785" fill="#fff" rx="2.224" ry="1.918"></ellipse>
                <path d="M91.5097427,92.8270187c-1.2953186,0-2.3489227-0.9161758-2.3489227-2.0419083
					c0-1.126709,1.0536041-2.0428848,2.3489227-2.0428848c1.2953262,0,2.3494186,0.9161758,2.3494186,2.0428848
					C93.8591614,91.9108429,92.805069,92.8270187,91.5097427,92.8270187z M91.5097427,88.9917374
					c-1.157402,0-2.099411,0.8040924-2.099411,1.7933731c0,0.9883041,0.942009,1.7923965,2.099411,1.7923965
					c1.1578979,0,2.0999069-0.8040924,2.0999069-1.7923965C93.6096497,89.7958298,92.6676407,88.9917374,91.5097427,88.9917374z"></path>
        </g>
      </g>
        <g>
        <g>
          <path fill="#ffc69f" d="M98.7376862,132.714859c0.4001465-1.1439667,0.2663727-2.4977722,0.4531326-3.7443085
					c0.3743591-2.4152832,1.9840164-4.266571,2.1829987-6.7275009c0.0114441-0.167778,0.0204239-0.3594437,0.0977783-0.5096741
					c0.1610336-0.3069992,0.514122-0.2300262,0.748085-0.0290985c0.5917206,0.5351028,0.7816696,1.6009369,0.8087616,2.5698776
					c0.0278702,1.0751419-0.0672379,2.154335-0.2984848,3.2050705c0.2656631-0.457634,0.8871765-0.6734619,1.2274628-1.1170349
					c0.4163589-0.5427322,0.7674942-1.1352005,1.0471344-1.7593613c0.559227-1.2482224,0.8330383-2.6266785,0.7679749-3.994194
					c-0.0164337-0.3453674-0.0515366-0.7035828,0.0715866-1.0266724c0.1231232-0.3230972,0.4662323-0.5947876,0.7998505-0.5039673
					c0.1488266,0.0405121,0.2714615,0.144722,0.3802032,0.2541122c1.5871277,1.5964661,0.5457001,4.4667206-0.0678711,6.2961884
					c0.1513596-0.1929245,0.3792419-0.1565475,0.5729904-0.0360336c0.2355881,0.147049,0.4435501,0.3721771,0.5712662,0.684761
					c0.0584106,0.1548157,0.0973587,0.328064,0.0968246,0.4984589c0.0077057,0.110672-0.0896454,0.4497375-0.0648727,0.5183334
					c0.0246582,0.0683823,0.2709503,0.1796036,0.3285522,0.2566071c0.099823,0.1424637,0.1717453,0.3243027,0.20858,0.512291
					c0.069313,0.3672638,0.0227737,0.7506866-0.0392075,1.1222992c0.2746124,0.110733,0.5051956,0.4192352,0.5679932,0.7925568
					c0.0805664,0.408844-0.0499573,0.7005463-0.182251,1.045929c-0.1363754,0.3753815-0.2949448,0.7062836-0.5129929,1.0136414
					c-0.4680023,0.6843414-1.0602875,1.1962891-1.6217117,1.7319031c-0.8326111,0.7748871-1.687706,1.7144318-1.9500885,3.0575409"></path>
            <path d="M104.931282,136.951767c-0.0077972,0-0.0160828-0.0009766-0.02388-0.0019531
					c-0.0677338-0.0136414-0.1115952-0.078949-0.0984421-0.147171c0.2680359-1.3703613,1.1135483-2.3109131,1.9878159-3.1247559
					l0.2631607-0.2485352c0.4683228-0.4405518,0.9527283-0.8957062,1.3406448-1.4619904
					c0.1968765-0.2787476,0.3547745-0.5916138,0.4980469-0.9863586l0.0277786-0.072113
					c0.1218338-0.3138428,0.2173538-0.5614166,0.1496124-0.9074097c-0.0545807-0.3235931-0.2519531-0.6042938-0.4922028-0.7007904
					c-0.0540924-0.0224152-0.0857697-0.0789337-0.0765076-0.1364441c0.0687103-0.4103394,0.1013641-0.7504883,0.0394669-1.0779724
					c-0.0336227-0.1754379-0.1003876-0.3401566-0.1881027-0.4639359c-0.0131607-0.016571-0.0843124-0.0623779-0.1271973-0.0896683
					c-0.1169586-0.0740738-0.1895676-0.1237869-0.2163696-0.1959076c-0.02388-0.0653076-0.0077972-0.1588745,0.0248489-0.3313828
					c0.0151062-0.0779724,0.0355759-0.1851883,0.0331421-0.2212524c0-0.1510696-0.0307007-0.307991-0.0896683-0.4629593
					c-0.1062393-0.2612076-0.2865524-0.4775848-0.5204697-0.6228104c-0.1232986-0.078949-0.2943497-0.1383972-0.4088669,0.0068207
					c-0.037529,0.04776-0.1038055,0.0604324-0.1574097,0.0331421c-0.0531235-0.0292435-0.0779724-0.0925903-0.0589676-0.1501007
					l0.0638428-0.1900558c0.6023331-1.7884979,1.5126648-4.4902496,0.034111-5.9785538
					c-0.0901566-0.0896683-0.1993179-0.1871338-0.3240738-0.2202759c-0.266571-0.0799179-0.5501938,0.1617966-0.6510696,0.4278793
					c-0.1003952,0.2631531-0.0848007,0.568222-0.0692062,0.8635406l0.0058517,0.1120911
					c0.0653,1.3674469-0.2041931,2.7680283-0.7787552,4.0506821c-0.2850876,0.6374283-0.6422958,1.2378159-1.0618896,1.7845993
					c-0.1691055,0.2202682-0.397171,0.3840103-0.6174469,0.5419083c-0.242691,0.1744614-0.4722214,0.33918-0.6013641,0.5614014
					c-0.0307007,0.0545807-0.0960007,0.0760269-0.1530228,0.0536118c-0.0570145-0.0224228-0.0896683-0.0828476-0.0765076-0.1423035
					c0.2246552-1.0214386,0.3240738-2.0896683,0.2953186-3.1754379c-0.0229034-0.8352814-0.1749496-1.9444427-0.76754-2.4805069
					c-0.1228104-0.1052628-0.2772903-0.1598434-0.3879166-0.1393738c-0.07164,0.0136414-0.1257324,0.0575027-0.1656952,0.1335297
					c-0.0609131,0.1179276-0.0721207,0.2836227-0.081871,0.4298248c0,0.0009689-0.0024338,0.0321579-0.0024338,0.0321579
					c-0.1072083,1.3284607-0.6242676,2.4931793-1.1237793,3.6198883c-0.4361649,0.983429-0.88694,1.9999924-1.0599442,3.116951
					c-0.0691986,0.4600372-0.0945435,0.9463959-0.1189041,1.41716c-0.0409393,0.7953186-0.0838242,1.6169586-0.3396683,2.3489227
					c-0.0229111,0.0653076-0.0945435,0.1003876-0.1588745,0.0769958c-0.0653-0.0233917-0.099411-0.0945435-0.0769958-0.1588593
					c0.2446365-0.6988373,0.284111-1.4668732,0.3265076-2.2797394c0.0248566-0.4766083,0.0502014-0.968811,0.1213455-1.4424896
					c0.1778793-1.1500931,0.6359634-2.181282,1.0784607-3.1793365c0.4912262-1.1081848,0.9995117-2.2534103,1.1033173-3.5389862
					c0.0136414-0.1998062,0.0268021-0.3927841,0.1115952-0.5575027c0.0755386-0.144249,0.1929855-0.2358704,0.3401566-0.2631607
					c0.1876221-0.0389862,0.4132538,0.0360641,0.5998993,0.1968842c0.6598511,0.596489,0.8274918,1.7768021,0.8518524,2.66082
					c0.0248566,0.9434662-0.0453186,1.8742676-0.2085724,2.77388c0.1106186-0.09552,0.2309952-0.1812897,0.349411-0.2670593
					c0.205658-0.147171,0.418129-0.3001938,0.5648193-0.4912262c0.407402-0.531189,0.7548676-1.1150131,1.0316772-1.7339172
					c0.55896-1.2475662,0.8206558-2.6091614,0.757309-3.9376221l-0.0053635-0.1101379
					c-0.0170593-0.32164-0.034111-0.6539993,0.0852814-0.9668579c0.1393814-0.3655014,0.540451-0.6949387,0.9493179-0.578949
					c0.1808014,0.04776,0.32164,0.1715393,0.4356766,0.2845993c1.5575027,1.5672531,0.6822586,4.2826462,0.0614014,6.1286545
					c0.1325531-0.016571,0.2753372,0.0233917,0.4215393,0.1140366c0.2782669,0.1744614,0.492691,0.4307938,0.620369,0.7446365
					c0.0701752,0.1861572,0.1067276,0.373291,0.1062393,0.5448303c0.0043869,0.0545807-0.0112076,0.1413269-0.0370407,0.2768097
					c-0.0116959,0.0614014-0.0282593,0.1500931-0.0316696,0.1939545c0.0263138,0.0214386,0.0784531,0.0545807,0.1125717,0.0760193
					c0.0794296,0.0516586,0.15448,0.0994186,0.194931,0.1530228c0.1091614,0.1559448,0.1905441,0.3547745,0.2309952,0.5643311
					c0.0667648,0.3547668,0.0316772,0.7231903-0.0233917,1.0731049c0.2782593,0.1549683,0.4907379,0.4746552,0.5526276,0.8440399
					c0.0813828,0.413269-0.0365448,0.7192993-0.1617889,1.0428925l-0.0268097,0.0691986
					c-0.1505814,0.4142303-0.318222,0.7456207-0.5272903,1.0409393c-0.4020462,0.5877228-0.8961945,1.051651-1.3747559,1.5019531
					l-0.2626648,0.2485352c-0.8445435,0.7855682-1.6598434,1.6900482-1.9142303,2.9912262
					C105.0419083,136.9108276,104.9897614,136.951767,104.931282,136.951767z"></path>
        </g>
            <g>
          <path d="M105.9907379,127.063858c-0.0345993,0-0.0691986-0.0146255-0.0940552-0.0428848
					c-0.0453186-0.0516586-0.0399628-0.1306076,0.0116959-0.1754456c0.4088669-0.3576965,0.7163696-0.8421021,0.8664703-1.3635406
					c0.0185165-0.0662766,0.0862579-0.1042938,0.1544876-0.0857697c0.0662766,0.0194931,0.1042862,0.0877151,0.0852814,0.1539917
					c-0.1627731,0.5672531-0.4975662,1.0935669-0.9415207,1.48246
					C106.0492172,127.0541077,106.0199738,127.063858,105.9907379,127.063858z"></path>
        </g>
            <g>
          <path d="M107.1929779,128.4849091c-0.0331345,0-0.0662766-0.0126648-0.0906448-0.0389862
					c-0.0472717-0.0497131-0.0453186-0.1286621,0.0048752-0.1764221c0.3313828-0.3138351,0.6052628-0.6783524,0.8138428-1.0847855
					c0.0316772-0.0633545,0.105751-0.0848007,0.168129-0.0545807c0.0614014,0.031189,0.0852814,0.1072083,0.0540924,0.1676407
					c-0.2217407,0.4317703-0.5126724,0.8196869-0.8645248,1.1530151
					C107.2543793,128.4732056,107.2236786,128.4849091,107.1929779,128.4849091z"></path>
        </g>
            <g>
          <path d="M107.8411255,130.2032318c-0.0370331,0-0.0740738-0.016571-0.0984421-0.04776
					c-0.0423965-0.0545807-0.0326462-0.1335297,0.0219345-0.1754456c0.2860565-0.2231903,0.5043869-0.5194855,0.6310883-0.85672
					c0.0243683-0.0643311,0.09552-0.09552,0.16082-0.0730896c0.0643234,0.024353,0.0969772,0.0964813,0.0730972,0.1608124
					c-0.1432724,0.3810883-0.3893738,0.7144165-0.7119904,0.9658813
					C107.8952179,130.194458,107.8679276,130.2032318,107.8411255,130.2032318z"></path>
        </g>
      </g>
        <g>
        <rect width="9.414" height="8.416" x="61.547" y="88.643" fill="#ffc69f"></rect>
      </g>
        <g>
        <path fill="#ffc69f" d="M69.708519,89.7339401c4.243721-2.2593155,6.89254-7.205307,6.4211197-11.9898071
				c-0.2873993-0.0220642-0.4166031-0.1464844-0.6921921-0.2309875c-1.1781311-0.3612518-2.4357452-0.460762-3.6560364-0.2892838"></path>
      </g>
        <g>
        <path fill="#68cc00" d="M54.1816559,100.011673c-3.4883995,0.6254501-7.0056,1.5764389-9.9024277,3.59375
				c-3.8937187,2.711525-6.2703323,7.0688019-7.9463043,11.4711609c-2.8010292,7.3576126-4.02174,15.2968597-3.5584259,23.1432343
				c1.6856613-0.1597443,3.375061,0.1547241,5.0627327,0.2922363c1.6876717,0.1375275,3.473484,0.0761566,4.9427948-0.7546387"></path>
      </g>
        <g>
        <path fill="#68cc00" d="M81.8686447,100.2387619c2.3623428,0.1380234,4.7821426,0.2893066,6.9505997,1.2366943
				c2.7480621,1.2006073,4.8421707,3.5986633,6.1944885,6.2754822c2.0759811,4.109314,2.9921417,8.660759,3.9130325,13.1346207
				c0.8931656,4.3391266,2.3803864,8.8664093,2.0457993,13.3336334l4.7033539,2.9487915
				c-0.0725784,1.0740356-1.0324249,1.9733124-2.0076752,2.4290314c-0.9752579,0.4557037-2.0782623,0.5395813-3.1538696,0.58284
				c-2.3579712,0.0948029-4.7312469,0.0274353-7.0560379-0.3779755c-0.9471664-0.1651764-1.9088593-0.3964691-2.705162-0.935257
				c-1.2899551-0.872818-1.9445419-2.39888-2.5329132-3.8409424"></path>
      </g>
        <g>
        <path fill="#68cc00" d="M38.2075462,138.3045349c0.1665764-9.6033936,1.6789017-19.1802826,4.4740715-28.3323364
				c0.6805954-2.2284393,1.4743156-4.4985428,2.9946938-6.2179108c2.7238846-3.0803833,7.0975609-3.7157974,11.1040268-4.0364227
				c6.1870193-0.4951324,12.3964119-0.6862106,18.600666-0.5723877c3.6545029,0.0670471,7.5044785,0.301796,10.5770569,2.3659897
				c5.4729691,3.6768036,6.4121857,11.5137863,6.4496231,18.3024673c0.0183716,3.3326874-0.0480347,6.6658478-0.1990509,9.995163
				c-0.0679932,1.4988403-0.300148,3.0532532-0.2442093,4.5502625c0.0621643,1.6636047,0.3576202,3.3239746,0.410553,4.9966583
				l-10.7962189-0.2591095"></path>
      </g>
        <g>
        <path d="M92.3957138,137.3952332c-0.0029297,0-0.0058517,0-0.0087738,0
				c-0.068718-0.0048676-0.120369-0.0652924-0.1155014-0.1335297c0.3971786-5.5107117,0.2202759-11.0799179-0.5258255-16.5526199
				c-0.0092621-0.0682297,0.0384979-0.1306076,0.1067276-0.1403503c0.0765076-0.013649,0.1310883,0.0389862,0.1408386,0.1072083
				c0.7480469,5.4892807,0.9254379,11.0750504,0.5268021,16.6033096
				C92.5155945,137.3455353,92.4605255,137.3952332,92.3957138,137.3952332z"></path>
      </g>
        <g>
        <path d="M49.1549797,112.1311111c-0.0185204,0-0.0375252-0.0038986-0.0555573-0.0126724
				c-0.0614052-0.031189-0.0867462-0.1052628-0.0560417-0.1676407c0.5428848-1.0974655,1.0487328-2.2280731,1.5029221-3.3606262
				c0.0263176-0.0643234,0.0994148-0.0935669,0.162281-0.0691986c0.0643272,0.0263138,0.0950279,0.0984421,0.0696869,0.1627655
				c-0.4571152,1.1374283-0.9653969,2.2748566-1.5116959,3.3781662
				C49.2451324,112.1057663,49.2007866,112.1311111,49.1549797,112.1311111z"></path>
      </g>
        <g>
        <path d="M87.8349762,139.3560181l-4.0907745,0.4151306l-44.316494-1.3241119
				c-0.3591614-9.7808838,2.3752403-20.3974533,9.840641-27.1442871c0.9383507-0.848381,1.9563828-1.6368179,3.0540924-2.3354645
				c6.1778717-3.9622269,14.3620834-4.6808548,21.0389786-1.6567383c5.379631,2.4352493,9.7609634,7.006279,11.7270966,12.6552734
				C87.5236969,126.952179,87.6751328,132.0702667,87.8349762,139.3560181z"></path>
      </g>
        <g>
        <path fill="#fff" d="M86.4612656,139.7711487c0,0-47.0243149-1.3397217-47.0250854-1.3397369
				c-0.3950882-0.011261,0.3779602-7.718689,0.4866905-8.4081879c0.4494286-2.8500366,1.1947212-5.6652527,2.2904968-8.3595352
				c0.9631691-2.3682327,2.2003746-4.6446915,3.7477112-6.7272034c1.6373024-2.2035904,3.7212601-4.3908997,6.4360619-5.4240494
				c3.0957794-1.1781387,6.4517632-1.7552109,9.7930031-1.6958389c3.1336021,0.0556793,6.2609749,0.6758423,9.1198311,1.884903
				c5.8216248,2.4640045,10.5634155,7.0890808,12.691185,12.8047409
				C86.2154236,128.4643097,86.4936981,133.3687439,86.4612656,139.7711487z"></path>
            <path d="M86.4615021,139.8962097c-0.0009766,0-0.0024414,0-0.0034103,0c0,0-46.9775772-1.3391724-47.0253334-1.3401489
				c-0.0462952-0.0009766-0.0891838-0.0233917-0.1213455-0.0614014c-0.4010735-0.4824677,0.4376221-8.1696014,0.4883041-8.4912415
				c0.46735-2.9649048,1.2407417-5.7875137,2.2982445-8.3869324c1.007309-2.4775772,2.2733917-4.7495117,3.7626686-6.7543793
				c2.0886955-2.8109207,4.2119904-4.5984421,6.4922028-5.4668655c3.0852814-1.1734848,6.4853783-1.7670517,9.8396683-1.7037048
				c3.1983376,0.0565338,6.3679314,0.7115021,9.1661797,1.8947372c6.0092545,2.5438614,10.6598358,7.2368393,12.7592545,12.8762207
				c2.1193924,5.7027283,2.5024338,10.483429,2.4683228,17.3099365c0,0.0331421-0.013649,0.0653076-0.0380096,0.0886993
				C86.5248566,139.8835449,86.4936676,139.8962097,86.4615021,139.8962097z M39.4926987,138.3084869
				c0.4566269,0.0126801,4.8411293,0.1374359,46.8445358,1.3343201c0.0287476-6.7280731-0.3601379-11.4619904-2.4532166-17.092598
				c-2.0755386-5.5760193-6.6764145-10.2173462-12.6228104-12.7339172
				c-2.7685165-1.1705627-5.9064255-1.8187103-9.0735817-1.8752365c-3.3148155-0.0575104-6.6895676,0.5253372-9.7460976,1.6881027
				c-2.2344055,0.8499069-4.3211517,2.6101379-6.3806038,5.3810959c-1.4766083,1.9883041-2.7324562,4.2426834-3.7319679,6.6997986
				c-1.0501938,2.5828476-1.8182259,5.3859634-2.28265,8.3323669
				C39.9137535,130.8845215,39.2641411,137.6389008,39.4926987,138.3084869z"></path>
      </g>
        <g>
        <path fill="#68cc00" d="M74.3083038,96.0855865c1.9064331,1.0020752,3.4225159,2.7251511,4.1739731,4.7436066
				c0.0065842-0.6403503-23.4061813-0.8789597-23.4127617-0.2386093c0.1566772-0.721489,0.3679771-1.2992172,0.8581886-1.851326
				c0.2640915-0.2974396,0.5676575-0.5568008,0.8701363-0.8151093c0.7226753-0.6171341,1.4454079-1.2342682,2.1681175-1.8514099
				C58.9657135,96.6356583,74.3080597,96.6485138,74.3083038,96.0855865z"></path>
            <path d="M78.48246,100.9537201c-0.0467834,0-0.0901566-0.0263138-0.1111145-0.068222
				c-0.962471-0.5380096-22.2183189-0.7553635-23.1915169-0.2368393c-0.0233917,0.0438538-0.0677376,0.0730972-0.1242676,0.0653
				c-0.0633507-0.0068207-0.1111107-0.0614014-0.1106224-0.1247559c0.0004883-0.0263138,0.0004883-0.0526352,0.0146179-0.078949
				c0.1554604-0.6988297,0.3684235-1.2836227,0.8752441-1.8537979c0.2719307-0.3060455,0.581871-0.5711517,0.8820648-0.8265152
				l2.168129-1.8518524c0.0365524-0.0331345,0.0891838-0.0389862,0.1330414-0.0185165
				c0.0277786,0.0126724,0.049221,0.0350876,0.0614052,0.0614014c0.7845993,0.4766083,14.3308907,0.4873352,15.11549,0.0126724
				c0.0102386-0.0224152,0.0272903-0.0419083,0.0492249-0.0555573c0.0370331-0.0224152,0.0843048-0.0233917,0.1223145-0.0029221
				c1.91082,1.0038986,3.4424973,2.7329407,4.2105255,4.7504883c0.0307083,0.0350876,0.0307083,0.0701752,0.03022,0.1042862
				c-0.0004883,0.0604324-0.0438614,0.1111145-0.1033173,0.1218338
				C78.4965897,100.9527512,78.4892807,100.9537201,78.48246,100.9537201z M63.6369438,100.0882263
				c0.9766045,0,1.9990273,0.0048752,3.0467796,0.0155945c3.0862579,0.0302124,5.9673538,0.1023407,8.11306,0.2017517
				c2.0886993,0.0964966,3.0331421,0.1929855,3.4595566,0.2894745c-0.7631607-1.8460007-2.1856766-3.4239731-3.9454193-4.3674469
				c-0.36306,0.1705704-1.8031235,0.3986359-7.5180359,0.3986359c-0.0316696,0-0.0628586,0-0.0945358,0
				c-2.0224228-0.0009689-3.9113083-0.0399551-5.3182259-0.1091614c-1.6189079-0.0799179-2.2056541-0.1773834-2.418129-0.2768021
				l-2.0833321,1.7787552c-0.2933731,0.2504883-0.596981,0.5097427-0.8577003,0.8031158
				c-0.4244652,0.4775848-0.6286545,0.9736862-0.772419,1.5497055c0.3971748-0.0906372,1.3162766-0.1715393,3.4429817-0.2280655
				C60.0726166,100.1067429,61.7704735,100.0882263,63.6369438,100.0882263z"></path>
      </g>
        <g>
        <path d="M78.7032776,74.0259476c-0.2627182,1.4083939-0.7862701,2.768013-1.5355988,3.9891281
				c-0.9073181,1.4785919-1.8055496,2.9788132-3.0077667,4.2443695c-0.2791138,0.2990646-0.5781479,0.5781403-0.8772202,0.8274078
				c-0.4505081,0.3754807-0.9204712,0.7208023-1.3916321,1.0689163c0.940506-0.6938629,1.7633591,1.5693741,1.9634552,2.1239929
				c0.4847336,1.343605,0.5841446,2.9477768-0.3105392,4.1652756c-0.5132599,0.6984558-1.3622284,1.1197586-2.2271576,1.1761551
				c-0.8649368,0.0564041-1.7358627-0.2348862-2.4379883-0.7431412c0.257431,1.4069977-0.4720993,2.8751984-1.6002884,3.7544479
				s-2.591301,1.2349854-4.0209618,1.2794342c-0.5996284,0.0186386-1.2073326-0.0144196-1.7823067-0.1856155
				c-0.9925003-0.295517-1.8511467-1.0146561-2.316227-1.9399109c-0.4650764-0.9252472-0.5299416-2.0433884-0.1749687-3.0162125
				c-1.3358421,0.3949738-2.9651222,0.2708588-3.8695564-0.7886124c-0.3047523-0.3569946-0.5042419-0.7940903-0.6355019-1.2447433
				c-0.7296333-2.5050125,0.6550369-4.3965607,2.5344543-5.7887344c-0.2495117-0.2195435-0.4892807-0.4490738-0.718811-0.6886597
				c-1.0277786-1.05793-1.8762169-2.3354034-2.4751472-3.8224869c-1.4770927-3.6429138-0.9081383-8.1041641,1.6269493-11.1083069
				c1.7965393-2.1258545,4.4312859-3.4432869,7.1759262-3.9323235c1.9652557-0.3501663,3.9849701-0.2944069,5.9495468,0.0302734
				c0.7583771,0.1253357,1.598877,0.2890663,2.2924347,0.6361885c0.3227615,0.1615448,0.6110153,0.3962021,0.8348846,0.6792984
				c0.0534744,0.0676346,0.486702,0.8930283,0.4382629,0.895134c1.3239899-0.0574112,2.7027054,0.0506897,3.8651657,0.6870346
				c1.1322327,0.6197891,1.9691162,1.7075806,2.4226074,2.9160614c0.4534836,1.2084808,0.5444641,2.53125,0.4166031,3.8156662
				C78.8095245,73.381134,78.7631836,73.7048111,78.7032776,74.0259476z"></path>
      </g>
        <g>
        <path fill="#ff98cb" d="M72.2537231,83.8762817c0.0796814,0.1697159,0.1595993,0.3493576,0.2192993,0.5289993
				c-4.1418152-1.0479431-13.44347-0.9082031-16.2183228-0.8383942c0.239769-0.2195358,0.4892807-0.4191589,0.7587738-0.618782
				c-0.2495117-0.2195435-0.4892807-0.4490738-0.718811-0.6886597c4.3615952-0.1796417,13.6632538,0.5589066,16.9868393,0.8283997
				C72.9423218,83.3772583,72.6028976,83.6367645,72.2537231,83.8762817z"></path>
      </g>
        <g>
        <path d="M76.1730042,95.6720505c-0.0506821,0-0.0984421-0.031189-0.1169586-0.0809021
				c-0.3308945-0.8927841-1.1038055-1.9444427-2.1924973-1.9746552c-0.1096497,0-0.2192993,0.0048752-0.328949,0.0116959
				c-0.2080841,0.013649-0.4220276,0.0282669-0.6349869-0.0204697c-0.2251434-0.0526276-0.4327469-0.2017517-0.54142-0.3908386
				c-0.081871-0.1413269-0.1018524-0.2923965-0.0579987-0.4356689c0.0579987-0.1929855,0.2134552-0.318718,0.3503952-0.4298248
				c0.3118896-0.2553635,0.668129-0.5994186,0.6924896-1.0282669c0.0316772-0.5419083-0.4707565-0.983429-0.9663696-1.3430786
				c-0.0555573-0.0409393-0.0677414-0.1189117-0.0272903-0.1744614c0.040451-0.0565338,0.1184235-0.0672531,0.1744614-0.0282669
				c0.5497055,0.4005814,1.1072159,0.8986359,1.068718,1.5594559c-0.0307083,0.5321579-0.4595566,0.9415207-0.7797318,1.2036972
				c-0.1193924,0.0974731-0.2378159,0.1939621-0.27388,0.3128662c-0.0233917,0.0770035-0.0116959,0.1578979,0.0350876,0.2387924
				c0.0745621,0.1286545,0.2241745,0.2358704,0.3815842,0.2719345c0.17836,0.0419083,0.3650055,0.0282593,0.5623779,0.0155945
				c0.1169586-0.0087738,0.2387924-0.0116959,0.3518524-0.0126724c1.2134476,0.0331345,2.0618896,1.1725159,2.4200745,2.1364517
				c0.02388,0.0653-0.0087738,0.1364517-0.0735855,0.16082C76.20224,95.6691208,76.1876221,95.6720505,76.1730042,95.6720505z"></path>
      </g>
        <g>
        <path d="M51.9478607,94.4274063c-0.0648117,0-0.1193924-0.0497055-0.1242676-0.1150055
				c-0.0053596-0.0682297,0.0458107-0.1286545,0.114521-0.1345062c0.5414238-0.0428848,0.9400597-0.5019455,1.0945435-0.938591
				c0.1520462-0.4288559,0.1544838-0.9444504,0.00877-1.5750504c-0.0170555-0.0721283-0.0350876-0.144249-0.0531158-0.2163773
				c-0.0643272-0.2553558-0.1306038-0.5185165-0.13694-0.79142c-0.0097466-0.4200821,0.144249-0.7923965,0.412281-0.9970779
				c0.12183-0.0925903,0.2592583-0.1481476,0.3922997-0.2007751c0.1257286-0.0506897,0.2441521-0.0984421,0.340641-0.1734924
				c0.27388-0.2124786,0.3367462-0.61306,0.3776817-1.0048752l0.111599-1.0623779
				c0.007309-0.0691986,0.0735855-0.1276779,0.1374245-0.1111069c0.0682297,0.0068207,0.1179352,0.068222,0.1111145,0.1364517
				l-0.111599,1.0623779c-0.0467834,0.4454193-0.1218338,0.9035034-0.4731979,1.1764145
				c-0.1237831,0.096489-0.2646179,0.1530151-0.4005852,0.2075958c-0.1232948,0.0497131-0.2392769,0.0964966-0.3343086,0.1686172
				c-0.2041893,0.1559448-0.3216362,0.45224-0.313839,0.7923965c0.0058479,0.2446442,0.0657883,0.4834366,0.1291428,0.7368469
				c0.0185165,0.0730972,0.0370369,0.147171,0.0540924,0.2202682c0.1574097,0.6783676,0.1520462,1.239769-0.0165672,1.7154007
				c-0.2178383,0.6150131-0.7441521,1.0594559-1.3099442,1.1042862
				C51.9541969,94.4274063,51.9507866,94.4274063,51.9478607,94.4274063z"></path>
      </g>
        <g>
        <path d="M55.4980583,96.3046036c-0.055069,0-0.1052666-0.0360641-0.1203728-0.0916214
				c-0.0180321-0.0662766,0.0209541-0.1354752,0.0872345-0.1530228c0.5043831-0.1383972,0.6510696-0.8206558,0.6228065-1.3625717
				c-0.0038986-0.0769958-0.0087738-0.1549683-0.0141335-0.2329407c-0.0355759-0.534111-0.0755348-1.1384048,0.2787514-1.581871
				c0.1983452-0.2475662,0.4805069-0.3927917,0.7534103-0.5331421c0.290451-0.1491165,0.5648155-0.2894669,0.7178383-0.5399551
				c0.1588669-0.2602386,0.1510696-0.581871,0.1427879-0.9220276c-0.0073128-0.2972717-0.01511-0.6042938,0.090641-0.8908386
				c0.02388-0.0653076,0.0964928-0.09552,0.1598434-0.0740738c0.0648155,0.0233917,0.0979538,0.0955124,0.0740738,0.1598434
				c-0.08918,0.242691-0.0823555,0.5126724-0.0750465,0.7992172c0.00877,0.3606262,0.0180321,0.7348938-0.1798248,1.0584793
				c-0.1890831,0.3099442-0.5077972,0.4736862-0.8162766,0.6315765c-0.2612076,0.1335297-0.5077972,0.2602386-0.6725159,0.4668655
				c-0.2938576,0.3674469-0.25877,0.8966827-0.224659,1.4093552c0.0053635,0.0799255,0.0102348,0.1588669,0.0146217,0.2358704
				c0.03265,0.6354752-0.1588707,1.438591-0.8060417,1.6159821C55.5199852,96.303627,55.5087776,96.3046036,55.4980583,96.3046036z"></path>
      </g>
        <g>
        <path d="M75.7266083,85.091156c-0.0350876,0-0.0701752-0.0146255-0.0950241-0.0438614
				c-0.044838-0.0526352-0.0385056-0.1315765,0.0141296-0.1754379c0.5316772-0.4532166,0.8903503-0.95224,1.0662766-1.48246
				c0.2032166-0.61306,0.1403503-1.2621765-0.1691055-1.7368393c-0.0730972-0.1120834-0.1588669-0.2154007-0.25-0.3245621
				c-0.08918-0.1062393-0.1817703-0.2173462-0.2616959-0.3372269c-0.4873276-0.7387924-0.3976593-1.7807083,0.20858-2.4249573
				c0.0428848-0.0458069,0.08918-0.0906372,0.1354752-0.1354752c0.1749496-0.1715393,0.3401566-0.3323593,0.3494186-0.5331345
				c0.0058441-0.1179352-0.0443497-0.253418-0.092598-0.3849945c-0.0813828-0.2212448-0.1739731-0.4717331-0.0131531-0.6959076
				c0.0404434-0.0555496,0.1179352-0.0672531,0.1744614-0.0282593c0.0555573,0.0399551,0.0682297,0.1179276,0.0282669,0.1744614
				c-0.0779724,0.1081848-0.0350876,0.2475586,0.0448303,0.4639359c0.0570221,0.1539993,0.1155014,0.3138428,0.1077042,0.48246
				c-0.0141373,0.2992172-0.2319717,0.5116959-0.424469,0.6997986c-0.0438538,0.0428848-0.0877151,0.0857697-0.1286545,0.1286545
				c-0.5199738,0.5526352-0.5998993,1.4814835-0.181282,2.1150131c0.07164,0.1091614,0.1554565,0.209549,0.2446365,0.3157883
				c0.0916214,0.1101379,0.1866455,0.2231979,0.2675476,0.3479538c0.3503876,0.5380096,0.4239731,1.2680283,0.1968765,1.9512634
				c-0.1905441,0.5750504-0.5745621,1.1111145-1.1413193,1.5935669
				C75.7841187,85.0814056,75.7553635,85.091156,75.7266083,85.091156z"></path>
      </g>
        <g>
        <path d="M78.1598434,82.6603546c-0.0097427,0-0.0199814-0.0009766-0.0302124-0.0038986
				c-0.0667648-0.016571-0.1076965-0.0847931-0.0906448-0.1510696c0.0794373-0.3167648,0.2173538-0.626709,0.3508759-0.9269028
				c0.2577972-0.5808945,0.5014648-1.129631,0.3250504-1.6764145c-0.0998993-0.3089676-0.3226089-0.5594559-0.5584793-0.8245621
				c-0.2485352-0.2797241-0.5048752-0.568222-0.6169586-0.938591c-0.1115952-0.3694-0.0555573-0.7845993,0.1491241-1.1111145
				c0.0599442-0.096489,0.1340179-0.1890793,0.2080917-0.2826538c0.1686096-0.2105255,0.3274841-0.4103241,0.29142-0.6286545
				c-0.0453186-0.2787476-0.3888855-0.4298248-0.6832352-0.531189c-0.0560455-0.0194931-0.1018524-0.0916138-0.0940552-0.1500931
				c0.0092621-0.0711517,0.0730972-0.1315765,0.144249-0.1374283c0.0711517,0,0.1218338,0.0389862,0.1423035,0.0916214
				c0.3294296,0.1247559,0.6768951,0.3187103,0.7373276,0.6861572c0.0536041,0.3274841-0.1569214,0.5925903-0.3425903,0.8255386
				c-0.0682297,0.0857697-0.13694,0.1705627-0.192009,0.2592545c-0.1671524,0.2670593-0.2124786,0.6052628-0.1218338,0.9064331
				c0.0960007,0.3177414,0.3235855,0.5740738,0.5643234,0.8450317c0.242691,0.2719269,0.4936676,0.5545807,0.6101379,0.9142303
				c0.205658,0.6374283-0.0691986,1.2553558-0.3347931,1.8537979c-0.1291428,0.290451-0.2631607,0.5906448-0.3372345,0.8859634
				C78.266571,82.622345,78.215889,82.6603546,78.1598434,82.6603546z"></path>
      </g>
        <g>
        <path fill="none"
              d="M100.897377,134.2257233c-0.5757141-0.0584259-1.1514282-0.1168518-1.7271423-0.1752777"></path>
      </g>
        <g>
        <rect width="55.694" height="10.249" x="77.534" y="34.906" fill="#ff98cb"></rect>
      </g>
        <g>
        <path d="M81.8377228,44.0131874c-0.068718,0-0.1247559-0.0555534-0.1247559-0.1247559v-6.7368393
				c0-0.0692024,0.0560379-0.1247559,0.1247559-0.1247559c0.0687103,0,0.1247559,0.0555534,0.1247559,0.1247559v6.7368393
				C81.9624786,43.957634,81.9064331,44.0131874,81.8377228,44.0131874z"></path>
      </g>
        <g>
        <path d="M84.4863586,43.6681595c-0.068718,0-0.1247635-0.0555534-0.1247635-0.1247559v-4.8947372
				c0-0.0691986,0.0560455-0.1247559,0.1247635-0.1247559c0.0687103,0,0.1247559,0.0555573,0.1247559,0.1247559v4.8947372
				C84.6111145,43.612606,84.555069,43.6681595,84.4863586,43.6681595z"></path>
      </g>
        <g>
        <path d="M87.307991,43.6681595c-0.0687103,0-0.1247559-0.0555534-0.1247559-0.1247559v-3.0233917
				c0-0.0691986,0.0560455-0.1247559,0.1247559-0.1247559c0.068718,0,0.1247559,0.0555573,0.1247559,0.1247559v3.0233917
				C87.4327469,43.612606,87.376709,43.6681595,87.307991,43.6681595z"></path>
      </g>
        <g>
        <path d="M89.6686172,43.6681595c-0.068718,0-0.1247559-0.0555534-0.1247559-0.1247559v-5.5282631
				c0-0.0692024,0.0560379-0.1247559,0.1247559-0.1247559c0.0687103,0,0.1247559,0.0555534,0.1247559,0.1247559v5.5282631
				C89.7933731,43.612606,89.7373276,43.6681595,89.6686172,43.6681595z"></path>
      </g>
        <g>
        <path d="M92.1486359,44.0131874c-0.068718,0-0.1247559-0.0555534-0.1247559-0.1247559v-6.7368393
				c0-0.0692024,0.0560379-0.1247559,0.1247559-0.1247559c0.0687103,0,0.1247559,0.0555534,0.1247559,0.1247559v6.7368393
				C92.2733917,43.957634,92.2173462,44.0131874,92.1486359,44.0131874z"></path>
      </g>
        <g>
        <path d="M94.79776,43.6681595c-0.068718,0-0.1247635-0.0555534-0.1247635-0.1247559v-4.8947372
				c0-0.0691986,0.0560455-0.1247559,0.1247635-0.1247559c0.0687103,0,0.1247559,0.0555573,0.1247559,0.1247559v4.8947372
				C94.9225159,43.612606,94.8664703,43.6681595,94.79776,43.6681595z"></path>
      </g>
        <g>
        <path d="M97.6189041,43.6681595c-0.0687103,0-0.1247559-0.0555534-0.1247559-0.1247559v-3.0233917
				c0-0.0691986,0.0560455-0.1247559,0.1247559-0.1247559c0.068718,0,0.1247559,0.0555573,0.1247559,0.1247559v3.0233917
				C97.74366,43.612606,97.6876221,43.6681595,97.6189041,43.6681595z"></path>
      </g>
        <g>
        <path d="M99.9795303,43.6681595c-0.068718,0-0.1247559-0.0555534-0.1247559-0.1247559v-5.5282631
				c0-0.0692024,0.0560379-0.1247559,0.1247559-0.1247559c0.0687103,0,0.1247559,0.0555534,0.1247559,0.1247559v5.5282631
				C100.1042862,43.612606,100.0482407,43.6681595,99.9795303,43.6681595z"></path>
      </g>
        <g>
        <path d="M102.4600372,44.0131874c-0.068718,0-0.1247559-0.0555534-0.1247559-0.1247559v-6.7368393
				c0-0.0692024,0.0560379-0.1247559,0.1247559-0.1247559c0.0687103,0,0.1247559,0.0555534,0.1247559,0.1247559v6.7368393
				C102.5847931,43.957634,102.5287476,44.0131874,102.4600372,44.0131874z"></path>
      </g>
        <g>
        <path d="M105.1086731,43.6681595c-0.068718,0-0.1247559-0.0555534-0.1247559-0.1247559v-4.8947372
				c0-0.0691986,0.0560379-0.1247559,0.1247559-0.1247559c0.0687103,0,0.1247559,0.0555573,0.1247559,0.1247559v4.8947372
				C105.233429,43.612606,105.1773834,43.6681595,105.1086731,43.6681595z"></path>
      </g>
        <g>
        <path d="M107.9298172,43.6681595c-0.0687103,0-0.1247559-0.0555534-0.1247559-0.1247559v-3.0233917
				c0-0.0691986,0.0560455-0.1247559,0.1247559-0.1247559c0.068718,0,0.1247559,0.0555573,0.1247559,0.1247559v3.0233917
				C108.0545731,43.612606,107.9985352,43.6681595,107.9298172,43.6681595z"></path>
      </g>
        <g>
        <path d="M110.2904434,43.6681595c-0.0687103,0-0.1247559-0.0555534-0.1247559-0.1247559v-5.5282631
				c0-0.0692024,0.0560455-0.1247559,0.1247559-0.1247559s0.1247559,0.0555534,0.1247559,0.1247559v5.5282631
				C110.4151993,43.612606,110.3591537,43.6681595,110.2904434,43.6681595z"></path>
      </g>
        <g>
        <path d="M112.7709503,44.0131874c-0.0687103,0-0.1247559-0.0555534-0.1247559-0.1247559v-6.7368393
				c0-0.0692024,0.0560455-0.1247559,0.1247559-0.1247559s0.1247559,0.0555534,0.1247559,0.1247559v6.7368393
				C112.8957062,43.957634,112.8396606,44.0131874,112.7709503,44.0131874z"></path>
      </g>
        <g>
        <path d="M115.4195862,43.6681595c-0.068718,0-0.1247559-0.0555534-0.1247559-0.1247559v-4.8947372
				c0-0.0691986,0.0560379-0.1247559,0.1247559-0.1247559c0.0687103,0,0.1247559,0.0555573,0.1247559,0.1247559v4.8947372
				C115.544342,43.612606,115.4882965,43.6681595,115.4195862,43.6681595z"></path>
      </g>
        <g>
        <path d="M118.2407379,43.6681595c-0.068718,0-0.1247635-0.0555534-0.1247635-0.1247559v-3.0233917
				c0-0.0691986,0.0560455-0.1247559,0.1247635-0.1247559c0.0687103,0,0.1247559,0.0555573,0.1247559,0.1247559v3.0233917
				C118.3654938,43.612606,118.3094482,43.6681595,118.2407379,43.6681595z"></path>
      </g>
        <g>
        <path d="M120.6018448,43.6681595c-0.0687103,0-0.1247559-0.0555534-0.1247559-0.1247559v-5.5282631
				c0-0.0692024,0.0560455-0.1247559,0.1247559-0.1247559s0.1247559,0.0555534,0.1247559,0.1247559v5.5282631
				C120.7266006,43.612606,120.6705551,43.6681595,120.6018448,43.6681595z"></path>
      </g>
        <g>
        <path d="M123.0818634,44.0131874c-0.0687103,0-0.1247559-0.0555534-0.1247559-0.1247559v-6.7368393
				c0-0.0692024,0.0560455-0.1247559,0.1247559-0.1247559s0.1247559,0.0555534,0.1247559,0.1247559v6.7368393
				C123.2066193,43.957634,123.1505737,44.0131874,123.0818634,44.0131874z"></path>
      </g>
        <g>
        <path d="M125.7304993,43.6681595c-0.0687103,0-0.1247559-0.0555534-0.1247559-0.1247559v-4.8947372
				c0-0.0691986,0.0560455-0.1247559,0.1247559-0.1247559s0.1247559,0.0555573,0.1247559,0.1247559v4.8947372
				C125.8552551,43.612606,125.7992096,43.6681595,125.7304993,43.6681595z"></path>
      </g>
        <g>
        <path d="M128.551651,43.6681595c-0.0687103,0-0.1247559-0.0555534-0.1247559-0.1247559v-3.0233917
				c0-0.0691986,0.0560455-0.1247559,0.1247559-0.1247559s0.1247559,0.0555573,0.1247559,0.1247559v3.0233917
				C128.6764069,43.612606,128.6203613,43.6681595,128.551651,43.6681595z"></path>
      </g>
        <g>
        <path d="M130.9127655,43.6681595c-0.0687256,0-0.1247559-0.0555534-0.1247559-0.1247559v-5.5282631
				c0-0.0692024,0.0560303-0.1247559,0.1247559-0.1247559c0.0687103,0,0.1247559,0.0555534,0.1247559,0.1247559v5.5282631
				C131.0375214,43.612606,130.9814758,43.6681595,130.9127655,43.6681595z"></path>
      </g>
        <g>
        <g>
          <path d="M119.64814,30.9985714c0.0019531,0.3654976-0.1003876,0.7465897-0.3075027,1.1452236
					c-0.2061386,0.3976631-0.4707642,0.7231979-0.7928848,0.9736862c-0.3221283,0.2524338-0.6379166,0.3791389-0.9463959,0.3810921
					c-0.3201752,0.0009727-0.578949-0.1033173-0.7763138-0.3167648c-0.1978531-0.2124748-0.29776-0.5077972-0.2997055-0.8840179
					c-0.0019531-0.3596478,0.105751-0.7329426,0.3216324-1.1198807c0.2168655-0.3879147,0.492691-0.7056541,0.8270035-0.9541912
					c0.3347931-0.248539,0.6505814-0.3742695,0.9478531-0.3752441c0.3167648-0.0019493,0.5662766,0.1003895,0.7490234,0.3060436
					C119.5540848,30.3591957,119.6461945,30.640873,119.64814,30.9985714z M117.0082779,32.3552971
					c0.0014648,0.2115021,0.057991,0.3830414,0.1700745,0.5175438c0.1125793,0.1335297,0.2553635,0.1998062,0.4303131,0.1998062
					c0.2329483-0.0019493,0.4712524-0.1111145,0.7154007-0.3294373c0.2436676-0.2183228,0.4454193-0.4990234,0.6047745-0.8411293
					c0.1588745-0.3430805,0.2373352-0.6647167,0.2358704-0.9668617c-0.0009766-0.2134495-0.0487366-0.3771935-0.1427917-0.4902534
					c-0.0935669-0.1150093-0.2275772-0.1715393-0.4025269-0.1705647c-0.2412338,0.0009747-0.4887924,0.1072121-0.742691,0.3167629
					c-0.2538986,0.2105274-0.4624786,0.4824562-0.6257324,0.8128662
					C117.0877151,31.7363892,117.006813,32.053154,117.0082779,32.3552971z"></path>
        </g>
            <g>
          <path d="M120.6364441,32.9108505c0.1023407-0.0077972,0.1808014-0.0116959,0.2353821-0.0116959
					c0.1383972-0.0009727,0.3693924,0.0116959,0.6939545,0.0399628c0.3240738,0.0263138,0.57164,0.0536079,0.7417145,0.0799217
					c0.1700821,0.0263176,0.2763214,0.0516586,0.3177414,0.0769997c0.0409317,0.0263138,0.0745621,0.0594521,0.0994186,0.1033134
					c0.0253372,0.0438576,0.0375214,0.090641,0.0380096,0.1403503c0,0.0409355-0.0307007,0.0838203-0.092598,0.1286545
					c-0.0618896,0.0428848-0.1193924,0.0653038-0.1739731,0.0662766c-0.0643311,0-0.1622772-0.0155945-0.2948303-0.0458107
					c-0.2227097-0.0536041-0.4902573-0.0935669-0.8016586-0.1189079c-0.3109207-0.0272903-0.6003952-0.039959-0.8674469-0.0389862
					c-0.1189117,0.0009766-0.2417145,0.0204697-0.3684235,0.05653c-0.0711517,0.0263176-0.1403503,0.0380135-0.2080917,0.0389862
					c-0.04142,0-0.0769958-0.0116959-0.1076965-0.0370369c-0.0307007-0.0243645-0.0462952-0.0584793-0.0462952-0.1013641
					c-0.0009766-0.1520462,0.1154938-0.3362579,0.3498993-0.5555534c0.2334366-0.21735,0.5638428-0.4376221,0.9902573-0.6588707
					c0.5214386-0.2719288,0.8659821-0.5,1.0331345-0.6822605c0.1676407-0.1822605,0.2504883-0.3606243,0.2495117-0.5360622
					c-0.0009689-0.1598434-0.0633469-0.2982464-0.188591-0.4142303c-0.1257324-0.1169586-0.281189-0.1754379-0.4678421-0.1734886
					c-0.1715393,0-0.3299179,0.0302143-0.4746552,0.0886936c-0.1452255,0.0584793-0.2855759,0.1656914-0.4215393,0.3187141
					c-0.0555573,0.0643272-0.1077042,0.0955162-0.1554565,0.0955162c-0.0594559,0.0009747-0.11306-0.0204678-0.1613083-0.0623779
					c-0.04776-0.0419102-0.0726089-0.0896683-0.0726089-0.1442509c-0.0009766-0.1676407,0.1315765-0.3304081,0.3976593-0.4863529
					c0.2651062-0.1549721,0.5779724-0.2348938,0.9376221-0.2368431c0.3084793-0.0009747,0.5667648,0.0906429,0.7753372,0.2758293
					c0.2080917,0.1861591,0.3128662,0.4259243,0.3143311,0.7212467c0.0014572,0.2943478-0.1096497,0.5653019-0.3333359,0.8128662
					c-0.2241745,0.2475624-0.6437607,0.5214424-1.2597427,0.8196869
					C121.0506744,32.5999374,120.8250427,32.7461357,120.6364441,32.9108505z"></path>
        </g>
            <g>
          <path d="M124.2114944,33.0414581c0.0009766,0.1140327-0.0423965,0.2134476-0.1291428,0.2972679
					c-0.0872345,0.0838203-0.1871338,0.1257324-0.2992172,0.1257324c-0.0857773,0.0009727-0.1588745-0.0292397-0.2192993-0.087719
					c-0.0609207-0.0604286-0.0911331-0.1335297-0.0916214-0.2192993c-0.0009766-0.1140327,0.0443497-0.2144241,0.1354752-0.3021431
					c0.0911331-0.0867462,0.192009-0.1306038,0.3026352-0.1306038c0.0862579-0.0009766,0.1574097,0.0292397,0.2149124,0.090641
					C124.1827393,32.8747902,124.2110062,32.9508133,124.2114944,33.0414581z M124.6807938,31.3601704
					c0.0004883,0.1120853-0.0428848,0.2115002-0.1301193,0.2962971c-0.0867462,0.084795-0.1861572,0.1267052-0.2982483,0.1276798
					c-0.0857697,0-0.1593552-0.0292397-0.21978-0.0896683c-0.0609207-0.0594559-0.0911331-0.1315804-0.0916214-0.21735
					c-0.0004883-0.11306,0.0443497-0.2134495,0.1345062-0.3011684c0.0901566-0.0886955,0.1915207-0.1315804,0.3036041-0.132555
					c0.0857697,0,0.1578903,0.0292397,0.2144241,0.0906448C124.651062,31.194479,124.6803055,31.2695274,124.6807938,31.3601704z"></path>
        </g>
            <g>
          <path d="M128.4395599,30.9517879c0.0019531,0.3654976-0.1003876,0.745615-0.3074951,1.1442509
					c-0.2061462,0.3986359-0.4707642,0.7231941-0.7928925,0.974659c-0.3221207,0.2524338-0.6379166,0.3781662-0.9463959,0.3801155
					c-0.3201752,0.0019493-0.5789413-0.1033134-0.7763138-0.3167648c-0.1978531-0.2124748-0.29776-0.5068207-0.2997055-0.8830414
					c-0.0019531-0.3596478,0.105751-0.7339172,0.32164-1.1208553c0.2168579-0.38694,0.4926834-0.7056541,0.8269958-0.9532166
					c0.3347931-0.248539,0.6505814-0.3742695,0.9478531-0.3762188c0.3167648-0.0009747,0.5662766,0.1003895,0.7490311,0.3060436
					C128.3455048,30.3114376,128.4376068,30.5940876,128.4395599,30.9517879z M125.7996979,32.3075371
					c0.0014648,0.2115021,0.057991,0.3840179,0.1700821,0.5175438c0.1125717,0.1345024,0.2553558,0.2007828,0.4303055,0.1998062
					c0.2329483-0.0009727,0.4712524-0.1111107,0.7154007-0.3294334c0.2436676-0.21735,0.4454193-0.4980507,0.6047745-0.8401566
					c0.1588745-0.3430805,0.2373352-0.6656914,0.2358704-0.9678364c-0.0009766-0.2134495-0.0487289-0.3762188-0.1427841-0.4902534
					c-0.0935669-0.1140347-0.2275848-0.1715393-0.4025345-0.1705647c-0.2412338,0.0019493-0.4887924,0.1072121-0.742691,0.3177376
					c-0.2538986,0.2105274-0.4624786,0.4814816-0.6257324,0.8128662
					C125.8791351,31.6896057,125.7982407,32.005394,125.7996979,32.3075371z"></path>
        </g>
            <g>
          <path d="M131.9994965,30.9322948c0.0019531,0.3654976-0.1003876,0.7465897-0.3074951,1.1452236
					c-0.2061462,0.3976631-0.4707642,0.7222214-0.7928925,0.9736862c-0.322113,0.2524338-0.6379089,0.3791389-0.9463959,0.3810883
					c-0.3201752,0.0009766-0.5789337-0.1033134-0.7763062-0.316761c-0.1978607-0.2124786-0.29776-0.5077972-0.2997131-0.8840179
					c-0.0019531-0.3596478,0.1057587-0.7329426,0.32164-1.1198826c0.2168579-0.3879128,0.492691-0.7056522,0.8269958-0.9541893
					c0.3347931-0.248539,0.650589-0.3742695,0.9478607-0.3752441c0.3167572-0.0019493,0.5662689,0.1003895,0.7490234,0.3060436
					C131.9054413,30.2929192,131.9975586,30.5745945,131.9994965,30.9322948z M129.3596344,32.2890205
					c0.0014648,0.2115021,0.0579987,0.3830414,0.1700897,0.5175438c0.1125641,0.1335258,0.2553558,0.1998062,0.4303131,0.1988297
					c0.2329407-0.0009727,0.4712372-0.1101379,0.7153931-0.3284607c0.2436676-0.2183228,0.4454193-0.4990234,0.6047821-0.8411293
					c0.1588593-0.3430805,0.2373199-0.6647167,0.2358551-0.9668617c-0.0009766-0.2134495-0.0487213-0.3771935-0.1427765-0.4902534
					c-0.0935669-0.1150093-0.2275848-0.1715393-0.4025421-0.1705647c-0.2412262,0.0009747-0.4887848,0.1072121-0.742691,0.3167629
					c-0.253891,0.2105274-0.4624786,0.4814816-0.6257324,0.8128662
					C129.4390717,31.6701126,129.3581848,31.9868755,129.3596344,32.2890205z"></path>
        </g>
      </g>
        <g>
        <rect width="49.749" height=".749" x="81.838" y="43.543"></rect>
      </g>
        <g>
        <path fill="#6565ff" d="M52.3985825,66.5992737l-11.7695694,1.7465515
				c-0.3990517,0.0592117-0.7705498-0.2162704-0.8297691-0.6153259l-1.7465477-11.7695694
				c-0.0592155-0.3990517,0.2162704-0.7705498,0.6153221-0.8297653l11.7695732-1.7465515
				c0.3990479-0.0592155,0.7705498,0.2162743,0.8297653,0.6153221l1.7465477,11.7695732
				C53.0731239,66.1685562,52.7976341,66.5400543,52.3985825,66.5992737z"></path>
      </g>
        <g>
        <path fill="#fff" d="M52.1906395,57.2094879L40.46101,55.2122192c-0.3976974-0.0677147-0.6651955-0.4450073-0.597477-0.8427048
				l1.9972649-11.7296295c0.0677185-0.3976936,0.4450111-0.6651955,0.8427048-0.597477l11.7296295,1.9972649
				c0.3976974,0.0677185,0.6651955,0.4450111,0.597477,0.8427086l-1.9972649,11.7296257
				C52.9656258,57.0097046,52.5883331,57.2772064,52.1906395,57.2094879z"></path>
            <path d="M52.3143349,57.3455467c-0.0472717,0-0.0950317-0.0038986-0.1432762-0.0126724l0,0l-11.7324524-1.9980507
				c-0.4639397-0.0789452-0.7772903-0.5204659-0.6983452-0.9844055l1.9980507-11.7319641
				c0.0380135-0.2261238,0.1617928-0.4230042,0.3484421-0.5545807c0.1856728-0.1325569,0.4127655-0.186161,0.6364517-0.1442528
				l11.7324524,1.9970779c0.4639397,0.0799217,0.7772903,0.5214424,0.6978569,0.9853783l-1.9975624,11.7319679
				C53.085289,57.0502243,52.7227173,57.3455467,52.3143349,57.3455467z M52.2129707,57.0872612
				c0.3308945,0.0555534,0.6413231-0.1676407,0.6973686-0.4951286l1.9975624-11.7319641
				c0.0560417-0.3284607-0.1656914-0.6413269-0.4941521-0.6978569l-11.7324562-1.9970741
				c-0.1583824-0.0272903-0.3187103,0.00877-0.4502907,0.1023369c-0.1320648,0.0935669-0.2197838,0.2329445-0.2470779,0.3918152
				L39.985878,54.3913536c-0.0555573,0.3294373,0.1661758,0.6422997,0.4946365,0.6978569L52.2129707,57.0872612z"></path>
      </g>
        <g>
        <path d="M41.769989,60.3387222c-0.0618896,0-0.1159859-0.0458107-0.1237831-0.1091614
				c-0.00877-0.0682259,0.0399628-0.1306038,0.1081886-0.1393776c2.3177376-0.2933731,4.5974655-0.8723183,6.7748528-1.7202721
				c0.0643272-0.0243645,0.13694,0.0058479,0.1617928,0.0711517c0.0248528,0.0633507-0.0068207,0.1364517-0.0711479,0.1608162
				c-2.1968842,0.855751-4.4961014,1.4405479-6.8343086,1.7358665
				C41.7802238,60.3387222,41.7748642,60.3387222,41.769989,60.3387222z"></path>
      </g>
        <g>
        <path d="M42.3694038,64.1925201c-0.0633507,0-0.1179352-0.0477524-0.1242676-0.1120834
				c-0.0068245-0.0691986,0.0433731-0.129631,0.1120834-0.1364517c2.4770966-0.2475624,4.9707603-0.635479,7.4103317-1.1530228
				c0.0721245-0.0146179,0.1340141,0.0292397,0.1476593,0.0955162c0.0146217,0.0682259-0.0287514,0.1345024-0.0960045,0.1481476
				c-2.4483414,0.5204697-4.950779,0.909359-7.4376183,1.1569252
				C42.3776894,64.1925201,42.3733025,64.1925201,42.3694038,64.1925201z"></path>
      </g>
        <g>
        <path d="M50.8309021,47.6720581c-0.0038986,0-0.0082817,0-0.0121803-0.0009766
				c-2.1213455-0.2105255-4.2451286-0.5740738-6.3123779-1.081871c-0.0667648-0.0165672-0.1077003-0.0838203-0.0916176-0.1510696
				c0.0170555-0.0662766,0.0872307-0.1091614,0.1510696-0.0906448c2.0555573,0.5038986,4.1676407,0.8664742,6.2772903,1.0760231
				c0.0687141,0.0068245,0.1189079,0.0672531,0.1120872,0.1364517
				C50.9488373,47.6242981,50.8942566,47.6720581,50.8309021,47.6720581z"></path>
      </g>
        <g>
        <path d="M51.1764183,50.8650398c-0.0024338,0-0.0048714,0-0.0077972,0
				c-2.4039955-0.1471748-4.7694893-0.644249-7.0302124-1.477581c-0.0648155-0.0233917-0.0979538-0.09552-0.0740738-0.1598473
				s0.0960045-0.0945396,0.1598434-0.0740738c2.2387924,0.8245621,4.5799217,1.3167648,6.9600372,1.4619904
				c0.0687141,0.0048714,0.1208611,0.0633507,0.1169624,0.1325531
				C51.2967911,50.8143578,51.2417221,50.8650398,51.1764183,50.8650398z"></path>
      </g>
        <g>
        <path d="M49.1042938,53.966404c-0.0019493,0-0.0038986,0-0.0058479,0
				c-2.1159821-0.0984421-4.194931-0.5263176-6.1788483-1.2729034c-0.0643272-0.0243683-0.0969772-0.0964928-0.0730972-0.16082
				s0.0945396-0.0955162,0.1608162-0.073101c1.9595528,0.7368431,4.0126724,1.1598473,6.1028252,1.2573128
				c0.0687141,0.0029221,0.1218338,0.0614014,0.1189117,0.1306038C49.2256393,53.9147453,49.1705742,53.966404,49.1042938,53.966404
				z"></path>
      </g>
        <g>
        <path fill="#ffc69f"
              d="M100.9211578,134.2026825c0.0060349,0.4764709,0.0764389,0.9520721,0.2087097,1.4098511"></path>
            <path d="M101.1296234,135.7373352c-0.0540924,0-0.1042862-0.03508-0.1198807-0.0906372
				c-0.1349869-0.4678345-0.2071152-0.9541931-0.2134476-1.4424896c-0.0009766-0.0691986,0.0540924-0.1257324,0.123291-0.126709
				c0.0004883,0,0.0009766,0,0.0014648,0c0.068222,0,0.1237793,0.0545807,0.1247559,0.1228027
				c0.0063324,0.4668579,0.0745621,0.9308014,0.2037048,1.3781738c0.0190048,0.0652924-0.0190048,0.1345062-0.0852814,0.1539917
				C101.1525345,135.7353973,101.1408386,135.7373352,101.1296234,135.7373352z"></path>
      </g>
        <g>
        <ellipse cx="129.501" cy="114.77" rx="6.016" ry=".835"></ellipse>
      </g>
        <g>
        <g>
          <path fill="#6565ff" d="M141.2585297,104.5231323c0.5873718-0.5381241,1.4266205-0.7887573,2.2129059-0.6608505
					c0.9871979,0.1605835,1.83255,0.9194336,2.1586914,1.8573151c0.1989441,0.5721207,0.207962,1.2260132-0.0618439,1.7683411
					c-0.125061,0.2513733-0.3043976,0.4711685-0.4857483,0.6855087c-0.2977753,0.3519745-0.6113739,0.7009888-1.0044098,0.9419937
					c-0.4541779,0.2785034-0.9860077,0.3959122-1.5066528,0.5089264c-0.5538025,0.1202164-1.1477814,0.2375565-1.6730042,0.0247269
					c0.0707855,0.5105438,0.0504456,1.0659637,0.1212311,1.5765076c0.0286865,0.2069092,1.9683228-0.0690308,2.1616516-0.1105118
					c0.7289886-0.1564255,1.4576874-0.4277115,2.0905914-0.8258286c1.1530457-0.7253036,2.1059875-1.6579056,2.3798523-3.0495453
					c0.3432617-1.7442169-0.5190125-3.6801224-2.1863403-4.3966522c-1.1162262-0.4796829-2.3760376-0.2735596-3.4103699-0.9916458
					c-0.1663055-0.1154556-0.3544922-0.2531967-0.5508575-0.2039642c-0.2182312,0.054718-0.3140411,0.3061142-0.3674469,0.5246658
					c-0.1815491,0.7431564-0.2644196,1.5103531-0.2457275,2.2751389c0.0014343,0.0584793,0.006012,0.1230927,0.0476227,0.1642075
					C141.0193787,104.6911621,141.1463318,104.6192627,141.2585297,104.5231323z"></path>
        </g>
            <g>
          <g>
            <path fill="#fff" d="M128.7037506,114.3468552c0.0069275,0.6512451,13.3144379,0.5098877,13.3075104-0.1413651
						l-0.1421204-13.3807755l-13.3075104,0.1413574L128.7037506,114.3468552z"></path>
              <path d="M134.3269958,114.8962173c-2.7022552,0-5.1759338-0.1150131-5.6198883-0.3655014
						c-0.1047821-0.0594482-0.1276855-0.1325531-0.1281738-0.1832352l-0.1422882-13.3801117
						c-0.0004883-0.0331421,0.0126648-0.0643311,0.0355682-0.0886917c0.0233917-0.0233917,0.0545807-0.0370407,0.0877228-0.0370407
						l13.3074951-0.1413269c0.0004883,0,0.0009766,0,0.0014648,0c0.068222,0,0.1242676,0.0545807,0.1247559,0.1237869
						l0.1423035,13.3801117c0.0004883,0.0506821-0.0204773,0.1237793-0.1242676,0.1851883
						C141.4614868,114.7149277,137.7149048,114.8962173,134.3269958,114.8962173z M128.8279572,114.3143463
						c0.7129669,0.5194931,12.3547821,0.3957062,13.0579987-0.1384048l-0.1403503-13.2251434l-13.0579987,0.1393814
						L128.8279572,114.3143463z"></path>
          </g>
                <g>
            <path d="M141.8711853,100.767601c0.0048218,0.453476-2.9747772,0.8630829-6.6493378,0.9021149
						c-3.6747742,0.0390396-6.6623993-0.3071823-6.6672211-0.7606583c-0.0006409-0.0604324,0.0326233-0.1061859,0.1161346-0.167511
						c0.083725-0.0613327,0.1844788-0.1078033,0.3022308-0.1241837c0.369339-0.1399384,0.9412689-0.2518539,1.6989746-0.3506088
						c0.4880524-0.065712,1.0608368-0.1171036,1.7008972-0.1693039c0.3033447-0.0182648,0.6064911-0.0366135,0.9433746-0.0553284
						c0.5899658-0.0214005,1.2301483-0.043335,1.8877869-0.0503159c0.2526703-0.0026855,0.5055695-0.0053711,0.7417297,0.0072556
						c0.5561981-0.0059128,1.0789948,0.0036697,1.5678558,0.0136108c1.2480011,0.0471802,2.3112793,0.1417236,3.0710144,0.2546234
						c0.0001678,0.0150375,0.0001678,0.0150375,0.0001678,0.0150375c0.7091217,0.1134415,1.1488495,0.244873,1.2518463,0.4100571
						C141.8707123,100.7222977,141.8708649,100.7374268,141.8711853,100.767601z"></path>
          </g>
                <g>
            <path d="M141.8684082,100.5059662c0.0048218,0.453476-2.9747772,0.8630829-6.6493378,0.9021225
						c-3.6747742,0.039032-6.6623993-0.3071899-6.6672211-0.7606659c-0.0006409-0.0604324,0.0326233-0.1061859,0.1161346-0.167511
						c0.083725-0.0613251,0.1844788-0.1077957,0.3022308-0.1241837c0.134613-0.0165634,0.2694244-0.0330353,0.3874969-0.019249
						c0.3711548,0.0111923,0.7597809,0.0977707,1.0611572-0.0868454c0.1005859-0.0615082,0.1837921-0.1530991,0.2503204-0.2445068
						c0.0830231-0.10672,0.149231-0.2284012,0.2154388-0.3500748c0.1157074-0.2279434,0.3155212-0.4417419,0.5852814-0.4446106
						c0.4045258-0.0042953,0.5775452,0.4172211,0.900177,0.6253738c0.0338593,0.0299072,0.0508881,0.0448608,0.0847931,0.0596313
						c0.2545013,0.1484451,0.6250153,0.099205,0.8418579-0.0996475l0.0167084-0.0153046
						c0.2336121-0.2292938,0.2297516-0.5920792,0.3613281-0.8958588c0.1148987-0.3036041,0.3819275-0.5634232,0.7178497-0.6728287
						c0.3192444-0.10923,0.7245941-0.0378723,0.9795074,0.1710052c0.1703491,0.1494293,0.2567902,0.3450546,0.3261719,0.540863
						c0.0867157,0.2409286,0.1736603,0.4819489,0.2268372,0.7232361c0.0003204,0.0302582,0.0175171,0.0602493,0.0178375,0.0905151
						c0.0348816,0.1054688,0.0528717,0.211113,0.1378326,0.2857819c0.1365356,0.1648331,0.390274,0.2226715,0.6259308,0.2050323
						c0.3367157-0.033844,0.6382904-0.2184601,0.8040924-0.4772034c0.0167084-0.0153122,0.0335846-0.0154877,0.0334167-0.0306244
						c0.2988586-0.4415665,0.1740417-1.0903168,0.5917511-1.4425354c0.3508759-0.2909775,0.924408-0.2516708,1.3146515-0.0139618
						c0.3737183,0.2530136,0.6137085,0.6435547,0.7866058,1.0348053c0.1036072,0.2408447,0.1904907,0.4969025,0.3445892,0.7069397
						c0.0001678,0.0150452,0.0001678,0.0150452,0.0001678,0.0150452c0.0514221,0.075119,0.1195526,0.1348343,0.1706085,0.1947327
						c0.1534119,0.1647415,0.3907166,0.2830963,0.6268921,0.295723c0.1688843,0.0133362,0.3023376-0.0939178,0.4543457-0.0803986
						C141.8679352,100.4606628,141.8680878,100.4757996,141.8684082,100.5059662z"></path>
          </g>
                <g>
            <path fill="#6565ff" d="M135.8741302,104.219429l1.173996,2.0805969c0.0375061,0.0664902,0.1091461,0.1120987,0.1915741,0.1219482
						l2.5789642,0.3082428c0.20755,0.0248032,0.2927399,0.2523422,0.1441498,0.3850403l-1.8462677,1.6488419
						c-0.0590057,0.0526886-0.0853882,0.1279907-0.0705414,0.2013474l0.4643555,2.295578
						c0.0373688,0.1847458-0.1777954,0.3282166-0.3641052,0.2427826l-2.315033-1.0615616
						c-0.0739899-0.0339203-0.1619415-0.0329895-0.2351837,0.0025024l-2.2919617,1.1104965
						c-0.1844635,0.0893707-0.4026184-0.0494995-0.3691864-0.234993l0.4154968-2.304924
						c0.0132751-0.0736542-0.0146942-0.1483765-0.0748138-0.1998062l-1.8808746-1.6092453
						c-0.1513672-0.129509-0.0710297-0.3588104,0.1359406-0.3880157l2.5718384-0.3629608
						c0.0821838-0.0116043,0.1528473-0.0587158,0.1889343-0.1259842l1.1295319-2.105072
						C135.5118408,104.0548325,135.7796478,104.0519867,135.8741302,104.219429z"></path>
          </g>
        </g>
      </g>
        <g>
        <path d="M111.4775772,108.903038c-0.0092621,0-0.0190048-0.0009766-0.0282669-0.0029221
				c-0.0672455-0.0155945-0.1086731-0.0828476-0.0930786-0.1501007l0.4839172-2.068222
				c0.0155945-0.0672531,0.0852814-0.1072159,0.1496124-0.0935669c0.0672531,0.0155945,0.1086731,0.0828476,0.0930786,0.1500931
				l-0.4839172,2.0682297C111.585762,108.8640518,111.534111,108.903038,111.4775772,108.903038z"></path>
      </g>
        <g>
        <path d="M113.2558441,108.673996c-0.0034103,0-0.007309,0-0.0112076-0.0009766
				c-0.068718-0.0058441-0.1194-0.0662766-0.11306-0.1344986c0.08284-0.9259262,0.30896-1.8274918,0.6715393-2.6812897
				c0.0272903-0.0653,0.1008759-0.0945435,0.1637421-0.0662766c0.0633545,0.0272903,0.0930786,0.1003876,0.0662766,0.1637421
				c-0.352829,0.8294373-0.5726166,1.7066269-0.6530228,2.6052628
				C113.3742599,108.6252594,113.3196793,108.673996,113.2558441,108.673996z"></path>
      </g>
        <g>
        <path d="M114.5916138,108.7227249c-0.0350876,0-0.0696869-0.0146179-0.0945435-0.0428848
				c-0.044838-0.0526276-0.0389862-0.1315765,0.0131607-0.1764069l2.2563324-1.9454193
				c0.0526276-0.0458145,0.1310883-0.0380173,0.1759262,0.0126648c0.0448303,0.0526352,0.0389862,0.1315842-0.0131607,0.1764145
				l-2.2563324,1.9454193C114.6496048,108.7129822,114.6203613,108.7227249,114.5916138,108.7227249z"></path>
      </g>
        <g>
        <path d="M36.7012749,109.8338394c-0.04142,0-0.0823555-0.0204697-0.1057472-0.0584793l-1.4970779-2.3996124
				c-0.0365486-0.0584793-0.0185165-0.1354752,0.0399628-0.1725159c0.057991-0.034111,0.1354752-0.0185165,0.1715393,0.0399628
				l1.4970741,2.3996124c0.0365524,0.0584793,0.0185204,0.1354752-0.039959,0.1725159
				C36.7465973,109.8279877,36.7241821,109.8338394,36.7012749,109.8338394z"></path>
      </g>
        <g>
        <path d="M37.5550766,107.9527512c-0.0618896,0-0.1154976-0.0458145-0.1237793-0.109169l-0.2787552-2.1569138
				c-0.00877-0.0682297,0.0394745-0.1306076,0.1077003-0.1393814c0.0657921-0.0136414,0.1306038,0.0389862,0.1398659,0.1081924
				l0.2787514,2.1569138c0.00877,0.0682297-0.0394745,0.1306076-0.1077003,0.1393814
				C37.5657997,107.9527512,37.5604401,107.9527512,37.5550766,107.9527512z"></path>
      </g>
        <g>
        <path d="M39.2568321,107.868927c-0.0029259,0-0.0058479,0-0.0087738,0c-0.0687103-0.0048752-0.120369-0.0653-0.1154938-0.1335297
				c0.0677376-0.9454193,0.2446365-1.8840103,0.5248528-2.79142c0.0204659-0.0662766,0.0886917-0.1013641,0.1564331-0.081871
				c0.0657883,0.0204697,0.1023369,0.0896683,0.0823555,0.1559448c-0.275341,0.8888855-0.4483414,1.8089676-0.5151062,2.7348938
				C39.3767166,107.8192215,39.3216476,107.868927,39.2568321,107.868927z"></path>
      </g>
    </g>
  </g>
</svg>